<svg xmlns="http://www.w3.org/2000/svg" width="1040" height="620" viewBox="0 0 1040 620">
<style>
text { font-family: Arial, Helvetica, sans-serif; fill: #222; }
.title { font-size: 24px; font-weight: 700; }
.subtitle { font-size: 13px; fill: #555; }
.axis { stroke: #333; stroke-width: 1.2; }
.grid { stroke: #ddd; stroke-width: 1; }
.tick { font-size: 12px; fill: #555; }
.label { font-size: 12px; fill: #222; }
.value { font-size: 11px; fill: #222; }
.legend { font-size: 12px; }
</style>
<rect width="100%" height="100%" fill="#fff"/>
<text class="title" x="70" y="34">Structural Improvement Rate</text>
<text class="subtitle" x="70" y="56">Each line is a repair strategy across LLMs</text>
<line class="grid" x1="78" y1="498.0" x2="994" y2="498.0"/>
<text class="tick" x="66" y="502.0" text-anchor="end">0.0%</text>
<line class="grid" x1="78" y1="416.8" x2="994" y2="416.8"/>
<text class="tick" x="66" y="420.8" text-anchor="end">20.0%</text>
<line class="grid" x1="78" y1="335.6" x2="994" y2="335.6"/>
<text class="tick" x="66" y="339.6" text-anchor="end">40.0%</text>
<line class="grid" x1="78" y1="254.4" x2="994" y2="254.4"/>
<text class="tick" x="66" y="258.4" text-anchor="end">60.0%</text>
<line class="grid" x1="78" y1="173.2" x2="994" y2="173.2"/>
<text class="tick" x="66" y="177.2" text-anchor="end">80.0%</text>
<line class="grid" x1="78" y1="92.0" x2="994" y2="92.0"/>
<text class="tick" x="66" y="96.0" text-anchor="end">100.0%</text>
<line class="axis" x1="78" y1="92" x2="78" y2="498"/>
<line class="axis" x1="78" y1="498" x2="994" y2="498"/>
<text class="label" x="78.0" y="526" text-anchor="middle">DeepSeek R1 14B</text>
<text class="label" x="383.3" y="526" text-anchor="middle">Llama 3.1 8B Instruct</text>
<text class="label" x="688.7" y="526" text-anchor="middle">Mistral</text>
<text class="label" x="994.0" y="526" text-anchor="middle">Qwen 2.5 7B Instruct</text>
<polyline points="78.0,197.3 383.3,302.5" fill="none" stroke="#F28E2B" stroke-width="3"/>
<circle cx="78.0" cy="197.3" r="5" fill="#F28E2B"><title>Few-shot + Repair: 74.1%</title></circle>
<text class="value" x="78.0" y="187.3" text-anchor="middle">74.1%</text>
<circle cx="383.3" cy="302.5" r="5" fill="#F28E2B"><title>Few-shot + Repair: 48.1%</title></circle>
<text class="value" x="383.3" y="292.5" text-anchor="middle">48.1%</text>
<polyline points="688.7,347.6 994.0,302.5" fill="none" stroke="#76B7B2" stroke-width="3"/>
<circle cx="688.7" cy="347.6" r="5" fill="#76B7B2"><title>RAG + Repair: 37.0%</title></circle>
<text class="value" x="688.7" y="337.6" text-anchor="middle">37.0%</text>
<circle cx="994.0" cy="302.5" r="5" fill="#76B7B2"><title>RAG + Repair: 48.1%</title></circle>
<text class="value" x="994.0" y="292.5" text-anchor="middle">48.1%</text>
<rect x="78" y="564" width="14" height="14" fill="#F28E2B" rx="2"/>
<text class="legend" x="98" y="576">Few-shot + Repair</text>
<rect x="247" y="564" width="14" height="14" fill="#76B7B2" rx="2"/>
<text class="legend" x="267" y="576">RAG + Repair</text>
</svg>