<svg xmlns="http://www.w3.org/2000/svg" width="1120" height="660" viewBox="0 0 1120 660">
<style>
text { font-family: Arial, Helvetica, sans-serif; fill: #222; }
.title { font-size: 24px; font-weight: 700; }
.subtitle { font-size: 13px; fill: #555; }
.axis { stroke: #333; stroke-width: 1.2; }
.grid { stroke: #ddd; stroke-width: 1; }
.tick { font-size: 12px; fill: #555; }
.label { font-size: 12px; fill: #222; }
.value { font-size: 11px; fill: #222; }
.legend { font-size: 12px; }
</style>
<rect width="100%" height="100%" fill="#fff"/>
<text class="title" x="70" y="34">Minimality of Change Components</text>
<text class="subtitle" x="70" y="56">Stacked mean graph-edit counts</text>
<line class="grid" x1="80" y1="490.0" x2="1080" y2="490.0"/>
<text class="tick" x="68" y="494.0" text-anchor="end">0.0</text>
<line class="grid" x1="80" y1="410.4" x2="1080" y2="410.4"/>
<text class="tick" x="68" y="414.4" text-anchor="end">1.2</text>
<line class="grid" x1="80" y1="330.8" x2="1080" y2="330.8"/>
<text class="tick" x="68" y="334.8" text-anchor="end">2.4</text>
<line class="grid" x1="80" y1="251.2" x2="1080" y2="251.2"/>
<text class="tick" x="68" y="255.2" text-anchor="end">3.6</text>
<line class="grid" x1="80" y1="171.6" x2="1080" y2="171.6"/>
<text class="tick" x="68" y="175.6" text-anchor="end">4.7</text>
<line class="grid" x1="80" y1="92.0" x2="1080" y2="92.0"/>
<text class="tick" x="68" y="96.0" text-anchor="end">5.9</text>
<line class="axis" x1="80" y1="92" x2="80" y2="490"/>
<line class="axis" x1="80" y1="490" x2="1080" y2="490"/>
<rect x="80.0" y="455.2" width="236.5" height="34.8" fill="#59A14F"><title>DeepSeek R1 14B | Few-shot + Repair | mean_added_states: 0.52</title></rect>
<rect x="80.0" y="373.1" width="236.5" height="82.1" fill="#E15759"><title>DeepSeek R1 14B | Few-shot + Repair | mean_deleted_states: 1.22</title></rect>
<rect x="80.0" y="338.3" width="236.5" height="34.8" fill="#4E79A7"><title>DeepSeek R1 14B | Few-shot + Repair | mean_added_transitions: 0.52</title></rect>
<rect x="80.0" y="236.3" width="236.5" height="102.0" fill="#B07AA1"><title>DeepSeek R1 14B | Few-shot + Repair | mean_deleted_transitions: 1.52</title></rect>
<rect x="80.0" y="233.8" width="236.5" height="2.5" fill="#EDC948"><title>DeepSeek R1 14B | Few-shot + Repair | mean_modified_transition_labels: 0.04</title></rect>
<text class="label" x="198.2" y="508" text-anchor="end" transform="rotate(-35 198.2 508)">DeepSeek R1 14B | Few-shot + Repair</text>
<rect x="334.5" y="467.6" width="236.5" height="22.4" fill="#59A14F"><title>Llama 3.1 8B Instruct | Few-shot + Repair | mean_added_states: 0.33</title></rect>
<rect x="334.5" y="243.7" width="236.5" height="223.9" fill="#E15759"><title>Llama 3.1 8B Instruct | Few-shot + Repair | mean_deleted_states: 3.33</title></rect>
<rect x="334.5" y="136.8" width="236.5" height="107.0" fill="#4E79A7"><title>Llama 3.1 8B Instruct | Few-shot + Repair | mean_added_transitions: 1.59</title></rect>
<rect x="334.5" y="106.9" width="236.5" height="29.8" fill="#B07AA1"><title>Llama 3.1 8B Instruct | Few-shot + Repair | mean_deleted_transitions: 0.44</title></rect>
<rect x="334.5" y="92.0" width="236.5" height="14.9" fill="#EDC948"><title>Llama 3.1 8B Instruct | Few-shot + Repair | mean_modified_transition_labels: 0.22</title></rect>
<text class="label" x="452.8" y="508" text-anchor="end" transform="rotate(-35 452.8 508)">Llama 3.1 8B Instruct | Few-shot + Repair</text>
<rect x="589.0" y="455.2" width="236.5" height="34.8" fill="#59A14F"><title>Mistral | RAG + Repair | mean_added_states: 0.52</title></rect>
<rect x="589.0" y="427.8" width="236.5" height="27.4" fill="#E15759"><title>Mistral | RAG + Repair | mean_deleted_states: 0.41</title></rect>
<rect x="589.0" y="360.6" width="236.5" height="67.2" fill="#4E79A7"><title>Mistral | RAG + Repair | mean_added_transitions: 1.00</title></rect>
<rect x="589.0" y="323.3" width="236.5" height="37.3" fill="#B07AA1"><title>Mistral | RAG + Repair | mean_deleted_transitions: 0.56</title></rect>
<rect x="589.0" y="315.9" width="236.5" height="7.5" fill="#EDC948"><title>Mistral | RAG + Repair | mean_modified_transition_labels: 0.11</title></rect>
<text class="label" x="707.2" y="508" text-anchor="end" transform="rotate(-35 707.2 508)">Mistral | RAG + Repair</text>
<rect x="843.5" y="487.5" width="236.5" height="2.5" fill="#59A14F"><title>Qwen 2.5 7B Instruct | RAG + Repair | mean_added_states: 0.04</title></rect>
<rect x="843.5" y="487.5" width="236.5" height="0.0" fill="#E15759"><title>Qwen 2.5 7B Instruct | RAG + Repair | mean_deleted_states: 0.00</title></rect>
<rect x="843.5" y="417.9" width="236.5" height="69.6" fill="#4E79A7"><title>Qwen 2.5 7B Instruct | RAG + Repair | mean_added_transitions: 1.04</title></rect>
<rect x="843.5" y="405.4" width="236.5" height="12.4" fill="#B07AA1"><title>Qwen 2.5 7B Instruct | RAG + Repair | mean_deleted_transitions: 0.19</title></rect>
<rect x="843.5" y="405.4" width="236.5" height="0.0" fill="#EDC948"><title>Qwen 2.5 7B Instruct | RAG + Repair | mean_modified_transition_labels: 0.00</title></rect>
<text class="label" x="961.8" y="508" text-anchor="end" transform="rotate(-35 961.8 508)">Qwen 2.5 7B Instruct | RAG + Repair</text>
<rect x="80" y="590" width="14" height="14" fill="#59A14F" rx="2"/>
<text class="legend" x="100" y="602">mean_added_states</text>
<rect x="249" y="590" width="14" height="14" fill="#E15759" rx="2"/>
<text class="legend" x="269" y="602">mean_deleted_states</text>
<rect x="432" y="590" width="14" height="14" fill="#4E79A7" rx="2"/>
<text class="legend" x="452" y="602">mean_added_transitions</text>
<rect x="636" y="590" width="14" height="14" fill="#B07AA1" rx="2"/>
<text class="legend" x="656" y="602">mean_deleted_transitions</text>
<rect x="854" y="590" width="14" height="14" fill="#EDC948" rx="2"/>
<text class="legend" x="874" y="602">mean_modified_transition_labels</text>
</svg>