<svg xmlns="http://www.w3.org/2000/svg" width="1180" height="620" viewBox="0 0 1180 620">
<style>
text { font-family: Arial, Helvetica, sans-serif; fill: #222; }
.title { font-size: 24px; font-weight: 700; }
.subtitle { font-size: 13px; fill: #555; }
.axis { stroke: #333; stroke-width: 1.2; }
.grid { stroke: #ddd; stroke-width: 1; }
.tick { font-size: 12px; fill: #555; }
.label { font-size: 12px; fill: #222; }
.model { font-size: 13px; font-weight: 700; }
.value { font-size: 11px; fill: #222; }
.legend { font-size: 12px; }
</style>
<rect width="100%" height="100%" fill="#fff"/>
<text class="title" x="86" y="34">PlantUML Render/Syntax Validity by Model and Method</text>
<text class="subtitle" x="86" y="56">Percentage of final diagrams accepted by PlantUML syntax checking.</text>
<line class="grid" x1="86" y1="490.0" x2="1146" y2="490.0"/>
<text class="tick" x="74" y="494.0" text-anchor="end">0%</text>
<line class="grid" x1="86" y1="410.4" x2="1146" y2="410.4"/>
<text class="tick" x="74" y="414.4" text-anchor="end">20%</text>
<line class="grid" x1="86" y1="330.8" x2="1146" y2="330.8"/>
<text class="tick" x="74" y="334.8" text-anchor="end">40%</text>
<line class="grid" x1="86" y1="251.2" x2="1146" y2="251.2"/>
<text class="tick" x="74" y="255.2" text-anchor="end">60%</text>
<line class="grid" x1="86" y1="171.6" x2="1146" y2="171.6"/>
<text class="tick" x="74" y="175.6" text-anchor="end">80%</text>
<line class="grid" x1="86" y1="92.0" x2="1146" y2="92.0"/>
<text class="tick" x="74" y="96.0" text-anchor="end">100%</text>
<line class="axis" x1="86" y1="92" x2="86" y2="490"/>
<line class="axis" x1="86" y1="490" x2="1146" y2="490"/>
<rect x="86.0" y="254.1" width="34.1" height="235.9" rx="2" fill="#4E79A7"><title>DeepSeek R1 14B | Zero-shot: 59.26% (16 valid, 11 invalid, total 27)</title></rect>
<text class="value" x="103.0" y="249.1" text-anchor="middle">59%</text>
<rect x="127.1" y="121.5" width="34.1" height="368.5" rx="2" fill="#59A14F"><title>DeepSeek R1 14B | One-shot: 92.59% (25 valid, 2 invalid, total 27)</title></rect>
<text class="value" x="144.1" y="116.5" text-anchor="middle">93%</text>
<rect x="168.2" y="136.2" width="34.1" height="353.8" rx="2" fill="#F28E2B"><title>DeepSeek R1 14B | Few-shot: 88.89% (24 valid, 3 invalid, total 27)</title></rect>
<text class="value" x="185.2" y="131.2" text-anchor="middle">89%</text>
<rect x="209.2" y="150.9" width="34.1" height="339.1" rx="2" fill="#76B7B2"><title>DeepSeek R1 14B | RAG: 85.19% (23 valid, 4 invalid, total 27)</title></rect>
<text class="value" x="226.3" y="145.9" text-anchor="middle">85%</text>
<rect x="250.3" y="136.2" width="34.1" height="353.8" rx="2" fill="#E15759"><title>DeepSeek R1 14B | RAG + Repair: 88.89% (24 valid, 3 invalid, total 27)</title></rect>
<text class="value" x="267.4" y="131.2" text-anchor="middle">89%</text>
<rect x="291.4" y="490.0" width="34.1" height="0.0" rx="2" fill="#7B61FF"><title>DeepSeek R1 14B | Stacked Ensemble: 0.00% (0 valid, 0 invalid, total 0)</title></rect>
<text class="value" x="308.5" y="485.0" text-anchor="middle">0%</text>
<text class="model" x="205.8" y="518" text-anchor="middle">DeepSeek R1 14B</text>
<rect x="359.5" y="372.1" width="34.1" height="117.9" rx="2" fill="#4E79A7"><title>Llama 3.1 8B Instruct | Zero-shot: 29.63% (8 valid, 19 invalid, total 27)</title></rect>
<text class="value" x="376.5" y="367.1" text-anchor="middle">30%</text>
<rect x="400.6" y="106.7" width="34.1" height="383.3" rx="2" fill="#59A14F"><title>Llama 3.1 8B Instruct | One-shot: 96.30% (26 valid, 1 invalid, total 27)</title></rect>
<text class="value" x="417.6" y="101.7" text-anchor="middle">96%</text>
<rect x="441.7" y="121.5" width="34.1" height="368.5" rx="2" fill="#F28E2B"><title>Llama 3.1 8B Instruct | Few-shot: 92.59% (25 valid, 2 invalid, total 27)</title></rect>
<text class="value" x="458.7" y="116.5" text-anchor="middle">93%</text>
<rect x="482.8" y="92.0" width="34.1" height="398.0" rx="2" fill="#76B7B2"><title>Llama 3.1 8B Instruct | RAG: 100.00% (27 valid, 0 invalid, total 27)</title></rect>
<text class="value" x="499.8" y="87.0" text-anchor="middle">100%</text>
<rect x="523.8" y="106.7" width="34.1" height="383.3" rx="2" fill="#E15759"><title>Llama 3.1 8B Instruct | RAG + Repair: 96.30% (26 valid, 1 invalid, total 27)</title></rect>
<text class="value" x="540.9" y="101.7" text-anchor="middle">96%</text>
<rect x="564.9" y="490.0" width="34.1" height="0.0" rx="2" fill="#7B61FF"><title>Llama 3.1 8B Instruct | Stacked Ensemble: 0.00% (0 valid, 0 invalid, total 0)</title></rect>
<text class="value" x="582.0" y="485.0" text-anchor="middle">0%</text>
<text class="model" x="479.2" y="518" text-anchor="middle">Llama 3.1 8B Instruct</text>
<rect x="633.0" y="401.6" width="34.1" height="88.4" rx="2" fill="#4E79A7"><title>Qwen 2.5 7B Instruct | Zero-shot: 22.22% (6 valid, 21 invalid, total 27)</title></rect>
<text class="value" x="650.0" y="396.6" text-anchor="middle">22%</text>
<rect x="674.1" y="195.2" width="34.1" height="294.8" rx="2" fill="#59A14F"><title>Qwen 2.5 7B Instruct | One-shot: 74.07% (20 valid, 7 invalid, total 27)</title></rect>
<text class="value" x="691.1" y="190.2" text-anchor="middle">74%</text>
<rect x="715.2" y="106.7" width="34.1" height="383.3" rx="2" fill="#F28E2B"><title>Qwen 2.5 7B Instruct | Few-shot: 96.30% (26 valid, 1 invalid, total 27)</title></rect>
<text class="value" x="732.2" y="101.7" text-anchor="middle">96%</text>
<rect x="756.2" y="92.0" width="34.1" height="398.0" rx="2" fill="#76B7B2"><title>Qwen 2.5 7B Instruct | RAG: 100.00% (27 valid, 0 invalid, total 27)</title></rect>
<text class="value" x="773.3" y="87.0" text-anchor="middle">100%</text>
<rect x="797.3" y="106.7" width="34.1" height="383.3" rx="2" fill="#E15759"><title>Qwen 2.5 7B Instruct | RAG + Repair: 96.30% (26 valid, 1 invalid, total 27)</title></rect>
<text class="value" x="814.4" y="101.7" text-anchor="middle">96%</text>
<rect x="838.4" y="490.0" width="34.1" height="0.0" rx="2" fill="#7B61FF"><title>Qwen 2.5 7B Instruct | Stacked Ensemble: 0.00% (0 valid, 0 invalid, total 0)</title></rect>
<text class="value" x="855.5" y="485.0" text-anchor="middle">0%</text>
<text class="model" x="752.8" y="518" text-anchor="middle">Qwen 2.5 7B Instruct</text>
<rect x="906.5" y="490.0" width="34.1" height="0.0" rx="2" fill="#4E79A7"><title>Ensemble | Zero-shot: 0.00% (0 valid, 0 invalid, total 0)</title></rect>
<text class="value" x="923.5" y="485.0" text-anchor="middle">0%</text>
<rect x="947.6" y="490.0" width="34.1" height="0.0" rx="2" fill="#59A14F"><title>Ensemble | One-shot: 0.00% (0 valid, 0 invalid, total 0)</title></rect>
<text class="value" x="964.6" y="485.0" text-anchor="middle">0%</text>
<rect x="988.7" y="490.0" width="34.1" height="0.0" rx="2" fill="#F28E2B"><title>Ensemble | Few-shot: 0.00% (0 valid, 0 invalid, total 0)</title></rect>
<text class="value" x="1005.7" y="485.0" text-anchor="middle">0%</text>
<rect x="1029.8" y="490.0" width="34.1" height="0.0" rx="2" fill="#76B7B2"><title>Ensemble | RAG: 0.00% (0 valid, 0 invalid, total 0)</title></rect>
<text class="value" x="1046.8" y="485.0" text-anchor="middle">0%</text>
<rect x="1070.8" y="490.0" width="34.1" height="0.0" rx="2" fill="#E15759"><title>Ensemble | RAG + Repair: 0.00% (0 valid, 0 invalid, total 0)</title></rect>
<text class="value" x="1087.9" y="485.0" text-anchor="middle">0%</text>
<rect x="1111.9" y="121.5" width="34.1" height="368.5" rx="2" fill="#7B61FF"><title>Ensemble | Stacked Ensemble: 92.59% (25 valid, 2 invalid, total 27)</title></rect>
<text class="value" x="1129.0" y="116.5" text-anchor="middle">93%</text>
<text class="model" x="1026.2" y="518" text-anchor="middle">Ensemble</text>
<rect x="86" y="566" width="14" height="14" fill="#4E79A7" rx="2"/>
<text class="legend" x="106" y="578">Zero-shot</text>
<rect x="197" y="566" width="14" height="14" fill="#59A14F" rx="2"/>
<text class="legend" x="217" y="578">One-shot</text>
<rect x="301" y="566" width="14" height="14" fill="#F28E2B" rx="2"/>
<text class="legend" x="321" y="578">Few-shot</text>
<rect x="405" y="566" width="14" height="14" fill="#76B7B2" rx="2"/>
<text class="legend" x="425" y="578">RAG</text>
<rect x="474" y="566" width="14" height="14" fill="#E15759" rx="2"/>
<text class="legend" x="494" y="578">RAG + Repair</text>
<rect x="606" y="566" width="14" height="14" fill="#7B61FF" rx="2"/>
<text class="legend" x="626" y="578">Stacked Ensemble</text>
</svg>