<svg xmlns="http://www.w3.org/2000/svg" width="1180" height="620" viewBox="0 0 1180 620">
<style>
text { font-family: Arial, Helvetica, sans-serif; fill: #222; }
.title { font-size: 24px; font-weight: 700; }
.subtitle { font-size: 13px; fill: #555; }
.axis { stroke: #333; stroke-width: 1.2; }
.grid { stroke: #ddd; stroke-width: 1; }
.tick { font-size: 12px; fill: #555; }
.label { font-size: 12px; fill: #222; }
.model { font-size: 13px; font-weight: 700; }
.value { font-size: 11px; fill: #222; }
.legend { font-size: 12px; }
</style>
<rect width="100%" height="100%" fill="#fff"/>
<text class="title" x="86" y="34">PlantUML Render/Syntax Validity by Model and Method</text>
<text class="subtitle" x="86" y="56">Percentage of final diagrams accepted by PlantUML syntax checking.</text>
<line class="grid" x1="86" y1="490.0" x2="1146" y2="490.0"/>
<text class="tick" x="74" y="494.0" text-anchor="end">0%</text>
<line class="grid" x1="86" y1="410.4" x2="1146" y2="410.4"/>
<text class="tick" x="74" y="414.4" text-anchor="end">20%</text>
<line class="grid" x1="86" y1="330.8" x2="1146" y2="330.8"/>
<text class="tick" x="74" y="334.8" text-anchor="end">40%</text>
<line class="grid" x1="86" y1="251.2" x2="1146" y2="251.2"/>
<text class="tick" x="74" y="255.2" text-anchor="end">60%</text>
<line class="grid" x1="86" y1="171.6" x2="1146" y2="171.6"/>
<text class="tick" x="74" y="175.6" text-anchor="end">80%</text>
<line class="grid" x1="86" y1="92.0" x2="1146" y2="92.0"/>
<text class="tick" x="74" y="96.0" text-anchor="end">100%</text>
<line class="axis" x1="86" y1="92" x2="86" y2="490"/>
<line class="axis" x1="86" y1="490" x2="1146" y2="490"/>
<rect x="86.0" y="254.1" width="60.5" height="235.9" rx="2" fill="#4E79A7"><title>DeepSeek R1 14B | Zero-shot: 59.26% (16 valid, 11 invalid, total 27)</title></rect>
<text class="value" x="116.3" y="249.1" text-anchor="middle">59%</text>
<rect x="153.5" y="121.5" width="60.5" height="368.5" rx="2" fill="#59A14F"><title>DeepSeek R1 14B | One-shot: 92.59% (25 valid, 2 invalid, total 27)</title></rect>
<text class="value" x="183.8" y="116.5" text-anchor="middle">93%</text>
<rect x="221.1" y="136.2" width="60.5" height="353.8" rx="2" fill="#F28E2B"><title>DeepSeek R1 14B | Few-shot: 88.89% (24 valid, 3 invalid, total 27)</title></rect>
<text class="value" x="251.3" y="131.2" text-anchor="middle">89%</text>
<rect x="288.6" y="150.9" width="60.5" height="339.1" rx="2" fill="#76B7B2"><title>DeepSeek R1 14B | RAG: 85.19% (23 valid, 4 invalid, total 27)</title></rect>
<text class="value" x="318.9" y="145.9" text-anchor="middle">85%</text>
<rect x="356.1" y="136.2" width="60.5" height="353.8" rx="2" fill="#E15759"><title>DeepSeek R1 14B | RAG + Repair: 88.89% (24 valid, 3 invalid, total 27)</title></rect>
<text class="value" x="386.4" y="131.2" text-anchor="middle">89%</text>
<text class="model" x="251.3" y="518" text-anchor="middle">DeepSeek R1 14B</text>
<rect x="450.7" y="372.1" width="60.5" height="117.9" rx="2" fill="#4E79A7"><title>Llama 3.1 8B Instruct | Zero-shot: 29.63% (8 valid, 19 invalid, total 27)</title></rect>
<text class="value" x="480.9" y="367.1" text-anchor="middle">30%</text>
<rect x="518.2" y="106.7" width="60.5" height="383.3" rx="2" fill="#59A14F"><title>Llama 3.1 8B Instruct | One-shot: 96.30% (26 valid, 1 invalid, total 27)</title></rect>
<text class="value" x="548.5" y="101.7" text-anchor="middle">96%</text>
<rect x="585.7" y="121.5" width="60.5" height="368.5" rx="2" fill="#F28E2B"><title>Llama 3.1 8B Instruct | Few-shot: 92.59% (25 valid, 2 invalid, total 27)</title></rect>
<text class="value" x="616.0" y="116.5" text-anchor="middle">93%</text>
<rect x="653.3" y="92.0" width="60.5" height="398.0" rx="2" fill="#76B7B2"><title>Llama 3.1 8B Instruct | RAG: 100.00% (27 valid, 0 invalid, total 27)</title></rect>
<text class="value" x="683.5" y="87.0" text-anchor="middle">100%</text>
<rect x="720.8" y="106.7" width="60.5" height="383.3" rx="2" fill="#E15759"><title>Llama 3.1 8B Instruct | RAG + Repair: 96.30% (26 valid, 1 invalid, total 27)</title></rect>
<text class="value" x="751.1" y="101.7" text-anchor="middle">96%</text>
<text class="model" x="616.0" y="518" text-anchor="middle">Llama 3.1 8B Instruct</text>
<rect x="815.3" y="401.6" width="60.5" height="88.4" rx="2" fill="#4E79A7"><title>Qwen 2.5 7B Instruct | Zero-shot: 22.22% (6 valid, 21 invalid, total 27)</title></rect>
<text class="value" x="845.6" y="396.6" text-anchor="middle">22%</text>
<rect x="882.9" y="195.2" width="60.5" height="294.8" rx="2" fill="#59A14F"><title>Qwen 2.5 7B Instruct | One-shot: 74.07% (20 valid, 7 invalid, total 27)</title></rect>
<text class="value" x="913.1" y="190.2" text-anchor="middle">74%</text>
<rect x="950.4" y="106.7" width="60.5" height="383.3" rx="2" fill="#F28E2B"><title>Qwen 2.5 7B Instruct | Few-shot: 96.30% (26 valid, 1 invalid, total 27)</title></rect>
<text class="value" x="980.7" y="101.7" text-anchor="middle">96%</text>
<rect x="1017.9" y="92.0" width="60.5" height="398.0" rx="2" fill="#76B7B2"><title>Qwen 2.5 7B Instruct | RAG: 100.00% (27 valid, 0 invalid, total 27)</title></rect>
<text class="value" x="1048.2" y="87.0" text-anchor="middle">100%</text>
<rect x="1085.5" y="106.7" width="60.5" height="383.3" rx="2" fill="#E15759"><title>Qwen 2.5 7B Instruct | RAG + Repair: 96.30% (26 valid, 1 invalid, total 27)</title></rect>
<text class="value" x="1115.7" y="101.7" text-anchor="middle">96%</text>
<text class="model" x="980.7" y="518" text-anchor="middle">Qwen 2.5 7B Instruct</text>
<rect x="86" y="566" width="14" height="14" fill="#4E79A7" rx="2"/>
<text class="legend" x="106" y="578">Zero-shot</text>
<rect x="197" y="566" width="14" height="14" fill="#59A14F" rx="2"/>
<text class="legend" x="217" y="578">One-shot</text>
<rect x="301" y="566" width="14" height="14" fill="#F28E2B" rx="2"/>
<text class="legend" x="321" y="578">Few-shot</text>
<rect x="405" y="566" width="14" height="14" fill="#76B7B2" rx="2"/>
<text class="legend" x="425" y="578">RAG</text>
<rect x="474" y="566" width="14" height="14" fill="#E15759" rx="2"/>
<text class="legend" x="494" y="578">RAG + Repair</text>
</svg>