<svg xmlns="http://www.w3.org/2000/svg" width="1470" height="620" viewBox="0 0 1470 620">
<style>
text { font-family: Arial, Helvetica, sans-serif; fill: #222; }
.title { font-size: 24px; font-weight: 700; }
.subtitle { font-size: 13px; fill: #555; }
.axis { stroke: #333; stroke-width: 1.2; }
.grid { stroke: #ddd; stroke-width: 1; }
.tick { font-size: 12px; fill: #555; }
.label { font-size: 12px; fill: #222; }
.model { font-size: 13px; font-weight: 700; }
.value { font-size: 11px; fill: #222; }
.legend { font-size: 12px; }
</style>
<rect width="100%" height="100%" fill="#fff"/>
<text class="title" x="86" y="34">Strict UML State-Rule Validity by Model and Method</text>
<text class="subtitle" x="86" y="56">Percentage of final diagrams with no PlantUML errors and no state-rule warnings.</text>
<line class="grid" x1="86" y1="490.0" x2="1436" y2="490.0"/>
<text class="tick" x="74" y="494.0" text-anchor="end">0%</text>
<line class="grid" x1="86" y1="410.4" x2="1436" y2="410.4"/>
<text class="tick" x="74" y="414.4" text-anchor="end">20%</text>
<line class="grid" x1="86" y1="330.8" x2="1436" y2="330.8"/>
<text class="tick" x="74" y="334.8" text-anchor="end">40%</text>
<line class="grid" x1="86" y1="251.2" x2="1436" y2="251.2"/>
<text class="tick" x="74" y="255.2" text-anchor="end">60%</text>
<line class="grid" x1="86" y1="171.6" x2="1436" y2="171.6"/>
<text class="tick" x="74" y="175.6" text-anchor="end">80%</text>
<line class="grid" x1="86" y1="92.0" x2="1436" y2="92.0"/>
<text class="tick" x="74" y="96.0" text-anchor="end">100%</text>
<line class="axis" x1="86" y1="92" x2="86" y2="490"/>
<line class="axis" x1="86" y1="490" x2="1436" y2="490"/>
<rect x="86.0" y="490.0" width="34.6" height="0.0" rx="2" fill="#4E79A7"><title>DeepSeek R1 14B | Zero-shot: 0.00% (0 valid, 27 invalid, total 27)</title></rect>
<text class="value" x="103.3" y="485.0" text-anchor="middle">0%</text>
<rect x="127.6" y="445.8" width="34.6" height="44.2" rx="2" fill="#59A14F"><title>DeepSeek R1 14B | One-shot: 11.11% (3 valid, 24 invalid, total 27)</title></rect>
<text class="value" x="144.9" y="440.8" text-anchor="middle">11%</text>
<rect x="169.3" y="401.6" width="34.6" height="88.4" rx="2" fill="#F28E2B"><title>DeepSeek R1 14B | Few-shot: 22.22% (6 valid, 21 invalid, total 27)</title></rect>
<text class="value" x="186.6" y="396.6" text-anchor="middle">22%</text>
<rect x="210.9" y="431.1" width="34.6" height="58.9" rx="2" fill="#76B7B2"><title>DeepSeek R1 14B | RAG: 14.81% (4 valid, 23 invalid, total 27)</title></rect>
<text class="value" x="228.2" y="426.1" text-anchor="middle">15%</text>
<rect x="252.5" y="150.9" width="34.6" height="339.1" rx="2" fill="#E15759"><title>DeepSeek R1 14B | RAG + Repair: 85.19% (23 valid, 4 invalid, total 27)</title></rect>
<text class="value" x="269.9" y="145.9" text-anchor="middle">85%</text>
<rect x="294.2" y="490.0" width="34.6" height="0.0" rx="2" fill="#7B61FF"><title>DeepSeek R1 14B | Stacked Ensemble: 0.00% (0 valid, 0 invalid, total 0)</title></rect>
<text class="value" x="311.5" y="485.0" text-anchor="middle">0%</text>
<text class="model" x="207.4" y="518" text-anchor="middle">DeepSeek R1 14B</text>
<rect x="362.8" y="490.0" width="34.6" height="0.0" rx="2" fill="#4E79A7"><title>Llama 3.1 8B Instruct | Zero-shot: 0.00% (0 valid, 27 invalid, total 27)</title></rect>
<text class="value" x="380.1" y="485.0" text-anchor="middle">0%</text>
<rect x="404.4" y="416.3" width="34.6" height="73.7" rx="2" fill="#59A14F"><title>Llama 3.1 8B Instruct | One-shot: 18.52% (5 valid, 22 invalid, total 27)</title></rect>
<text class="value" x="421.8" y="411.3" text-anchor="middle">19%</text>
<rect x="446.1" y="372.1" width="34.6" height="117.9" rx="2" fill="#F28E2B"><title>Llama 3.1 8B Instruct | Few-shot: 29.63% (8 valid, 19 invalid, total 27)</title></rect>
<text class="value" x="463.4" y="367.1" text-anchor="middle">30%</text>
<rect x="487.7" y="401.6" width="34.6" height="88.4" rx="2" fill="#76B7B2"><title>Llama 3.1 8B Instruct | RAG: 22.22% (6 valid, 21 invalid, total 27)</title></rect>
<text class="value" x="505.0" y="396.6" text-anchor="middle">22%</text>
<rect x="529.3" y="268.9" width="34.6" height="221.1" rx="2" fill="#E15759"><title>Llama 3.1 8B Instruct | RAG + Repair: 55.56% (15 valid, 12 invalid, total 27)</title></rect>
<text class="value" x="546.7" y="263.9" text-anchor="middle">56%</text>
<rect x="571.0" y="490.0" width="34.6" height="0.0" rx="2" fill="#7B61FF"><title>Llama 3.1 8B Instruct | Stacked Ensemble: 0.00% (0 valid, 0 invalid, total 0)</title></rect>
<text class="value" x="588.3" y="485.0" text-anchor="middle">0%</text>
<text class="model" x="484.2" y="518" text-anchor="middle">Llama 3.1 8B Instruct</text>
<rect x="639.6" y="490.0" width="34.6" height="0.0" rx="2" fill="#4E79A7"><title>Qwen 2.5 7B Instruct | Zero-shot: 0.00% (0 valid, 27 invalid, total 27)</title></rect>
<text class="value" x="656.9" y="485.0" text-anchor="middle">0%</text>
<rect x="681.2" y="475.3" width="34.6" height="14.7" rx="2" fill="#59A14F"><title>Qwen 2.5 7B Instruct | One-shot: 3.70% (1 valid, 26 invalid, total 27)</title></rect>
<text class="value" x="698.6" y="470.3" text-anchor="middle">4%</text>
<rect x="722.9" y="445.8" width="34.6" height="44.2" rx="2" fill="#F28E2B"><title>Qwen 2.5 7B Instruct | Few-shot: 11.11% (3 valid, 24 invalid, total 27)</title></rect>
<text class="value" x="740.2" y="440.8" text-anchor="middle">11%</text>
<rect x="764.5" y="431.1" width="34.6" height="58.9" rx="2" fill="#76B7B2"><title>Qwen 2.5 7B Instruct | RAG: 14.81% (4 valid, 23 invalid, total 27)</title></rect>
<text class="value" x="781.8" y="426.1" text-anchor="middle">15%</text>
<rect x="806.1" y="283.6" width="34.6" height="206.4" rx="2" fill="#E15759"><title>Qwen 2.5 7B Instruct | RAG + Repair: 51.85% (14 valid, 13 invalid, total 27)</title></rect>
<text class="value" x="823.5" y="278.6" text-anchor="middle">52%</text>
<rect x="847.8" y="490.0" width="34.6" height="0.0" rx="2" fill="#7B61FF"><title>Qwen 2.5 7B Instruct | Stacked Ensemble: 0.00% (0 valid, 0 invalid, total 0)</title></rect>
<text class="value" x="865.1" y="485.0" text-anchor="middle">0%</text>
<text class="model" x="761.0" y="518" text-anchor="middle">Qwen 2.5 7B Instruct</text>
<rect x="916.4" y="490.0" width="34.6" height="0.0" rx="2" fill="#4E79A7"><title>Ensemble Qwen 14B | Zero-shot: 0.00% (0 valid, 0 invalid, total 0)</title></rect>
<text class="value" x="933.7" y="485.0" text-anchor="middle">0%</text>
<rect x="958.0" y="490.0" width="34.6" height="0.0" rx="2" fill="#59A14F"><title>Ensemble Qwen 14B | One-shot: 0.00% (0 valid, 0 invalid, total 0)</title></rect>
<text class="value" x="975.4" y="485.0" text-anchor="middle">0%</text>
<rect x="999.7" y="490.0" width="34.6" height="0.0" rx="2" fill="#F28E2B"><title>Ensemble Qwen 14B | Few-shot: 0.00% (0 valid, 0 invalid, total 0)</title></rect>
<text class="value" x="1017.0" y="485.0" text-anchor="middle">0%</text>
<rect x="1041.3" y="490.0" width="34.6" height="0.0" rx="2" fill="#76B7B2"><title>Ensemble Qwen 14B | RAG: 0.00% (0 valid, 0 invalid, total 0)</title></rect>
<text class="value" x="1058.6" y="485.0" text-anchor="middle">0%</text>
<rect x="1082.9" y="490.0" width="34.6" height="0.0" rx="2" fill="#E15759"><title>Ensemble Qwen 14B | RAG + Repair: 0.00% (0 valid, 0 invalid, total 0)</title></rect>
<text class="value" x="1100.2" y="485.0" text-anchor="middle">0%</text>
<rect x="1124.6" y="298.4" width="34.6" height="191.6" rx="2" fill="#7B61FF"><title>Ensemble Qwen 14B | Stacked Ensemble: 48.15% (13 valid, 14 invalid, total 27)</title></rect>
<text class="value" x="1141.9" y="293.4" text-anchor="middle">48%</text>
<text class="model" x="1037.8" y="518" text-anchor="middle">Ensemble Qwen 14B</text>
<rect x="1193.2" y="490.0" width="34.6" height="0.0" rx="2" fill="#4E79A7"><title>Ensemble Llama 8B | Zero-shot: 0.00% (0 valid, 0 invalid, total 0)</title></rect>
<text class="value" x="1210.5" y="485.0" text-anchor="middle">0%</text>
<rect x="1234.8" y="490.0" width="34.6" height="0.0" rx="2" fill="#59A14F"><title>Ensemble Llama 8B | One-shot: 0.00% (0 valid, 0 invalid, total 0)</title></rect>
<text class="value" x="1252.2" y="485.0" text-anchor="middle">0%</text>
<rect x="1276.5" y="490.0" width="34.6" height="0.0" rx="2" fill="#F28E2B"><title>Ensemble Llama 8B | Few-shot: 0.00% (0 valid, 0 invalid, total 0)</title></rect>
<text class="value" x="1293.8" y="485.0" text-anchor="middle">0%</text>
<rect x="1318.1" y="490.0" width="34.6" height="0.0" rx="2" fill="#76B7B2"><title>Ensemble Llama 8B | RAG: 0.00% (0 valid, 0 invalid, total 0)</title></rect>
<text class="value" x="1335.4" y="485.0" text-anchor="middle">0%</text>
<rect x="1359.7" y="490.0" width="34.6" height="0.0" rx="2" fill="#E15759"><title>Ensemble Llama 8B | RAG + Repair: 0.00% (0 valid, 0 invalid, total 0)</title></rect>
<text class="value" x="1377.0" y="485.0" text-anchor="middle">0%</text>
<rect x="1401.4" y="342.6" width="34.6" height="147.4" rx="2" fill="#7B61FF"><title>Ensemble Llama 8B | Stacked Ensemble: 37.04% (10 valid, 17 invalid, total 27)</title></rect>
<text class="value" x="1418.7" y="337.6" text-anchor="middle">37%</text>
<text class="model" x="1314.6" y="518" text-anchor="middle">Ensemble Llama 8B</text>
<rect x="86" y="566" width="14" height="14" fill="#4E79A7" rx="2"/>
<text class="legend" x="106" y="578">Zero-shot</text>
<rect x="197" y="566" width="14" height="14" fill="#59A14F" rx="2"/>
<text class="legend" x="217" y="578">One-shot</text>
<rect x="301" y="566" width="14" height="14" fill="#F28E2B" rx="2"/>
<text class="legend" x="321" y="578">Few-shot</text>
<rect x="405" y="566" width="14" height="14" fill="#76B7B2" rx="2"/>
<text class="legend" x="425" y="578">RAG</text>
<rect x="474" y="566" width="14" height="14" fill="#E15759" rx="2"/>
<text class="legend" x="494" y="578">RAG + Repair</text>
<rect x="606" y="566" width="14" height="14" fill="#7B61FF" rx="2"/>
<text class="legend" x="626" y="578">Stacked Ensemble</text>
</svg>