<svg xmlns="http://www.w3.org/2000/svg" width="2360" height="660" viewBox="0 0 2360 660">
<style>
text { font-family: Arial, Helvetica, sans-serif; fill: #222; }
.title { font-size: 24px; font-weight: 700; }
.subtitle { font-size: 13px; fill: #555; }
.panel { font-size: 15px; font-weight: 700; }
.label { font-size: 12px; }
.tick { font-size: 11px; fill: #555; }
.value { font-size: 11px; font-weight: 700; }
.legend { font-size: 12px; }
.grid { stroke: #ddd; stroke-width: 1; }
.axis { stroke: #333; stroke-width: 1.2; }
</style>
<rect width="100%" height="100%" fill="#fff"/>
<text class="title" x="40" y="34">Average Human Score by Complexity and Method: Main Prompting</text>
<text class="subtitle" x="40" y="56">Average of median human scores; panels are diagram complexity, bars are LLMs</text>
<line class="grid" x1="70" y1="482.0" x2="2318" y2="482.0"/>
<text class="tick" x="60" y="486.0" text-anchor="end">1</text>
<line class="grid" x1="70" y1="386.5" x2="2318" y2="386.5"/>
<text class="tick" x="60" y="390.5" text-anchor="end">2</text>
<line class="grid" x1="70" y1="291.0" x2="2318" y2="291.0"/>
<text class="tick" x="60" y="295.0" text-anchor="end">3</text>
<line class="grid" x1="70" y1="195.5" x2="2318" y2="195.5"/>
<text class="tick" x="60" y="199.5" text-anchor="end">4</text>
<line class="grid" x1="70" y1="100.0" x2="2318" y2="100.0"/>
<text class="tick" x="60" y="104.0" text-anchor="end">5</text>
<line class="axis" x1="70" y1="100" x2="70" y2="482"/>
<text class="panel" x="70" y="76">Simple</text>
<line class="axis" x1="70" y1="482" x2="796" y2="482"/>
<text class="label" x="154.0" y="510.0" text-anchor="middle">Zero-shot</text>
<rect x="256.0" y="184.0" width="36.0" height="298.0" fill="#4E79A7" rx="2"><title>Simple | One-shot | Llama 3.1 8B Instruct: 4.12</title></rect>
<text class="value" x="274.0" y="179.0" text-anchor="middle">4.1</text>
<rect x="300.0" y="159.2" width="36.0" height="322.8" fill="#F28E2B" rx="2"><title>Simple | One-shot | Mistral: 4.38</title></rect>
<text class="value" x="318.0" y="154.2" text-anchor="middle">4.4</text>
<rect x="344.0" y="219.4" width="36.0" height="262.6" fill="#59A14F" rx="2"><title>Simple | One-shot | DeepSeek R1 14B: 3.75</title></rect>
<text class="value" x="362.0" y="214.4" text-anchor="middle">3.8</text>
<rect x="388.0" y="302.5" width="36.0" height="179.5" fill="#E15759" rx="2"><title>Simple | One-shot | Qwen 2.5 7B Instruct: 2.88</title></rect>
<text class="value" x="406.0" y="297.5" text-anchor="middle">2.9</text>
<text class="label" x="340.0" y="510.0" text-anchor="middle">One-shot</text>
<rect x="442.0" y="231.8" width="36.0" height="250.2" fill="#4E79A7" rx="2"><title>Simple | Few-shot | Llama 3.1 8B Instruct: 3.62</title></rect>
<text class="value" x="460.0" y="226.8" text-anchor="middle">3.6</text>
<rect x="530.0" y="111.5" width="36.0" height="370.5" fill="#59A14F" rx="2"><title>Simple | Few-shot | DeepSeek R1 14B: 4.88</title></rect>
<text class="value" x="548.0" y="106.5" text-anchor="middle">4.9</text>
<rect x="574.0" y="136.3" width="36.0" height="345.7" fill="#E15759" rx="2"><title>Simple | Few-shot | Qwen 2.5 7B Instruct: 4.62</title></rect>
<text class="value" x="592.0" y="131.3" text-anchor="middle">4.6</text>
<text class="label" x="526.0" y="510.0" text-anchor="middle">Few-shot</text>
<rect x="628.0" y="219.4" width="36.0" height="262.6" fill="#4E79A7" rx="2"><title>Simple | RAG | Llama 3.1 8B Instruct: 3.75</title></rect>
<text class="value" x="646.0" y="214.4" text-anchor="middle">3.8</text>
<rect x="672.0" y="159.2" width="36.0" height="322.8" fill="#F28E2B" rx="2"><title>Simple | RAG | Mistral: 4.38</title></rect>
<text class="value" x="690.0" y="154.2" text-anchor="middle">4.4</text>
<rect x="716.0" y="111.5" width="36.0" height="370.5" fill="#59A14F" rx="2"><title>Simple | RAG | DeepSeek R1 14B: 4.88</title></rect>
<text class="value" x="734.0" y="106.5" text-anchor="middle">4.9</text>
<rect x="760.0" y="314.9" width="36.0" height="167.1" fill="#E15759" rx="2"><title>Simple | RAG | Qwen 2.5 7B Instruct: 2.75</title></rect>
<text class="value" x="778.0" y="309.9" text-anchor="middle">2.8</text>
<text class="label" x="712.0" y="510.0" text-anchor="middle">RAG</text>
<text class="panel" x="830" y="76">Medium</text>
<line class="axis" x1="830" y1="482" x2="1556" y2="482"/>
<text class="label" x="914.0" y="510.0" text-anchor="middle">Zero-shot</text>
<rect x="1016.0" y="302.5" width="36.0" height="179.5" fill="#4E79A7" rx="2"><title>Medium | One-shot | Llama 3.1 8B Instruct: 2.88</title></rect>
<text class="value" x="1034.0" y="297.5" text-anchor="middle">2.9</text>
<rect x="1104.0" y="231.8" width="36.0" height="250.2" fill="#59A14F" rx="2"><title>Medium | One-shot | DeepSeek R1 14B: 3.62</title></rect>
<text class="value" x="1122.0" y="226.8" text-anchor="middle">3.6</text>
<text class="label" x="1100.0" y="510.0" text-anchor="middle">One-shot</text>
<rect x="1202.0" y="147.8" width="36.0" height="334.2" fill="#4E79A7" rx="2"><title>Medium | Few-shot | Llama 3.1 8B Instruct: 4.50</title></rect>
<text class="value" x="1220.0" y="142.8" text-anchor="middle">4.5</text>
<rect x="1246.0" y="171.6" width="36.0" height="310.4" fill="#F28E2B" rx="2"><title>Medium | Few-shot | Mistral: 4.25</title></rect>
<text class="value" x="1264.0" y="166.6" text-anchor="middle">4.2</text>
<rect x="1290.0" y="195.5" width="36.0" height="286.5" fill="#59A14F" rx="2"><title>Medium | Few-shot | DeepSeek R1 14B: 4.00</title></rect>
<text class="value" x="1308.0" y="190.5" text-anchor="middle">4.0</text>
<rect x="1334.0" y="136.3" width="36.0" height="345.7" fill="#E15759" rx="2"><title>Medium | Few-shot | Qwen 2.5 7B Instruct: 4.62</title></rect>
<text class="value" x="1352.0" y="131.3" text-anchor="middle">4.6</text>
<text class="label" x="1286.0" y="510.0" text-anchor="middle">Few-shot</text>
<rect x="1388.0" y="279.5" width="36.0" height="202.5" fill="#4E79A7" rx="2"><title>Medium | RAG | Llama 3.1 8B Instruct: 3.12</title></rect>
<text class="value" x="1406.0" y="274.5" text-anchor="middle">3.1</text>
<rect x="1432.0" y="195.5" width="36.0" height="286.5" fill="#F28E2B" rx="2"><title>Medium | RAG | Mistral: 4.00</title></rect>
<text class="value" x="1450.0" y="190.5" text-anchor="middle">4.0</text>
<rect x="1476.0" y="171.6" width="36.0" height="310.4" fill="#59A14F" rx="2"><title>Medium | RAG | DeepSeek R1 14B: 4.25</title></rect>
<text class="value" x="1494.0" y="166.6" text-anchor="middle">4.2</text>
<rect x="1520.0" y="207.0" width="36.0" height="275.0" fill="#E15759" rx="2"><title>Medium | RAG | Qwen 2.5 7B Instruct: 3.88</title></rect>
<text class="value" x="1538.0" y="202.0" text-anchor="middle">3.9</text>
<text class="label" x="1472.0" y="510.0" text-anchor="middle">RAG</text>
<text class="panel" x="1590" y="76">Complex</text>
<line class="axis" x1="1590" y1="482" x2="2316" y2="482"/>
<text class="label" x="1674.0" y="510.0" text-anchor="middle">Zero-shot</text>
<rect x="1776.0" y="136.3" width="36.0" height="345.7" fill="#4E79A7" rx="2"><title>Complex | One-shot | Llama 3.1 8B Instruct: 4.62</title></rect>
<text class="value" x="1794.0" y="131.3" text-anchor="middle">4.6</text>
<text class="label" x="1860.0" y="510.0" text-anchor="middle">One-shot</text>
<rect x="1962.0" y="195.5" width="36.0" height="286.5" fill="#4E79A7" rx="2"><title>Complex | Few-shot | Llama 3.1 8B Instruct: 4.00</title></rect>
<text class="value" x="1980.0" y="190.5" text-anchor="middle">4.0</text>
<rect x="2050.0" y="219.4" width="36.0" height="262.6" fill="#59A14F" rx="2"><title>Complex | Few-shot | DeepSeek R1 14B: 3.75</title></rect>
<text class="value" x="2068.0" y="214.4" text-anchor="middle">3.8</text>
<text class="label" x="2046.0" y="510.0" text-anchor="middle">Few-shot</text>
<rect x="2148.0" y="184.0" width="36.0" height="298.0" fill="#4E79A7" rx="2"><title>Complex | RAG | Llama 3.1 8B Instruct: 4.12</title></rect>
<text class="value" x="2166.0" y="179.0" text-anchor="middle">4.1</text>
<text class="label" x="2232.0" y="510.0" text-anchor="middle">RAG</text>
<rect x="70" y="612" width="14" height="14" fill="#4E79A7" rx="2"/>
<text class="legend" x="90" y="624">Llama 3.1 8B Instruct</text>
<rect x="280" y="612" width="14" height="14" fill="#F28E2B" rx="2"/>
<text class="legend" x="300" y="624">Mistral</text>
<rect x="490" y="612" width="14" height="14" fill="#59A14F" rx="2"/>
<text class="legend" x="510" y="624">DeepSeek R1 14B</text>
<rect x="700" y="612" width="14" height="14" fill="#E15759" rx="2"/>
<text class="legend" x="720" y="624">Qwen 2.5 7B Instruct</text>
</svg>