<svg xmlns="http://www.w3.org/2000/svg" width="1240" height="620" viewBox="0 0 1240 620">
<style>
text { font-family: Arial, Helvetica, sans-serif; fill: #222; }
.title { font-size: 24px; font-weight: 700; }
.subtitle { font-size: 13px; fill: #555; }
.axis { stroke: #333; stroke-width: 1.2; }
.grid { stroke: #ddd; stroke-width: 1; }
.tick { font-size: 12px; fill: #555; }
.label { font-size: 12px; fill: #222; }
.value { font-size: 11px; fill: #222; }
.legend { font-size: 12px; }
</style>
<rect width="100%" height="100%" fill="#fff"/>
<text class="title" x="70" y="34">PlantUML Syntax Validity Rate</text>
<text class="subtitle" x="70" y="56">Grouped by LLM and generation strategy</text>
<line class="grid" x1="78" y1="498.0" x2="1206" y2="498.0"/>
<text class="tick" x="66" y="502.0" text-anchor="end">0%</text>
<line class="grid" x1="78" y1="416.8" x2="1206" y2="416.8"/>
<text class="tick" x="66" y="420.8" text-anchor="end">20%</text>
<line class="grid" x1="78" y1="335.6" x2="1206" y2="335.6"/>
<text class="tick" x="66" y="339.6" text-anchor="end">40%</text>
<line class="grid" x1="78" y1="254.4" x2="1206" y2="254.4"/>
<text class="tick" x="66" y="258.4" text-anchor="end">60%</text>
<line class="grid" x1="78" y1="173.2" x2="1206" y2="173.2"/>
<text class="tick" x="66" y="177.2" text-anchor="end">80%</text>
<line class="grid" x1="78" y1="92.0" x2="1206" y2="92.0"/>
<text class="tick" x="66" y="96.0" text-anchor="end">100%</text>
<line class="axis" x1="78" y1="92" x2="78" y2="498"/>
<line class="axis" x1="78" y1="498" x2="1206" y2="498"/>
<rect x="78.0" y="257.4" width="78.8" height="240.6" rx="2" fill="#4E79A7"><title>DeepSeek R1 14B | Zero-shot: 59.3%</title></rect>
<text class="value" x="117.4" y="251.4" text-anchor="middle">59.3%</text>
<rect x="166.8" y="137.1" width="78.8" height="360.9" rx="2" fill="#F28E2B"><title>DeepSeek R1 14B | Few-shot: 88.9%</title></rect>
<text class="value" x="206.2" y="131.1" text-anchor="middle">88.9%</text>
<rect x="255.7" y="152.1" width="78.8" height="345.9" rx="2" fill="#76B7B2"><title>DeepSeek R1 14B | RAG: 85.2%</title></rect>
<text class="value" x="295.1" y="146.1" text-anchor="middle">85.2%</text>
<text class="label" x="206.2" y="526" text-anchor="middle">DeepSeek R1 14B</text>
<rect x="368.5" y="377.7" width="78.8" height="120.3" rx="2" fill="#4E79A7"><title>Llama 3.1 8B Instruct | Zero-shot: 29.6%</title></rect>
<text class="value" x="407.9" y="371.7" text-anchor="middle">29.6%</text>
<rect x="457.3" y="122.1" width="78.8" height="375.9" rx="2" fill="#F28E2B"><title>Llama 3.1 8B Instruct | Few-shot: 92.6%</title></rect>
<text class="value" x="496.8" y="116.1" text-anchor="middle">92.6%</text>
<rect x="546.2" y="92.0" width="78.8" height="406.0" rx="2" fill="#76B7B2"><title>Llama 3.1 8B Instruct | RAG: 100.0%</title></rect>
<text class="value" x="585.6" y="86.0" text-anchor="middle">100.0%</text>
<text class="label" x="496.8" y="526" text-anchor="middle">Llama 3.1 8B Instruct</text>
<rect x="659.0" y="483.0" width="78.8" height="15.0" rx="2" fill="#4E79A7"><title>Mistral | Zero-shot: 3.7%</title></rect>
<text class="value" x="698.4" y="477.0" text-anchor="middle">3.7%</text>
<rect x="747.8" y="107.0" width="78.8" height="391.0" rx="2" fill="#F28E2B"><title>Mistral | Few-shot: 96.3%</title></rect>
<text class="value" x="787.2" y="101.0" text-anchor="middle">96.3%</text>
<rect x="836.7" y="197.3" width="78.8" height="300.7" rx="2" fill="#76B7B2"><title>Mistral | RAG: 74.1%</title></rect>
<text class="value" x="876.1" y="191.3" text-anchor="middle">74.1%</text>
<text class="label" x="787.2" y="526" text-anchor="middle">Mistral</text>
<rect x="949.5" y="407.8" width="78.8" height="90.2" rx="2" fill="#4E79A7"><title>Qwen 2.5 7B Instruct | Zero-shot: 22.2%</title></rect>
<text class="value" x="988.9" y="401.8" text-anchor="middle">22.2%</text>
<rect x="1038.3" y="107.0" width="78.8" height="391.0" rx="2" fill="#F28E2B"><title>Qwen 2.5 7B Instruct | Few-shot: 96.3%</title></rect>
<text class="value" x="1077.8" y="101.0" text-anchor="middle">96.3%</text>
<rect x="1127.2" y="92.0" width="78.8" height="406.0" rx="2" fill="#76B7B2"><title>Qwen 2.5 7B Instruct | RAG: 100.0%</title></rect>
<text class="value" x="1166.6" y="86.0" text-anchor="middle">100.0%</text>
<text class="label" x="1077.8" y="526" text-anchor="middle">Qwen 2.5 7B Instruct</text>
<rect x="78" y="564" width="14" height="14" fill="#4E79A7" rx="2"/>
<text class="legend" x="98" y="576">Zero-shot</text>
<rect x="191" y="564" width="14" height="14" fill="#F28E2B" rx="2"/>
<text class="legend" x="211" y="576">Few-shot</text>
<rect x="297" y="564" width="14" height="14" fill="#76B7B2" rx="2"/>
<text class="legend" x="317" y="576">RAG</text>
</svg>