<svg xmlns="http://www.w3.org/2000/svg" width="1000" height="620" viewBox="0 0 1000 620">
<style>
text { font-family: Arial, Helvetica, sans-serif; fill: #222; }
.title { font-size: 24px; font-weight: 700; }
.subtitle { font-size: 13px; fill: #555; }
.axis { stroke: #333; stroke-width: 1.2; }
.grid { stroke: #ddd; stroke-width: 1; }
.tick { font-size: 12px; fill: #555; }
.label { font-size: 12px; fill: #222; }
.value { font-size: 11px; fill: #222; }
.legend { font-size: 12px; }
</style>
<rect width="100%" height="100%" fill="#fff"/>
<text class="title" x="70" y="34">PlantUML Syntax Validity Rate</text>
<text class="subtitle" x="70" y="56">Each line is a generation strategy across LLMs</text>
<line class="grid" x1="78" y1="498.0" x2="954" y2="498.0"/>
<text class="tick" x="66" y="502.0" text-anchor="end">0%</text>
<line class="grid" x1="78" y1="416.8" x2="954" y2="416.8"/>
<text class="tick" x="66" y="420.8" text-anchor="end">20%</text>
<line class="grid" x1="78" y1="335.6" x2="954" y2="335.6"/>
<text class="tick" x="66" y="339.6" text-anchor="end">40%</text>
<line class="grid" x1="78" y1="254.4" x2="954" y2="254.4"/>
<text class="tick" x="66" y="258.4" text-anchor="end">60%</text>
<line class="grid" x1="78" y1="173.2" x2="954" y2="173.2"/>
<text class="tick" x="66" y="177.2" text-anchor="end">80%</text>
<line class="grid" x1="78" y1="92.0" x2="954" y2="92.0"/>
<text class="tick" x="66" y="96.0" text-anchor="end">100%</text>
<line class="axis" x1="78" y1="92" x2="78" y2="498"/>
<line class="axis" x1="78" y1="498" x2="954" y2="498"/>
<line class="grid" x1="78.0" y1="92" x2="78.0" y2="498"/>
<text class="label" x="78.0" y="526" text-anchor="middle">DeepSeek R1 14B</text>
<line class="grid" x1="370.0" y1="92" x2="370.0" y2="498"/>
<text class="label" x="370.0" y="526" text-anchor="middle">Llama 3.1 8B Instruct</text>
<line class="grid" x1="662.0" y1="92" x2="662.0" y2="498"/>
<text class="label" x="662.0" y="526" text-anchor="middle">Mistral</text>
<line class="grid" x1="954.0" y1="92" x2="954.0" y2="498"/>
<text class="label" x="954.0" y="526" text-anchor="middle">Qwen 2.5 7B Instruct</text>
<polyline points="78.0,257.4 370.0,377.7 662.0,483.0 954.0,407.8" fill="none" stroke="#4E79A7" stroke-width="3"/>
<circle cx="78.0" cy="257.4" r="5" fill="#4E79A7"><title>Zero-shot: 59.3%</title></circle>
<text class="value" x="78.0" y="247.4" text-anchor="middle">59.3%</text>
<circle cx="370.0" cy="377.7" r="5" fill="#4E79A7"><title>Zero-shot: 29.6%</title></circle>
<text class="value" x="370.0" y="367.7" text-anchor="middle">29.6%</text>
<circle cx="662.0" cy="483.0" r="5" fill="#4E79A7"><title>Zero-shot: 3.7%</title></circle>
<text class="value" x="662.0" y="473.0" text-anchor="middle">3.7%</text>
<circle cx="954.0" cy="407.8" r="5" fill="#4E79A7"><title>Zero-shot: 22.2%</title></circle>
<text class="value" x="954.0" y="397.8" text-anchor="middle">22.2%</text>
<polyline points="78.0,137.1 370.0,122.1 662.0,107.0 954.0,107.0" fill="none" stroke="#F28E2B" stroke-width="3"/>
<circle cx="78.0" cy="137.1" r="5" fill="#F28E2B"><title>Few-shot: 88.9%</title></circle>
<text class="value" x="78.0" y="127.1" text-anchor="middle">88.9%</text>
<circle cx="370.0" cy="122.1" r="5" fill="#F28E2B"><title>Few-shot: 92.6%</title></circle>
<text class="value" x="370.0" y="112.1" text-anchor="middle">92.6%</text>
<circle cx="662.0" cy="107.0" r="5" fill="#F28E2B"><title>Few-shot: 96.3%</title></circle>
<text class="value" x="662.0" y="97.0" text-anchor="middle">96.3%</text>
<circle cx="954.0" cy="107.0" r="5" fill="#F28E2B"><title>Few-shot: 96.3%</title></circle>
<text class="value" x="954.0" y="97.0" text-anchor="middle">96.3%</text>
<polyline points="78.0,152.1 370.0,92.0 662.0,197.3 954.0,92.0" fill="none" stroke="#76B7B2" stroke-width="3"/>
<circle cx="78.0" cy="152.1" r="5" fill="#76B7B2"><title>RAG: 85.2%</title></circle>
<text class="value" x="78.0" y="142.1" text-anchor="middle">85.2%</text>
<circle cx="370.0" cy="92.0" r="5" fill="#76B7B2"><title>RAG: 100.0%</title></circle>
<text class="value" x="370.0" y="84.0" text-anchor="middle">100.0%</text>
<circle cx="662.0" cy="197.3" r="5" fill="#76B7B2"><title>RAG: 74.1%</title></circle>
<text class="value" x="662.0" y="187.3" text-anchor="middle">74.1%</text>
<circle cx="954.0" cy="92.0" r="5" fill="#76B7B2"><title>RAG: 100.0%</title></circle>
<text class="value" x="954.0" y="84.0" text-anchor="middle">100.0%</text>
<rect x="78" y="564" width="14" height="14" fill="#4E79A7" rx="2"/>
<text class="legend" x="98" y="576">Zero-shot</text>
<rect x="191" y="564" width="14" height="14" fill="#F28E2B" rx="2"/>
<text class="legend" x="211" y="576">Few-shot</text>
<rect x="297" y="564" width="14" height="14" fill="#76B7B2" rx="2"/>
<text class="legend" x="317" y="576">RAG</text>
</svg>