<svg xmlns="http://www.w3.org/2000/svg" width="1040" height="620" viewBox="0 0 1040 620">
<style>
text { font-family: Arial, Helvetica, sans-serif; fill: #222; }
.title { font-size: 24px; font-weight: 700; }
.subtitle { font-size: 13px; fill: #555; }
.axis { stroke: #333; stroke-width: 1.2; }
.grid { stroke: #ddd; stroke-width: 1; }
.tick { font-size: 12px; fill: #555; }
.label { font-size: 12px; fill: #222; }
.value { font-size: 11px; fill: #222; }
.legend { font-size: 12px; }
</style>
<rect width="100%" height="100%" fill="#fff"/>
<text class="title" x="70" y="34">Structural Validity Rate on PlantUML-Valid Diagrams</text>
<text class="subtitle" x="70" y="56">Aggregated across all LLMs</text>
<line class="grid" x1="78" y1="498.0" x2="1006" y2="498.0"/>
<text class="tick" x="66" y="502.0" text-anchor="end">0%</text>
<line class="grid" x1="78" y1="416.8" x2="1006" y2="416.8"/>
<text class="tick" x="66" y="420.8" text-anchor="end">20%</text>
<line class="grid" x1="78" y1="335.6" x2="1006" y2="335.6"/>
<text class="tick" x="66" y="339.6" text-anchor="end">40%</text>
<line class="grid" x1="78" y1="254.4" x2="1006" y2="254.4"/>
<text class="tick" x="66" y="258.4" text-anchor="end">60%</text>
<line class="grid" x1="78" y1="173.2" x2="1006" y2="173.2"/>
<text class="tick" x="66" y="177.2" text-anchor="end">80%</text>
<line class="grid" x1="78" y1="92.0" x2="1006" y2="92.0"/>
<text class="tick" x="66" y="96.0" text-anchor="end">100%</text>
<line class="axis" x1="78" y1="92" x2="78" y2="498"/>
<line class="axis" x1="78" y1="498" x2="1006" y2="498"/>
<rect x="78.0" y="498.0" width="302.7" height="0.0" rx="2" fill="#4E79A7"><title>Overall | Zero-shot: 0.0%</title></rect>
<text class="value" x="229.3" y="492.0" text-anchor="middle">0.0%</text>
<rect x="390.7" y="421.6" width="302.7" height="76.4" rx="2" fill="#F28E2B"><title>Overall | Few-shot: 18.8%</title></rect>
<text class="value" x="542.0" y="415.6" text-anchor="middle">18.8%</text>
<rect x="703.3" y="422.6" width="302.7" height="75.4" rx="2" fill="#76B7B2"><title>Overall | RAG: 18.6%</title></rect>
<text class="value" x="854.7" y="416.6" text-anchor="middle">18.6%</text>
<text class="label" x="542.0" y="526" text-anchor="middle">Overall</text>
<rect x="78" y="564" width="14" height="14" fill="#4E79A7" rx="2"/>
<text class="legend" x="98" y="576">Zero-shot</text>
<rect x="191" y="564" width="14" height="14" fill="#F28E2B" rx="2"/>
<text class="legend" x="211" y="576">Few-shot</text>
<rect x="297" y="564" width="14" height="14" fill="#76B7B2" rx="2"/>
<text class="legend" x="317" y="576">RAG</text>
</svg>