<svg xmlns="http://www.w3.org/2000/svg" width="1240" height="620" viewBox="0 0 1240 620">
<style>
text { font-family: Arial, Helvetica, sans-serif; fill: #222; }
.title { font-size: 24px; font-weight: 700; }
.subtitle { font-size: 13px; fill: #555; }
.axis { stroke: #333; stroke-width: 1.2; }
.grid { stroke: #ddd; stroke-width: 1; }
.tick { font-size: 12px; fill: #555; }
.label { font-size: 12px; fill: #222; }
.value { font-size: 11px; fill: #222; }
.legend { font-size: 12px; }
</style>
<rect width="100%" height="100%" fill="#fff"/>
<text class="title" x="70" y="34">Structural Validity Rate on PlantUML-Valid Diagrams</text>
<text class="subtitle" x="70" y="56">Grouped by LLM and generation strategy</text>
<line class="grid" x1="78" y1="498.0" x2="1206" y2="498.0"/>
<text class="tick" x="66" y="502.0" text-anchor="end">0%</text>
<line class="grid" x1="78" y1="416.8" x2="1206" y2="416.8"/>
<text class="tick" x="66" y="420.8" text-anchor="end">20%</text>
<line class="grid" x1="78" y1="335.6" x2="1206" y2="335.6"/>
<text class="tick" x="66" y="339.6" text-anchor="end">40%</text>
<line class="grid" x1="78" y1="254.4" x2="1206" y2="254.4"/>
<text class="tick" x="66" y="258.4" text-anchor="end">60%</text>
<line class="grid" x1="78" y1="173.2" x2="1206" y2="173.2"/>
<text class="tick" x="66" y="177.2" text-anchor="end">80%</text>
<line class="grid" x1="78" y1="92.0" x2="1206" y2="92.0"/>
<text class="tick" x="66" y="96.0" text-anchor="end">100%</text>
<line class="axis" x1="78" y1="92" x2="78" y2="498"/>
<line class="axis" x1="78" y1="498" x2="1206" y2="498"/>
<rect x="78.0" y="498.0" width="78.8" height="0.0" rx="2" fill="#4E79A7"><title>DeepSeek R1 14B | Zero-shot: 0.0%</title></rect>
<text class="value" x="117.4" y="492.0" text-anchor="middle">0.0%</text>
<rect x="166.8" y="396.5" width="78.8" height="101.5" rx="2" fill="#F28E2B"><title>DeepSeek R1 14B | Few-shot: 25.0%</title></rect>
<text class="value" x="206.2" y="390.5" text-anchor="middle">25.0%</text>
<rect x="255.7" y="427.4" width="78.8" height="70.6" rx="2" fill="#76B7B2"><title>DeepSeek R1 14B | RAG: 17.4%</title></rect>
<text class="value" x="295.1" y="421.4" text-anchor="middle">17.4%</text>
<text class="label" x="206.2" y="526" text-anchor="middle">DeepSeek R1 14B</text>
<rect x="368.5" y="498.0" width="78.8" height="0.0" rx="2" fill="#4E79A7"><title>Llama 3.1 8B Instruct | Zero-shot: 0.0%</title></rect>
<text class="value" x="407.9" y="492.0" text-anchor="middle">0.0%</text>
<rect x="457.3" y="368.1" width="78.8" height="129.9" rx="2" fill="#F28E2B"><title>Llama 3.1 8B Instruct | Few-shot: 32.0%</title></rect>
<text class="value" x="496.8" y="362.1" text-anchor="middle">32.0%</text>
<rect x="546.2" y="407.8" width="78.8" height="90.2" rx="2" fill="#76B7B2"><title>Llama 3.1 8B Instruct | RAG: 22.2%</title></rect>
<text class="value" x="585.6" y="401.8" text-anchor="middle">22.2%</text>
<text class="label" x="496.8" y="526" text-anchor="middle">Llama 3.1 8B Instruct</text>
<rect x="659.0" y="498.0" width="78.8" height="0.0" rx="2" fill="#4E79A7"><title>Mistral | Zero-shot: 0.0%</title></rect>
<text class="value" x="698.4" y="492.0" text-anchor="middle">0.0%</text>
<rect x="747.8" y="466.8" width="78.8" height="31.2" rx="2" fill="#F28E2B"><title>Mistral | Few-shot: 7.7%</title></rect>
<text class="value" x="787.2" y="460.8" text-anchor="middle">7.7%</text>
<rect x="836.7" y="416.8" width="78.8" height="81.2" rx="2" fill="#76B7B2"><title>Mistral | RAG: 20.0%</title></rect>
<text class="value" x="876.1" y="410.8" text-anchor="middle">20.0%</text>
<text class="label" x="787.2" y="526" text-anchor="middle">Mistral</text>
<rect x="949.5" y="498.0" width="78.8" height="0.0" rx="2" fill="#4E79A7"><title>Qwen 2.5 7B Instruct | Zero-shot: 0.0%</title></rect>
<text class="value" x="988.9" y="492.0" text-anchor="middle">0.0%</text>
<rect x="1038.3" y="451.1" width="78.8" height="46.9" rx="2" fill="#F28E2B"><title>Qwen 2.5 7B Instruct | Few-shot: 11.5%</title></rect>
<text class="value" x="1077.8" y="445.1" text-anchor="middle">11.5%</text>
<rect x="1127.2" y="437.9" width="78.8" height="60.1" rx="2" fill="#76B7B2"><title>Qwen 2.5 7B Instruct | RAG: 14.8%</title></rect>
<text class="value" x="1166.6" y="431.9" text-anchor="middle">14.8%</text>
<text class="label" x="1077.8" y="526" text-anchor="middle">Qwen 2.5 7B Instruct</text>
<rect x="78" y="564" width="14" height="14" fill="#4E79A7" rx="2"/>
<text class="legend" x="98" y="576">Zero-shot</text>
<rect x="191" y="564" width="14" height="14" fill="#F28E2B" rx="2"/>
<text class="legend" x="211" y="576">Few-shot</text>
<rect x="297" y="564" width="14" height="14" fill="#76B7B2" rx="2"/>
<text class="legend" x="317" y="576">RAG</text>
</svg>