<svg xmlns="http://www.w3.org/2000/svg" width="1120" height="660" viewBox="0 0 1120 660">
<style>
text { font-family: Arial, Helvetica, sans-serif; fill: #222; }
.title { font-size: 24px; font-weight: 700; }
.subtitle { font-size: 13px; fill: #555; }
.axis { stroke: #333; stroke-width: 1.2; }
.grid { stroke: #ddd; stroke-width: 1; }
.tick { font-size: 12px; fill: #555; }
.label { font-size: 12px; fill: #222; }
.value { font-size: 11px; fill: #222; }
.legend { font-size: 12px; }
</style>
<rect width="100%" height="100%" fill="#fff"/>
<text class="title" x="70" y="34">Structural Violation Type Distribution</text>
<text class="subtitle" x="70" y="56">Violation type distribution by strategy</text>
<line class="grid" x1="80" y1="490.0" x2="1080" y2="490.0"/>
<text class="tick" x="68" y="494.0" text-anchor="end">0</text>
<line class="grid" x1="80" y1="410.4" x2="1080" y2="410.4"/>
<text class="tick" x="68" y="414.4" text-anchor="end">31</text>
<line class="grid" x1="80" y1="330.8" x2="1080" y2="330.8"/>
<text class="tick" x="68" y="334.8" text-anchor="end">62</text>
<line class="grid" x1="80" y1="251.2" x2="1080" y2="251.2"/>
<text class="tick" x="68" y="255.2" text-anchor="end">92</text>
<line class="grid" x1="80" y1="171.6" x2="1080" y2="171.6"/>
<text class="tick" x="68" y="175.6" text-anchor="end">123</text>
<line class="grid" x1="80" y1="92.0" x2="1080" y2="92.0"/>
<text class="tick" x="68" y="96.0" text-anchor="end">154</text>
<line class="axis" x1="80" y1="92" x2="80" y2="490"/>
<line class="axis" x1="80" y1="490" x2="1080" y2="490"/>
<rect x="80.0" y="482.2" width="326.7" height="7.8" fill="#B07AA1"><title>Zero-shot | duplicate_transitions: 3</title></rect>
<rect x="80.0" y="402.1" width="326.7" height="80.1" fill="#4E79A7"><title>Zero-shot | missing_final_state: 31</title></rect>
<rect x="80.0" y="342.7" width="326.7" height="59.4" fill="#F28E2B"><title>Zero-shot | missing_initial_state: 23</title></rect>
<rect x="80.0" y="340.1" width="326.7" height="2.6" fill="#E15759"><title>Zero-shot | multiple_initial_states: 1</title></rect>
<rect x="80.0" y="314.3" width="326.7" height="25.8" fill="#59A14F"><title>Zero-shot | orphan_states: 10</title></rect>
<rect x="80.0" y="309.1" width="326.7" height="5.2" fill="#76B7B2"><title>Zero-shot | unreachable_states: 2</title></rect>
<text class="label" x="243.3" y="508" text-anchor="end" transform="rotate(-38 243.3 508)">Zero-shot</text>
<rect x="416.7" y="474.5" width="326.7" height="15.5" fill="#B07AA1"><title>Few-shot | duplicate_transitions: 6</title></rect>
<rect x="416.7" y="453.8" width="326.7" height="20.7" fill="#FF9DA7"><title>Few-shot | invalid_choice_guards: 8</title></rect>
<rect x="416.7" y="409.9" width="326.7" height="43.9" fill="#EDC948"><title>Few-shot | invalid_choice_node: 17</title></rect>
<rect x="416.7" y="275.5" width="326.7" height="134.4" fill="#4E79A7"><title>Few-shot | missing_final_state: 52</title></rect>
<rect x="416.7" y="244.5" width="326.7" height="31.0" fill="#F28E2B"><title>Few-shot | missing_initial_state: 12</title></rect>
<rect x="416.7" y="229.0" width="326.7" height="15.5" fill="#E15759"><title>Few-shot | multiple_initial_states: 6</title></rect>
<rect x="416.7" y="192.8" width="326.7" height="36.2" fill="#59A14F"><title>Few-shot | orphan_states: 14</title></rect>
<rect x="416.7" y="92.0" width="326.7" height="100.8" fill="#76B7B2"><title>Few-shot | unreachable_states: 39</title></rect>
<text class="label" x="580.0" y="508" text-anchor="end" transform="rotate(-38 580.0 508)">Few-shot</text>
<rect x="753.3" y="461.6" width="326.7" height="28.4" fill="#B07AA1"><title>RAG | duplicate_transitions: 11</title></rect>
<rect x="753.3" y="404.7" width="326.7" height="56.9" fill="#FF9DA7"><title>RAG | invalid_choice_guards: 22</title></rect>
<rect x="753.3" y="376.3" width="326.7" height="28.4" fill="#EDC948"><title>RAG | invalid_choice_node: 11</title></rect>
<rect x="753.3" y="270.3" width="326.7" height="106.0" fill="#4E79A7"><title>RAG | missing_final_state: 41</title></rect>
<rect x="753.3" y="252.2" width="326.7" height="18.1" fill="#F28E2B"><title>RAG | missing_initial_state: 7</title></rect>
<rect x="753.3" y="166.9" width="326.7" height="85.3" fill="#E15759"><title>RAG | multiple_initial_states: 33</title></rect>
<rect x="753.3" y="138.5" width="326.7" height="28.4" fill="#59A14F"><title>RAG | orphan_states: 11</title></rect>
<rect x="753.3" y="133.4" width="326.7" height="5.2" fill="#8CD17D"><title>RAG | parse_warning: 2</title></rect>
<rect x="753.3" y="94.6" width="326.7" height="38.8" fill="#76B7B2"><title>RAG | unreachable_states: 15</title></rect>
<text class="label" x="916.7" y="508" text-anchor="end" transform="rotate(-38 916.7 508)">RAG</text>
<rect x="80" y="590" width="14" height="14" fill="#B07AA1" rx="2"/>
<text class="legend" x="100" y="602">duplicate_transitions</text>
<rect x="271" y="590" width="14" height="14" fill="#FF9DA7" rx="2"/>
<text class="legend" x="291" y="602">invalid_choice_guards</text>
<rect x="462" y="590" width="14" height="14" fill="#EDC948" rx="2"/>
<text class="legend" x="482" y="602">invalid_choice_node</text>
<rect x="639" y="590" width="14" height="14" fill="#4E79A7" rx="2"/>
<text class="legend" x="659" y="602">missing_final_state</text>
<rect x="816" y="590" width="14" height="14" fill="#F28E2B" rx="2"/>
<text class="legend" x="836" y="602">missing_initial_state</text>
<rect x="80" y="612" width="14" height="14" fill="#E15759" rx="2"/>
<text class="legend" x="100" y="624">multiple_initial_states</text>
<rect x="285" y="612" width="14" height="14" fill="#59A14F" rx="2"/>
<text class="legend" x="305" y="624">orphan_states</text>
<rect x="420" y="612" width="14" height="14" fill="#8CD17D" rx="2"/>
<text class="legend" x="440" y="624">parse_warning</text>
<rect x="555" y="612" width="14" height="14" fill="#76B7B2" rx="2"/>
<text class="legend" x="575" y="624">unreachable_states</text>
</svg>