<svg xmlns="http://www.w3.org/2000/svg" width="1240" height="620" viewBox="0 0 1240 620">
<style>
text { font-family: Arial, Helvetica, sans-serif; fill: #222; }
.title { font-size: 24px; font-weight: 700; }
.subtitle { font-size: 13px; fill: #555; }
.axis { stroke: #333; stroke-width: 1.2; }
.grid { stroke: #ddd; stroke-width: 1; }
.tick { font-size: 12px; fill: #555; }
.label { font-size: 12px; fill: #222; }
.value { font-size: 11px; fill: #222; }
.legend { font-size: 12px; }
</style>
<rect width="100%" height="100%" fill="#fff"/>
<text class="title" x="70" y="34">Average Number of Structural Violations</text>
<text class="subtitle" x="70" y="56">Grouped by LLM and generation strategy</text>
<line class="grid" x1="78" y1="498.0" x2="1206" y2="498.0"/>
<text class="tick" x="66" y="502.0" text-anchor="end">0.0</text>
<line class="grid" x1="78" y1="416.8" x2="1206" y2="416.8"/>
<text class="tick" x="66" y="420.8" text-anchor="end">0.7</text>
<line class="grid" x1="78" y1="335.6" x2="1206" y2="335.6"/>
<text class="tick" x="66" y="339.6" text-anchor="end">1.4</text>
<line class="grid" x1="78" y1="254.4" x2="1206" y2="254.4"/>
<text class="tick" x="66" y="258.4" text-anchor="end">2.1</text>
<line class="grid" x1="78" y1="173.2" x2="1206" y2="173.2"/>
<text class="tick" x="66" y="177.2" text-anchor="end">2.8</text>
<line class="grid" x1="78" y1="92.0" x2="1206" y2="92.0"/>
<text class="tick" x="66" y="96.0" text-anchor="end">3.5</text>
<line class="axis" x1="78" y1="92" x2="78" y2="498"/>
<line class="axis" x1="78" y1="498" x2="1206" y2="498"/>
<rect x="78.0" y="258.8" width="78.8" height="239.2" rx="2" fill="#4E79A7"><title>DeepSeek R1 14B | Zero-shot: 2.06</title></rect>
<text class="value" x="117.4" y="252.8" text-anchor="middle">2.06</text>
<rect x="166.8" y="367.5" width="78.8" height="130.5" rx="2" fill="#F28E2B"><title>DeepSeek R1 14B | Few-shot: 1.12</title></rect>
<text class="value" x="206.2" y="361.5" text-anchor="middle">1.12</text>
<rect x="255.7" y="271.0" width="78.8" height="227.0" rx="2" fill="#76B7B2"><title>DeepSeek R1 14B | RAG: 1.96</title></rect>
<text class="value" x="295.1" y="265.0" text-anchor="middle">1.96</text>
<text class="label" x="206.2" y="526" text-anchor="middle">DeepSeek R1 14B</text>
<rect x="368.5" y="266.0" width="78.8" height="232.0" rx="2" fill="#4E79A7"><title>Llama 3.1 8B Instruct | Zero-shot: 2.00</title></rect>
<text class="value" x="407.9" y="260.0" text-anchor="middle">2.00</text>
<rect x="457.3" y="307.8" width="78.8" height="190.2" rx="2" fill="#F28E2B"><title>Llama 3.1 8B Instruct | Few-shot: 1.64</title></rect>
<text class="value" x="496.8" y="301.8" text-anchor="middle">1.64</text>
<rect x="546.2" y="339.0" width="78.8" height="159.0" rx="2" fill="#76B7B2"><title>Llama 3.1 8B Instruct | RAG: 1.37</title></rect>
<text class="value" x="585.6" y="333.0" text-anchor="middle">1.37</text>
<text class="label" x="496.8" y="526" text-anchor="middle">Llama 3.1 8B Instruct</text>
<rect x="659.0" y="150.0" width="78.8" height="348.0" rx="2" fill="#4E79A7"><title>Mistral | Zero-shot: 3.00</title></rect>
<text class="value" x="698.4" y="144.0" text-anchor="middle">3.00</text>
<rect x="747.8" y="288.3" width="78.8" height="209.7" rx="2" fill="#F28E2B"><title>Mistral | Few-shot: 1.81</title></rect>
<text class="value" x="787.2" y="282.3" text-anchor="middle">1.81</text>
<rect x="836.7" y="312.4" width="78.8" height="185.6" rx="2" fill="#76B7B2"><title>Mistral | RAG: 1.60</title></rect>
<text class="value" x="876.1" y="306.4" text-anchor="middle">1.60</text>
<text class="label" x="787.2" y="526" text-anchor="middle">Mistral</text>
<rect x="949.5" y="150.0" width="78.8" height="348.0" rx="2" fill="#4E79A7"><title>Qwen 2.5 7B Instruct | Zero-shot: 3.00</title></rect>
<text class="value" x="988.9" y="144.0" text-anchor="middle">3.00</text>
<rect x="1038.3" y="324.0" width="78.8" height="174.0" rx="2" fill="#F28E2B"><title>Qwen 2.5 7B Instruct | Few-shot: 1.50</title></rect>
<text class="value" x="1077.8" y="318.0" text-anchor="middle">1.50</text>
<rect x="1127.2" y="330.4" width="78.8" height="167.6" rx="2" fill="#76B7B2"><title>Qwen 2.5 7B Instruct | RAG: 1.44</title></rect>
<text class="value" x="1166.6" y="324.4" text-anchor="middle">1.44</text>
<text class="label" x="1077.8" y="526" text-anchor="middle">Qwen 2.5 7B Instruct</text>
<rect x="78" y="564" width="14" height="14" fill="#4E79A7" rx="2"/>
<text class="legend" x="98" y="576">Zero-shot</text>
<rect x="191" y="564" width="14" height="14" fill="#F28E2B" rx="2"/>
<text class="legend" x="211" y="576">Few-shot</text>
<rect x="297" y="564" width="14" height="14" fill="#76B7B2" rx="2"/>
<text class="legend" x="317" y="576">RAG</text>
</svg>