<svg xmlns="http://www.w3.org/2000/svg" width="1040" height="560" viewBox="0 0 1040 560">
<style>
text { font-family: Arial, Helvetica, sans-serif; fill: #222; }
.title { font-size: 24px; font-weight: 700; }
.subtitle { font-size: 13px; fill: #555; }
.axis { stroke: #333; stroke-width: 1.2; }
.grid { stroke: #ddd; stroke-width: 1; }
.tick { font-size: 12px; fill: #555; }
.group { font-size: 13px; font-weight: 700; }
.value { font-size: 11px; fill: #222; }
.legend { font-size: 12px; }
</style>
<rect width="100%" height="100%" fill="#fff"/>
<text class="title" x="90" y="34">Mistral RAG Ablation</text>
<text class="subtitle" x="90" y="56">Blue: PlantUML validity. Red: strict state-rule validity.</text>
<line class="grid" x1="90" y1="440.0" x2="1000" y2="440.0"/>
<text class="tick" x="78" y="444.0" text-anchor="end">0%</text>
<line class="grid" x1="90" y1="370.0" x2="1000" y2="370.0"/>
<text class="tick" x="78" y="374.0" text-anchor="end">20%</text>
<line class="grid" x1="90" y1="300.0" x2="1000" y2="300.0"/>
<text class="tick" x="78" y="304.0" text-anchor="end">40%</text>
<line class="grid" x1="90" y1="230.0" x2="1000" y2="230.0"/>
<text class="tick" x="78" y="234.0" text-anchor="end">60%</text>
<line class="grid" x1="90" y1="160.0" x2="1000" y2="160.0"/>
<text class="tick" x="78" y="164.0" text-anchor="end">80%</text>
<line class="grid" x1="90" y1="90.0" x2="1000" y2="90.0"/>
<text class="tick" x="78" y="94.0" text-anchor="end">100%</text>
<line class="axis" x1="90" y1="90" x2="90" y2="440"/>
<line class="axis" x1="90" y1="440" x2="1000" y2="440"/>
<rect x="90.0" y="180.8" width="94.2" height="259.2" rx="2" fill="#4E79A7"><title>Full RAG | PlantUML: 74.07%</title></rect>
<text class="value" x="137.1" y="175.8" text-anchor="middle">74%</text>
<rect x="196.2" y="388.2" width="94.2" height="51.8" rx="2" fill="#E15759"><title>Full RAG | State-rule: 14.81%</title></rect>
<text class="value" x="243.4" y="383.2" text-anchor="middle">15%</text>
<text class="group" x="190.2" y="468" text-anchor="middle">Full RAG</text>
<rect x="326.5" y="128.9" width="94.2" height="311.1" rx="2" fill="#4E79A7"><title>Examples Only | PlantUML: 88.89%</title></rect>
<text class="value" x="373.6" y="123.9" text-anchor="middle">89%</text>
<rect x="432.8" y="427.1" width="94.2" height="12.9" rx="2" fill="#E15759"><title>Examples Only | State-rule: 3.70%</title></rect>
<text class="value" x="479.9" y="422.1" text-anchor="middle">4%</text>
<text class="group" x="426.8" y="468" text-anchor="middle">Examples Only</text>
<rect x="563.0" y="206.7" width="94.2" height="233.3" rx="2" fill="#4E79A7"><title>Rules Only | PlantUML: 66.67%</title></rect>
<text class="value" x="610.1" y="201.7" text-anchor="middle">67%</text>
<rect x="669.2" y="427.1" width="94.2" height="12.9" rx="2" fill="#E15759"><title>Rules Only | State-rule: 3.70%</title></rect>
<text class="value" x="716.4" y="422.1" text-anchor="middle">4%</text>
<text class="group" x="663.2" y="468" text-anchor="middle">Rules Only</text>
<rect x="799.5" y="349.2" width="94.2" height="90.8" rx="2" fill="#4E79A7"><title>Theory Only | PlantUML: 25.93%</title></rect>
<text class="value" x="846.6" y="344.2" text-anchor="middle">26%</text>
<rect x="905.8" y="440.0" width="94.2" height="0.0" rx="2" fill="#E15759"><title>Theory Only | State-rule: 0.00%</title></rect>
<text class="value" x="952.9" y="435.0" text-anchor="middle">0%</text>
<text class="group" x="899.8" y="468" text-anchor="middle">Theory Only</text>
<rect x="90" y="508" width="14" height="14" fill="#4E79A7" rx="2"/>
<text class="legend" x="110" y="520">PlantUML Validity</text>
<rect x="300" y="508" width="14" height="14" fill="#E15759" rx="2"/>
<text class="legend" x="320" y="520">Strict State-Rule Validity</text>
</svg>