<svg xmlns="http://www.w3.org/2000/svg" width="1050" height="360" viewBox="0 0 1050 360">
<rect width="100%" height="100%" fill="white"/>
<text x="525.0" y="28" text-anchor="middle" font-family="Arial" font-size="20" font-weight="700">Completeness Distribution by method</text>
<rect x="230" y="44" width="16" height="16" fill="#b2182b" stroke="#444" stroke-width="0.5"/>
<text x="252" y="57" font-family="Arial" font-size="12">Score 1</text>
<rect x="335" y="44" width="16" height="16" fill="#ef8a62" stroke="#444" stroke-width="0.5"/>
<text x="357" y="57" font-family="Arial" font-size="12">Score 2</text>
<rect x="440" y="44" width="16" height="16" fill="#f7f7f7" stroke="#444" stroke-width="0.5"/>
<text x="462" y="57" font-family="Arial" font-size="12">Score 3</text>
<rect x="545" y="44" width="16" height="16" fill="#67a9cf" stroke="#444" stroke-width="0.5"/>
<text x="567" y="57" font-family="Arial" font-size="12">Score 4</text>
<rect x="650" y="44" width="16" height="16" fill="#2166ac" stroke="#444" stroke-width="0.5"/>
<text x="672" y="57" font-family="Arial" font-size="12">Score 5</text>
<text x="218" y="90" text-anchor="end" font-family="Arial" font-size="13">Few-shot</text>
<rect x="230" y="70" width="20.54054054054054" height="30" fill="#b2182b" stroke="white" stroke-width="1"/>
<rect x="250.54054054054055" y="70" width="20.54054054054054" height="30" fill="#ef8a62" stroke="white" stroke-width="1"/>
<rect x="271.0810810810811" y="70" width="225.94594594594597" height="30" fill="#f7f7f7" stroke="white" stroke-width="1"/>
<text x="384.05405405405406" y="90" text-anchor="middle" font-family="Arial" font-size="11" fill="#111">11</text>
<rect x="497.0270270270271" y="70" width="287.5675675675676" height="30" fill="#67a9cf" stroke="white" stroke-width="1"/>
<text x="640.8108108108108" y="90" text-anchor="middle" font-family="Arial" font-size="11" fill="white">14</text>
<rect x="784.5945945945947" y="70" width="205.40540540540542" height="30" fill="#2166ac" stroke="white" stroke-width="1"/>
<text x="887.2972972972974" y="90" text-anchor="middle" font-family="Arial" font-size="11" fill="white">10</text>
<rect x="230" y="70" width="760" height="30" fill="none" stroke="#333" stroke-width="0.7"/>
<text x="998" y="90" font-family="Arial" font-size="12">n=37</text>
<text x="218" y="140" text-anchor="end" font-family="Arial" font-size="13">One-shot</text>
<rect x="230.0" y="120" width="42.22222222222222" height="30" fill="#ef8a62" stroke="white" stroke-width="1"/>
<text x="251.11111111111111" y="140" text-anchor="middle" font-family="Arial" font-size="11" fill="white">1</text>
<rect x="272.22222222222223" y="120" width="211.11111111111111" height="30" fill="#f7f7f7" stroke="white" stroke-width="1"/>
<text x="377.77777777777777" y="140" text-anchor="middle" font-family="Arial" font-size="11" fill="#111">5</text>
<rect x="483.33333333333337" y="120" width="295.55555555555554" height="30" fill="#67a9cf" stroke="white" stroke-width="1"/>
<text x="631.1111111111111" y="140" text-anchor="middle" font-family="Arial" font-size="11" fill="white">7</text>
<rect x="778.8888888888889" y="120" width="211.11111111111111" height="30" fill="#2166ac" stroke="white" stroke-width="1"/>
<text x="884.4444444444445" y="140" text-anchor="middle" font-family="Arial" font-size="11" fill="white">5</text>
<rect x="230" y="120" width="760" height="30" fill="none" stroke="#333" stroke-width="0.7"/>
<text x="998" y="140" font-family="Arial" font-size="12">n=18</text>
<text x="218" y="190" text-anchor="end" font-family="Arial" font-size="13">RAG</text>
<rect x="230" y="170" width="23.75" height="30" fill="#b2182b" stroke="white" stroke-width="1"/>
<rect x="253.75" y="170" width="118.75" height="30" fill="#ef8a62" stroke="white" stroke-width="1"/>
<text x="313.125" y="190" text-anchor="middle" font-family="Arial" font-size="11" fill="white">5</text>
<rect x="372.5" y="170" width="261.25" height="30" fill="#f7f7f7" stroke="white" stroke-width="1"/>
<text x="503.125" y="190" text-anchor="middle" font-family="Arial" font-size="11" fill="#111">11</text>
<rect x="633.75" y="170" width="95.0" height="30" fill="#67a9cf" stroke="white" stroke-width="1"/>
<text x="681.25" y="190" text-anchor="middle" font-family="Arial" font-size="11" fill="white">4</text>
<rect x="728.75" y="170" width="261.25" height="30" fill="#2166ac" stroke="white" stroke-width="1"/>
<text x="859.375" y="190" text-anchor="middle" font-family="Arial" font-size="11" fill="white">11</text>
<rect x="230" y="170" width="760" height="30" fill="none" stroke="#333" stroke-width="0.7"/>
<text x="998" y="190" font-family="Arial" font-size="12">n=32</text>
<text x="218" y="240" text-anchor="end" font-family="Arial" font-size="13">Repair</text>
<rect x="230" y="220" width="57.721518987341774" height="30" fill="#b2182b" stroke="white" stroke-width="1"/>
<text x="258.8607594936709" y="240" text-anchor="middle" font-family="Arial" font-size="11" fill="white">6</text>
<rect x="287.72151898734177" y="220" width="57.721518987341774" height="30" fill="#ef8a62" stroke="white" stroke-width="1"/>
<text x="316.5822784810127" y="240" text-anchor="middle" font-family="Arial" font-size="11" fill="white">6</text>
<rect x="345.44303797468353" y="220" width="182.78481012658227" height="30" fill="#f7f7f7" stroke="white" stroke-width="1"/>
<text x="436.83544303797464" y="240" text-anchor="middle" font-family="Arial" font-size="11" fill="#111">19</text>
<rect x="528.2278481012659" y="220" width="240.50632911392407" height="30" fill="#67a9cf" stroke="white" stroke-width="1"/>
<text x="648.4810126582279" y="240" text-anchor="middle" font-family="Arial" font-size="11" fill="white">25</text>
<rect x="768.7341772151899" y="220" width="221.26582278481013" height="30" fill="#2166ac" stroke="white" stroke-width="1"/>
<text x="879.367088607595" y="240" text-anchor="middle" font-family="Arial" font-size="11" fill="white">23</text>
<rect x="230" y="220" width="760" height="30" fill="none" stroke="#333" stroke-width="0.7"/>
<text x="998" y="240" font-family="Arial" font-size="12">n=79</text>
<line x1="230.0" y1="62" x2="230.0" y2="305" stroke="#ddd" stroke-width="0.8"/>
<text x="230.0" y="330" text-anchor="middle" font-family="Arial" font-size="12">0%</text>
<line x1="420.0" y1="62" x2="420.0" y2="305" stroke="#ddd" stroke-width="0.8"/>
<text x="420.0" y="330" text-anchor="middle" font-family="Arial" font-size="12">25%</text>
<line x1="610.0" y1="62" x2="610.0" y2="305" stroke="#ddd" stroke-width="0.8"/>
<text x="610.0" y="330" text-anchor="middle" font-family="Arial" font-size="12">50%</text>
<line x1="800.0" y1="62" x2="800.0" y2="305" stroke="#ddd" stroke-width="0.8"/>
<text x="800.0" y="330" text-anchor="middle" font-family="Arial" font-size="12">75%</text>
<line x1="990.0" y1="62" x2="990.0" y2="305" stroke="#ddd" stroke-width="0.8"/>
<text x="990.0" y="330" text-anchor="middle" font-family="Arial" font-size="12">100%</text>
</svg>