<svg xmlns="http://www.w3.org/2000/svg" width="1050" height="360" viewBox="0 0 1050 360">
<rect width="100%" height="100%" fill="white"/>
<text x="525.0" y="28" text-anchor="middle" font-family="Arial" font-size="20" font-weight="700">Correctness Distribution by method</text>
<rect x="230" y="44" width="16" height="16" fill="#b2182b" stroke="#444" stroke-width="0.5"/>
<text x="252" y="57" font-family="Arial" font-size="12">Score 1</text>
<rect x="335" y="44" width="16" height="16" fill="#ef8a62" stroke="#444" stroke-width="0.5"/>
<text x="357" y="57" font-family="Arial" font-size="12">Score 2</text>
<rect x="440" y="44" width="16" height="16" fill="#f7f7f7" stroke="#444" stroke-width="0.5"/>
<text x="462" y="57" font-family="Arial" font-size="12">Score 3</text>
<rect x="545" y="44" width="16" height="16" fill="#67a9cf" stroke="#444" stroke-width="0.5"/>
<text x="567" y="57" font-family="Arial" font-size="12">Score 4</text>
<rect x="650" y="44" width="16" height="16" fill="#2166ac" stroke="#444" stroke-width="0.5"/>
<text x="672" y="57" font-family="Arial" font-size="12">Score 5</text>
<text x="218" y="90" text-anchor="end" font-family="Arial" font-size="13">Few-shot</text>
<rect x="230" y="70" width="20.54054054054054" height="30" fill="#b2182b" stroke="white" stroke-width="1"/>
<rect x="250.54054054054055" y="70" width="41.08108108108108" height="30" fill="#ef8a62" stroke="white" stroke-width="1"/>
<rect x="291.6216216216216" y="70" width="225.94594594594597" height="30" fill="#f7f7f7" stroke="white" stroke-width="1"/>
<text x="404.5945945945946" y="90" text-anchor="middle" font-family="Arial" font-size="11" fill="#111">11</text>
<rect x="517.5675675675676" y="70" width="328.64864864864865" height="30" fill="#67a9cf" stroke="white" stroke-width="1"/>
<text x="681.8918918918919" y="90" text-anchor="middle" font-family="Arial" font-size="11" fill="white">16</text>
<rect x="846.2162162162163" y="70" width="143.7837837837838" height="30" fill="#2166ac" stroke="white" stroke-width="1"/>
<text x="918.1081081081081" y="90" text-anchor="middle" font-family="Arial" font-size="11" fill="white">7</text>
<rect x="230" y="70" width="760" height="30" fill="none" stroke="#333" stroke-width="0.7"/>
<text x="998" y="90" font-family="Arial" font-size="12">n=37</text>
<text x="218" y="140" text-anchor="end" font-family="Arial" font-size="13">One-shot</text>
<rect x="230" y="120" width="42.22222222222222" height="30" fill="#b2182b" stroke="white" stroke-width="1"/>
<text x="251.11111111111111" y="140" text-anchor="middle" font-family="Arial" font-size="11" fill="white">1</text>
<rect x="272.22222222222223" y="120" width="84.44444444444444" height="30" fill="#ef8a62" stroke="white" stroke-width="1"/>
<text x="314.44444444444446" y="140" text-anchor="middle" font-family="Arial" font-size="11" fill="white">2</text>
<rect x="356.6666666666667" y="120" width="211.11111111111111" height="30" fill="#f7f7f7" stroke="white" stroke-width="1"/>
<text x="462.22222222222223" y="140" text-anchor="middle" font-family="Arial" font-size="11" fill="#111">5</text>
<rect x="567.7777777777778" y="120" width="211.11111111111111" height="30" fill="#67a9cf" stroke="white" stroke-width="1"/>
<text x="673.3333333333334" y="140" text-anchor="middle" font-family="Arial" font-size="11" fill="white">5</text>
<rect x="778.8888888888889" y="120" width="211.11111111111111" height="30" fill="#2166ac" stroke="white" stroke-width="1"/>
<text x="884.4444444444445" y="140" text-anchor="middle" font-family="Arial" font-size="11" fill="white">5</text>
<rect x="230" y="120" width="760" height="30" fill="none" stroke="#333" stroke-width="0.7"/>
<text x="998" y="140" font-family="Arial" font-size="12">n=18</text>
<text x="218" y="190" text-anchor="end" font-family="Arial" font-size="13">RAG</text>
<rect x="230" y="170" width="23.75" height="30" fill="#b2182b" stroke="white" stroke-width="1"/>
<rect x="253.75" y="170" width="166.25" height="30" fill="#ef8a62" stroke="white" stroke-width="1"/>
<text x="336.875" y="190" text-anchor="middle" font-family="Arial" font-size="11" fill="white">7</text>
<rect x="420.0" y="170" width="213.75" height="30" fill="#f7f7f7" stroke="white" stroke-width="1"/>
<text x="526.875" y="190" text-anchor="middle" font-family="Arial" font-size="11" fill="#111">9</text>
<rect x="633.75" y="170" width="166.25" height="30" fill="#67a9cf" stroke="white" stroke-width="1"/>
<text x="716.875" y="190" text-anchor="middle" font-family="Arial" font-size="11" fill="white">7</text>
<rect x="800.0" y="170" width="190.0" height="30" fill="#2166ac" stroke="white" stroke-width="1"/>
<text x="895.0" y="190" text-anchor="middle" font-family="Arial" font-size="11" fill="white">8</text>
<rect x="230" y="170" width="760" height="30" fill="none" stroke="#333" stroke-width="0.7"/>
<text x="998" y="190" font-family="Arial" font-size="12">n=32</text>
<text x="218" y="240" text-anchor="end" font-family="Arial" font-size="13">Repair</text>
<rect x="230" y="220" width="48.10126582278481" height="30" fill="#b2182b" stroke="white" stroke-width="1"/>
<text x="254.0506329113924" y="240" text-anchor="middle" font-family="Arial" font-size="11" fill="white">5</text>
<rect x="278.1012658227848" y="220" width="48.10126582278481" height="30" fill="#ef8a62" stroke="white" stroke-width="1"/>
<text x="302.1518987341772" y="240" text-anchor="middle" font-family="Arial" font-size="11" fill="white">5</text>
<rect x="326.2025316455696" y="220" width="173.1645569620253" height="30" fill="#f7f7f7" stroke="white" stroke-width="1"/>
<text x="412.7848101265822" y="240" text-anchor="middle" font-family="Arial" font-size="11" fill="#111">18</text>
<rect x="499.3670886075949" y="220" width="211.64556962025316" height="30" fill="#67a9cf" stroke="white" stroke-width="1"/>
<text x="605.1898734177215" y="240" text-anchor="middle" font-family="Arial" font-size="11" fill="white">22</text>
<rect x="711.0126582278481" y="220" width="278.9873417721519" height="30" fill="#2166ac" stroke="white" stroke-width="1"/>
<text x="850.506329113924" y="240" text-anchor="middle" font-family="Arial" font-size="11" fill="white">29</text>
<rect x="230" y="220" width="760" height="30" fill="none" stroke="#333" stroke-width="0.7"/>
<text x="998" y="240" font-family="Arial" font-size="12">n=79</text>
<line x1="230.0" y1="62" x2="230.0" y2="305" stroke="#ddd" stroke-width="0.8"/>
<text x="230.0" y="330" text-anchor="middle" font-family="Arial" font-size="12">0%</text>
<line x1="420.0" y1="62" x2="420.0" y2="305" stroke="#ddd" stroke-width="0.8"/>
<text x="420.0" y="330" text-anchor="middle" font-family="Arial" font-size="12">25%</text>
<line x1="610.0" y1="62" x2="610.0" y2="305" stroke="#ddd" stroke-width="0.8"/>
<text x="610.0" y="330" text-anchor="middle" font-family="Arial" font-size="12">50%</text>
<line x1="800.0" y1="62" x2="800.0" y2="305" stroke="#ddd" stroke-width="0.8"/>
<text x="800.0" y="330" text-anchor="middle" font-family="Arial" font-size="12">75%</text>
<line x1="990.0" y1="62" x2="990.0" y2="305" stroke="#ddd" stroke-width="0.8"/>
<text x="990.0" y="330" text-anchor="middle" font-family="Arial" font-size="12">100%</text>
</svg>