<svg xmlns="http://www.w3.org/2000/svg" width="1050" height="360" viewBox="0 0 1050 360">
<rect width="100%" height="100%" fill="white"/>
<text x="525.0" y="28" text-anchor="middle" font-family="Arial" font-size="20" font-weight="700">Terminology Distribution by method</text>
<rect x="230" y="44" width="16" height="16" fill="#b2182b" stroke="#444" stroke-width="0.5"/>
<text x="252" y="57" font-family="Arial" font-size="12">Score 1</text>
<rect x="335" y="44" width="16" height="16" fill="#ef8a62" stroke="#444" stroke-width="0.5"/>
<text x="357" y="57" font-family="Arial" font-size="12">Score 2</text>
<rect x="440" y="44" width="16" height="16" fill="#f7f7f7" stroke="#444" stroke-width="0.5"/>
<text x="462" y="57" font-family="Arial" font-size="12">Score 3</text>
<rect x="545" y="44" width="16" height="16" fill="#67a9cf" stroke="#444" stroke-width="0.5"/>
<text x="567" y="57" font-family="Arial" font-size="12">Score 4</text>
<rect x="650" y="44" width="16" height="16" fill="#2166ac" stroke="#444" stroke-width="0.5"/>
<text x="672" y="57" font-family="Arial" font-size="12">Score 5</text>
<text x="218" y="90" text-anchor="end" font-family="Arial" font-size="13">Few-shot</text>
<rect x="230.0" y="70" width="61.62162162162163" height="30" fill="#f7f7f7" stroke="white" stroke-width="1"/>
<text x="260.81081081081084" y="90" text-anchor="middle" font-family="Arial" font-size="11" fill="#111">3</text>
<rect x="291.6216216216216" y="70" width="205.40540540540542" height="30" fill="#67a9cf" stroke="white" stroke-width="1"/>
<text x="394.3243243243243" y="90" text-anchor="middle" font-family="Arial" font-size="11" fill="white">10</text>
<rect x="497.02702702702703" y="70" width="492.972972972973" height="30" fill="#2166ac" stroke="white" stroke-width="1"/>
<text x="743.5135135135135" y="90" text-anchor="middle" font-family="Arial" font-size="11" fill="white">24</text>
<rect x="230" y="70" width="760" height="30" fill="none" stroke="#333" stroke-width="0.7"/>
<text x="998" y="90" font-family="Arial" font-size="12">n=37</text>
<text x="218" y="140" text-anchor="end" font-family="Arial" font-size="13">One-shot</text>
<rect x="230.0" y="120" width="295.55555555555554" height="30" fill="#f7f7f7" stroke="white" stroke-width="1"/>
<text x="377.77777777777777" y="140" text-anchor="middle" font-family="Arial" font-size="11" fill="#111">7</text>
<rect x="525.5555555555555" y="120" width="211.11111111111111" height="30" fill="#67a9cf" stroke="white" stroke-width="1"/>
<text x="631.1111111111111" y="140" text-anchor="middle" font-family="Arial" font-size="11" fill="white">5</text>
<rect x="736.6666666666666" y="120" width="253.33333333333331" height="30" fill="#2166ac" stroke="white" stroke-width="1"/>
<text x="863.3333333333333" y="140" text-anchor="middle" font-family="Arial" font-size="11" fill="white">6</text>
<rect x="230" y="120" width="760" height="30" fill="none" stroke="#333" stroke-width="0.7"/>
<text x="998" y="140" font-family="Arial" font-size="12">n=18</text>
<text x="218" y="190" text-anchor="end" font-family="Arial" font-size="13">RAG</text>
<rect x="230.0" y="170" width="95.0" height="30" fill="#ef8a62" stroke="white" stroke-width="1"/>
<text x="277.5" y="190" text-anchor="middle" font-family="Arial" font-size="11" fill="white">4</text>
<rect x="325.0" y="170" width="118.75" height="30" fill="#f7f7f7" stroke="white" stroke-width="1"/>
<text x="384.375" y="190" text-anchor="middle" font-family="Arial" font-size="11" fill="#111">5</text>
<rect x="443.75" y="170" width="166.25" height="30" fill="#67a9cf" stroke="white" stroke-width="1"/>
<text x="526.875" y="190" text-anchor="middle" font-family="Arial" font-size="11" fill="white">7</text>
<rect x="610.0" y="170" width="380.0" height="30" fill="#2166ac" stroke="white" stroke-width="1"/>
<text x="800.0" y="190" text-anchor="middle" font-family="Arial" font-size="11" fill="white">16</text>
<rect x="230" y="170" width="760" height="30" fill="none" stroke="#333" stroke-width="0.7"/>
<text x="998" y="190" font-family="Arial" font-size="12">n=32</text>
<text x="218" y="240" text-anchor="end" font-family="Arial" font-size="13">Repair</text>
<rect x="230" y="220" width="38.48101265822785" height="30" fill="#b2182b" stroke="white" stroke-width="1"/>
<rect x="268.4810126582278" y="220" width="9.620253164556962" height="30" fill="#ef8a62" stroke="white" stroke-width="1"/>
<rect x="278.1012658227848" y="220" width="96.20253164556962" height="30" fill="#f7f7f7" stroke="white" stroke-width="1"/>
<text x="326.2025316455696" y="240" text-anchor="middle" font-family="Arial" font-size="11" fill="#111">10</text>
<rect x="374.30379746835445" y="220" width="192.40506329113924" height="30" fill="#67a9cf" stroke="white" stroke-width="1"/>
<text x="470.50632911392404" y="240" text-anchor="middle" font-family="Arial" font-size="11" fill="white">20</text>
<rect x="566.7088607594937" y="220" width="423.2911392405063" height="30" fill="#2166ac" stroke="white" stroke-width="1"/>
<text x="778.3544303797469" y="240" text-anchor="middle" font-family="Arial" font-size="11" fill="white">44</text>
<rect x="230" y="220" width="760" height="30" fill="none" stroke="#333" stroke-width="0.7"/>
<text x="998" y="240" font-family="Arial" font-size="12">n=79</text>
<line x1="230.0" y1="62" x2="230.0" y2="305" stroke="#ddd" stroke-width="0.8"/>
<text x="230.0" y="330" text-anchor="middle" font-family="Arial" font-size="12">0%</text>
<line x1="420.0" y1="62" x2="420.0" y2="305" stroke="#ddd" stroke-width="0.8"/>
<text x="420.0" y="330" text-anchor="middle" font-family="Arial" font-size="12">25%</text>
<line x1="610.0" y1="62" x2="610.0" y2="305" stroke="#ddd" stroke-width="0.8"/>
<text x="610.0" y="330" text-anchor="middle" font-family="Arial" font-size="12">50%</text>
<line x1="800.0" y1="62" x2="800.0" y2="305" stroke="#ddd" stroke-width="0.8"/>
<text x="800.0" y="330" text-anchor="middle" font-family="Arial" font-size="12">75%</text>
<line x1="990.0" y1="62" x2="990.0" y2="305" stroke="#ddd" stroke-width="0.8"/>
<text x="990.0" y="330" text-anchor="middle" font-family="Arial" font-size="12">100%</text>
</svg>