<svg xmlns="http://www.w3.org/2000/svg" width="1050" height="360" viewBox="0 0 1050 360">
<rect width="100%" height="100%" fill="white"/>
<text x="525.0" y="28" text-anchor="middle" font-family="Arial" font-size="20" font-weight="700">Understand. Distribution by llm_used</text>
<rect x="230" y="44" width="16" height="16" fill="#b2182b" stroke="#444" stroke-width="0.5"/>
<text x="252" y="57" font-family="Arial" font-size="12">Score 1</text>
<rect x="335" y="44" width="16" height="16" fill="#ef8a62" stroke="#444" stroke-width="0.5"/>
<text x="357" y="57" font-family="Arial" font-size="12">Score 2</text>
<rect x="440" y="44" width="16" height="16" fill="#f7f7f7" stroke="#444" stroke-width="0.5"/>
<text x="462" y="57" font-family="Arial" font-size="12">Score 3</text>
<rect x="545" y="44" width="16" height="16" fill="#67a9cf" stroke="#444" stroke-width="0.5"/>
<text x="567" y="57" font-family="Arial" font-size="12">Score 4</text>
<rect x="650" y="44" width="16" height="16" fill="#2166ac" stroke="#444" stroke-width="0.5"/>
<text x="672" y="57" font-family="Arial" font-size="12">Score 5</text>
<text x="218" y="90" text-anchor="end" font-family="Arial" font-size="13">DeepSeek</text>
<rect x="230" y="70" width="36.19047619047619" height="30" fill="#b2182b" stroke="white" stroke-width="1"/>
<rect x="266.1904761904762" y="70" width="48.25396825396825" height="30" fill="#ef8a62" stroke="white" stroke-width="1"/>
<text x="290.31746031746036" y="90" text-anchor="middle" font-family="Arial" font-size="11" fill="white">4</text>
<rect x="314.44444444444446" y="70" width="96.5079365079365" height="30" fill="#f7f7f7" stroke="white" stroke-width="1"/>
<text x="362.6984126984127" y="90" text-anchor="middle" font-family="Arial" font-size="11" fill="#111">8</text>
<rect x="410.95238095238096" y="70" width="108.57142857142857" height="30" fill="#67a9cf" stroke="white" stroke-width="1"/>
<text x="465.23809523809524" y="90" text-anchor="middle" font-family="Arial" font-size="11" fill="white">9</text>
<rect x="519.5238095238095" y="70" width="470.4761904761905" height="30" fill="#2166ac" stroke="white" stroke-width="1"/>
<text x="754.7619047619048" y="90" text-anchor="middle" font-family="Arial" font-size="11" fill="white">39</text>
<rect x="230" y="70" width="760" height="30" fill="none" stroke="#333" stroke-width="0.7"/>
<text x="998" y="90" font-family="Arial" font-size="12">n=63</text>
<text x="218" y="140" text-anchor="end" font-family="Arial" font-size="13">Llama</text>
<rect x="230" y="120" width="29.230769230769234" height="30" fill="#b2182b" stroke="white" stroke-width="1"/>
<rect x="259.2307692307692" y="120" width="29.230769230769234" height="30" fill="#ef8a62" stroke="white" stroke-width="1"/>
<rect x="288.46153846153845" y="120" width="58.46153846153847" height="30" fill="#f7f7f7" stroke="white" stroke-width="1"/>
<text x="317.6923076923077" y="140" text-anchor="middle" font-family="Arial" font-size="11" fill="#111">4</text>
<rect x="346.9230769230769" y="120" width="175.3846153846154" height="30" fill="#67a9cf" stroke="white" stroke-width="1"/>
<text x="434.6153846153846" y="140" text-anchor="middle" font-family="Arial" font-size="11" fill="white">12</text>
<rect x="522.3076923076923" y="120" width="467.69230769230774" height="30" fill="#2166ac" stroke="white" stroke-width="1"/>
<text x="756.1538461538462" y="140" text-anchor="middle" font-family="Arial" font-size="11" fill="white">32</text>
<rect x="230" y="120" width="760" height="30" fill="none" stroke="#333" stroke-width="0.7"/>
<text x="998" y="140" font-family="Arial" font-size="12">n=52</text>
<text x="218" y="190" text-anchor="end" font-family="Arial" font-size="13">Mistral</text>
<rect x="230.0" y="170" width="33.04347826086956" height="30" fill="#ef8a62" stroke="white" stroke-width="1"/>
<rect x="263.04347826086956" y="170" width="33.04347826086956" height="30" fill="#f7f7f7" stroke="white" stroke-width="1"/>
<rect x="296.0869565217391" y="170" width="231.30434782608697" height="30" fill="#67a9cf" stroke="white" stroke-width="1"/>
<text x="411.7391304347826" y="190" text-anchor="middle" font-family="Arial" font-size="11" fill="white">7</text>
<rect x="527.3913043478261" y="170" width="462.60869565217394" height="30" fill="#2166ac" stroke="white" stroke-width="1"/>
<text x="758.6956521739131" y="190" text-anchor="middle" font-family="Arial" font-size="11" fill="white">14</text>
<rect x="230" y="170" width="760" height="30" fill="none" stroke="#333" stroke-width="0.7"/>
<text x="998" y="190" font-family="Arial" font-size="12">n=23</text>
<text x="218" y="240" text-anchor="end" font-family="Arial" font-size="13">Qwen</text>
<rect x="230" y="220" width="27.142857142857142" height="30" fill="#b2182b" stroke="white" stroke-width="1"/>
<rect x="257.14285714285717" y="220" width="135.71428571428572" height="30" fill="#ef8a62" stroke="white" stroke-width="1"/>
<text x="325.0" y="240" text-anchor="middle" font-family="Arial" font-size="11" fill="white">5</text>
<rect x="392.8571428571429" y="220" width="244.2857142857143" height="30" fill="#f7f7f7" stroke="white" stroke-width="1"/>
<text x="515.0" y="240" text-anchor="middle" font-family="Arial" font-size="11" fill="#111">9</text>
<rect x="637.1428571428572" y="220" width="54.285714285714285" height="30" fill="#67a9cf" stroke="white" stroke-width="1"/>
<text x="664.2857142857143" y="240" text-anchor="middle" font-family="Arial" font-size="11" fill="white">2</text>
<rect x="691.4285714285716" y="220" width="298.57142857142856" height="30" fill="#2166ac" stroke="white" stroke-width="1"/>
<text x="840.7142857142858" y="240" text-anchor="middle" font-family="Arial" font-size="11" fill="white">11</text>
<rect x="230" y="220" width="760" height="30" fill="none" stroke="#333" stroke-width="0.7"/>
<text x="998" y="240" font-family="Arial" font-size="12">n=28</text>
<line x1="230.0" y1="62" x2="230.0" y2="305" stroke="#ddd" stroke-width="0.8"/>
<text x="230.0" y="330" text-anchor="middle" font-family="Arial" font-size="12">0%</text>
<line x1="420.0" y1="62" x2="420.0" y2="305" stroke="#ddd" stroke-width="0.8"/>
<text x="420.0" y="330" text-anchor="middle" font-family="Arial" font-size="12">25%</text>
<line x1="610.0" y1="62" x2="610.0" y2="305" stroke="#ddd" stroke-width="0.8"/>
<text x="610.0" y="330" text-anchor="middle" font-family="Arial" font-size="12">50%</text>
<line x1="800.0" y1="62" x2="800.0" y2="305" stroke="#ddd" stroke-width="0.8"/>
<text x="800.0" y="330" text-anchor="middle" font-family="Arial" font-size="12">75%</text>
<line x1="990.0" y1="62" x2="990.0" y2="305" stroke="#ddd" stroke-width="0.8"/>
<text x="990.0" y="330" text-anchor="middle" font-family="Arial" font-size="12">100%</text>
</svg>