<svg xmlns="http://www.w3.org/2000/svg" width="1050" height="360" viewBox="0 0 1050 360">
<rect width="100%" height="100%" fill="white"/>
<text x="525.0" y="28" text-anchor="middle" font-family="Arial" font-size="20" font-weight="700">Understand. Distribution by method</text>
<rect x="230" y="44" width="16" height="16" fill="#b2182b" stroke="#444" stroke-width="0.5"/>
<text x="252" y="57" font-family="Arial" font-size="12">Score 1</text>
<rect x="335" y="44" width="16" height="16" fill="#ef8a62" stroke="#444" stroke-width="0.5"/>
<text x="357" y="57" font-family="Arial" font-size="12">Score 2</text>
<rect x="440" y="44" width="16" height="16" fill="#f7f7f7" stroke="#444" stroke-width="0.5"/>
<text x="462" y="57" font-family="Arial" font-size="12">Score 3</text>
<rect x="545" y="44" width="16" height="16" fill="#67a9cf" stroke="#444" stroke-width="0.5"/>
<text x="567" y="57" font-family="Arial" font-size="12">Score 4</text>
<rect x="650" y="44" width="16" height="16" fill="#2166ac" stroke="#444" stroke-width="0.5"/>
<text x="672" y="57" font-family="Arial" font-size="12">Score 5</text>
<text x="218" y="90" text-anchor="end" font-family="Arial" font-size="13">Few-shot</text>
<rect x="230.0" y="70" width="20.54054054054054" height="30" fill="#ef8a62" stroke="white" stroke-width="1"/>
<rect x="250.54054054054055" y="70" width="20.54054054054054" height="30" fill="#f7f7f7" stroke="white" stroke-width="1"/>
<rect x="271.0810810810811" y="70" width="184.86486486486487" height="30" fill="#67a9cf" stroke="white" stroke-width="1"/>
<text x="363.51351351351354" y="90" text-anchor="middle" font-family="Arial" font-size="11" fill="white">9</text>
<rect x="455.94594594594594" y="70" width="534.0540540540541" height="30" fill="#2166ac" stroke="white" stroke-width="1"/>
<text x="722.9729729729729" y="90" text-anchor="middle" font-family="Arial" font-size="11" fill="white">26</text>
<rect x="230" y="70" width="760" height="30" fill="none" stroke="#333" stroke-width="0.7"/>
<text x="998" y="90" font-family="Arial" font-size="12">n=37</text>
<text x="218" y="140" text-anchor="end" font-family="Arial" font-size="13">One-shot</text>
<rect x="230.0" y="120" width="126.66666666666666" height="30" fill="#ef8a62" stroke="white" stroke-width="1"/>
<text x="293.3333333333333" y="140" text-anchor="middle" font-family="Arial" font-size="11" fill="white">3</text>
<rect x="356.66666666666663" y="120" width="211.11111111111111" height="30" fill="#f7f7f7" stroke="white" stroke-width="1"/>
<text x="462.2222222222222" y="140" text-anchor="middle" font-family="Arial" font-size="11" fill="#111">5</text>
<rect x="567.7777777777777" y="120" width="126.66666666666666" height="30" fill="#67a9cf" stroke="white" stroke-width="1"/>
<text x="631.1111111111111" y="140" text-anchor="middle" font-family="Arial" font-size="11" fill="white">3</text>
<rect x="694.4444444444443" y="120" width="295.55555555555554" height="30" fill="#2166ac" stroke="white" stroke-width="1"/>
<text x="842.2222222222222" y="140" text-anchor="middle" font-family="Arial" font-size="11" fill="white">7</text>
<rect x="230" y="120" width="760" height="30" fill="none" stroke="#333" stroke-width="0.7"/>
<text x="998" y="140" font-family="Arial" font-size="12">n=18</text>
<text x="218" y="190" text-anchor="end" font-family="Arial" font-size="13">RAG</text>
<rect x="230" y="170" width="47.5" height="30" fill="#b2182b" stroke="white" stroke-width="1"/>
<text x="253.75" y="190" text-anchor="middle" font-family="Arial" font-size="11" fill="white">2</text>
<rect x="277.5" y="170" width="95.0" height="30" fill="#f7f7f7" stroke="white" stroke-width="1"/>
<text x="325.0" y="190" text-anchor="middle" font-family="Arial" font-size="11" fill="#111">4</text>
<rect x="372.5" y="170" width="190.0" height="30" fill="#67a9cf" stroke="white" stroke-width="1"/>
<text x="467.5" y="190" text-anchor="middle" font-family="Arial" font-size="11" fill="white">8</text>
<rect x="562.5" y="170" width="427.5" height="30" fill="#2166ac" stroke="white" stroke-width="1"/>
<text x="776.25" y="190" text-anchor="middle" font-family="Arial" font-size="11" fill="white">18</text>
<rect x="230" y="170" width="760" height="30" fill="none" stroke="#333" stroke-width="0.7"/>
<text x="998" y="190" font-family="Arial" font-size="12">n=32</text>
<text x="218" y="240" text-anchor="end" font-family="Arial" font-size="13">Repair</text>
<rect x="230" y="220" width="38.48101265822785" height="30" fill="#b2182b" stroke="white" stroke-width="1"/>
<rect x="268.4810126582278" y="220" width="76.9620253164557" height="30" fill="#ef8a62" stroke="white" stroke-width="1"/>
<text x="306.96202531645565" y="240" text-anchor="middle" font-family="Arial" font-size="11" fill="white">8</text>
<rect x="345.44303797468353" y="220" width="115.44303797468355" height="30" fill="#f7f7f7" stroke="white" stroke-width="1"/>
<text x="403.1645569620253" y="240" text-anchor="middle" font-family="Arial" font-size="11" fill="#111">12</text>
<rect x="460.88607594936707" y="220" width="96.20253164556962" height="30" fill="#67a9cf" stroke="white" stroke-width="1"/>
<text x="508.98734177215186" y="240" text-anchor="middle" font-family="Arial" font-size="11" fill="white">10</text>
<rect x="557.0886075949367" y="220" width="432.91139240506334" height="30" fill="#2166ac" stroke="white" stroke-width="1"/>
<text x="773.5443037974683" y="240" text-anchor="middle" font-family="Arial" font-size="11" fill="white">45</text>
<rect x="230" y="220" width="760" height="30" fill="none" stroke="#333" stroke-width="0.7"/>
<text x="998" y="240" font-family="Arial" font-size="12">n=79</text>
<line x1="230.0" y1="62" x2="230.0" y2="305" stroke="#ddd" stroke-width="0.8"/>
<text x="230.0" y="330" text-anchor="middle" font-family="Arial" font-size="12">0%</text>
<line x1="420.0" y1="62" x2="420.0" y2="305" stroke="#ddd" stroke-width="0.8"/>
<text x="420.0" y="330" text-anchor="middle" font-family="Arial" font-size="12">25%</text>
<line x1="610.0" y1="62" x2="610.0" y2="305" stroke="#ddd" stroke-width="0.8"/>
<text x="610.0" y="330" text-anchor="middle" font-family="Arial" font-size="12">50%</text>
<line x1="800.0" y1="62" x2="800.0" y2="305" stroke="#ddd" stroke-width="0.8"/>
<text x="800.0" y="330" text-anchor="middle" font-family="Arial" font-size="12">75%</text>
<line x1="990.0" y1="62" x2="990.0" y2="305" stroke="#ddd" stroke-width="0.8"/>
<text x="990.0" y="330" text-anchor="middle" font-family="Arial" font-size="12">100%</text>
</svg>