<svg xmlns="http://www.w3.org/2000/svg" width="1500" height="760" viewBox="0 0 1500 760">
<style>
text { font-family: Arial, Helvetica, sans-serif; fill: #222; }
.title { font-size: 24px; font-weight: 700; }
.subtitle { font-size: 13px; fill: #555; }
.axis { stroke: #333; stroke-width: 1.1; }
.grid { stroke: #ddd; stroke-width: 1; }
.tick { font-size: 11px; fill: #555; }
.panel { font-size: 16px; font-weight: 700; }
.model { font-size: 10px; font-weight: 700; }
.value { font-size: 9px; fill: #222; }
.legend { font-size: 12px; }
</style>
<rect width="100%" height="100%" fill="#fff"/>
<text class="title" x="86" y="34">PlantUML Structural Validity by Diagram Difficulty Without Ensemble</text>
<text class="subtitle" x="86" y="56">Grouped bars for simple, medium, and complex diagrams.</text>
<text class="tick" x="74" y="666.0" text-anchor="end">0%</text>
<text class="tick" x="74" y="552.8" text-anchor="end">20%</text>
<text class="tick" x="74" y="439.6" text-anchor="end">40%</text>
<text class="tick" x="74" y="326.4" text-anchor="end">60%</text>
<text class="tick" x="74" y="213.2" text-anchor="end">80%</text>
<text class="tick" x="74" y="100.0" text-anchor="end">100%</text>
<text class="panel" x="298.7" y="82" text-anchor="middle">Simple</text>
<line class="grid" x1="86.0" y1="662.0" x2="511.3333333333333" y2="662.0"/>
<line class="grid" x1="86.0" y1="548.8" x2="511.3333333333333" y2="548.8"/>
<line class="grid" x1="86.0" y1="435.6" x2="511.3333333333333" y2="435.6"/>
<line class="grid" x1="86.0" y1="322.4" x2="511.3333333333333" y2="322.4"/>
<line class="grid" x1="86.0" y1="209.2" x2="511.3333333333333" y2="209.2"/>
<line class="grid" x1="86.0" y1="96.0" x2="511.3333333333333" y2="96.0"/>
<line class="axis" x1="86.0" y1="96" x2="86.0" y2="662"/>
<line class="axis" x1="86.0" y1="662" x2="511.3333333333333" y2="662"/>
<rect x="86.0" y="419.4" width="13.7" height="242.6" rx="2" fill="#4E79A7"><title>DeepSeek R1 14B | Zero-shot | simple: 42.86% (3/7)</title></rect>
<text class="value" x="92.8" y="415.4" text-anchor="middle">43</text>
<rect x="104.7" y="176.9" width="13.7" height="485.1" rx="2" fill="#59A14F"><title>DeepSeek R1 14B | One-shot | simple: 85.71% (6/7)</title></rect>
<text class="value" x="111.5" y="172.9" text-anchor="middle">86</text>
<rect x="123.3" y="176.9" width="13.7" height="485.1" rx="2" fill="#F28E2B"><title>DeepSeek R1 14B | Few-shot | simple: 85.71% (6/7)</title></rect>
<text class="value" x="130.2" y="172.9" text-anchor="middle">86</text>
<rect x="142.0" y="176.9" width="13.7" height="485.1" rx="2" fill="#76B7B2"><title>DeepSeek R1 14B | RAG | simple: 85.71% (6/7)</title></rect>
<text class="value" x="148.8" y="172.9" text-anchor="middle">86</text>
<rect x="160.7" y="176.9" width="13.7" height="485.1" rx="2" fill="#E15759"><title>DeepSeek R1 14B | RAG + Repair | simple: 85.71% (6/7)</title></rect>
<text class="value" x="167.5" y="172.9" text-anchor="middle">86</text>
<text class="model" x="130.2" y="684" text-anchor="middle">DeepSeek R1 14B</text>
<rect x="198.3" y="419.4" width="13.7" height="242.6" rx="2" fill="#4E79A7"><title>Llama 3.1 8B Instruct | Zero-shot | simple: 42.86% (3/7)</title></rect>
<text class="value" x="205.2" y="415.4" text-anchor="middle">43</text>
<rect x="217.0" y="96.0" width="13.7" height="566.0" rx="2" fill="#59A14F"><title>Llama 3.1 8B Instruct | One-shot | simple: 100.00% (7/7)</title></rect>
<text class="value" x="223.8" y="92.0" text-anchor="middle">100</text>
<rect x="235.7" y="96.0" width="13.7" height="566.0" rx="2" fill="#F28E2B"><title>Llama 3.1 8B Instruct | Few-shot | simple: 100.00% (7/7)</title></rect>
<text class="value" x="242.5" y="92.0" text-anchor="middle">100</text>
<rect x="254.3" y="96.0" width="13.7" height="566.0" rx="2" fill="#76B7B2"><title>Llama 3.1 8B Instruct | RAG | simple: 100.00% (7/7)</title></rect>
<text class="value" x="261.2" y="92.0" text-anchor="middle">100</text>
<rect x="273.0" y="96.0" width="13.7" height="566.0" rx="2" fill="#E15759"><title>Llama 3.1 8B Instruct | RAG + Repair | simple: 100.00% (7/7)</title></rect>
<text class="value" x="279.8" y="92.0" text-anchor="middle">100</text>
<text class="model" x="242.5" y="684" text-anchor="middle">Llama 3.1 8B Instruct</text>
<rect x="310.7" y="662.0" width="13.7" height="0.0" rx="2" fill="#4E79A7"><title>Mistral | Zero-shot | simple: 0.00% (0/7)</title></rect>
<rect x="329.3" y="257.7" width="13.7" height="404.3" rx="2" fill="#59A14F"><title>Mistral | One-shot | simple: 71.43% (5/7)</title></rect>
<text class="value" x="336.2" y="253.7" text-anchor="middle">71</text>
<rect x="348.0" y="96.0" width="13.7" height="566.0" rx="2" fill="#F28E2B"><title>Mistral | Few-shot | simple: 100.00% (7/7)</title></rect>
<text class="value" x="354.8" y="92.0" text-anchor="middle">100</text>
<rect x="366.7" y="176.9" width="13.7" height="485.1" rx="2" fill="#76B7B2"><title>Mistral | RAG | simple: 85.71% (6/7)</title></rect>
<text class="value" x="373.5" y="172.9" text-anchor="middle">86</text>
<rect x="385.3" y="662.0" width="13.7" height="0.0" rx="2" fill="#E15759"><title>Mistral | RAG + Repair | simple: 0.00% (0/0)</title></rect>
<text class="model" x="354.8" y="684" text-anchor="middle">Mistral</text>
<rect x="423.0" y="500.3" width="13.7" height="161.7" rx="2" fill="#4E79A7"><title>Qwen 2.5 7B Instruct | Zero-shot | simple: 28.57% (2/7)</title></rect>
<text class="value" x="429.8" y="496.3" text-anchor="middle">29</text>
<rect x="441.7" y="176.9" width="13.7" height="485.1" rx="2" fill="#59A14F"><title>Qwen 2.5 7B Instruct | One-shot | simple: 85.71% (6/7)</title></rect>
<text class="value" x="448.5" y="172.9" text-anchor="middle">86</text>
<rect x="460.3" y="96.0" width="13.7" height="566.0" rx="2" fill="#F28E2B"><title>Qwen 2.5 7B Instruct | Few-shot | simple: 100.00% (7/7)</title></rect>
<text class="value" x="467.2" y="92.0" text-anchor="middle">100</text>
<rect x="479.0" y="96.0" width="13.7" height="566.0" rx="2" fill="#76B7B2"><title>Qwen 2.5 7B Instruct | RAG | simple: 100.00% (7/7)</title></rect>
<text class="value" x="485.8" y="92.0" text-anchor="middle">100</text>
<rect x="497.7" y="96.0" width="13.7" height="566.0" rx="2" fill="#E15759"><title>Qwen 2.5 7B Instruct | RAG + Repair | simple: 100.00% (7/7)</title></rect>
<text class="value" x="504.5" y="92.0" text-anchor="middle">100</text>
<text class="model" x="467.2" y="684" text-anchor="middle">Qwen 2.5 7B Instruct</text>
<text class="panel" x="776.0" y="82" text-anchor="middle">Medium</text>
<line class="grid" x1="563.3333333333333" y1="662.0" x2="988.6666666666665" y2="662.0"/>
<line class="grid" x1="563.3333333333333" y1="548.8" x2="988.6666666666665" y2="548.8"/>
<line class="grid" x1="563.3333333333333" y1="435.6" x2="988.6666666666665" y2="435.6"/>
<line class="grid" x1="563.3333333333333" y1="322.4" x2="988.6666666666665" y2="322.4"/>
<line class="grid" x1="563.3333333333333" y1="209.2" x2="988.6666666666665" y2="209.2"/>
<line class="grid" x1="563.3333333333333" y1="96.0" x2="988.6666666666665" y2="96.0"/>
<line class="axis" x1="563.3333333333333" y1="96" x2="563.3333333333333" y2="662"/>
<line class="axis" x1="563.3333333333333" y1="662" x2="988.6666666666665" y2="662"/>
<rect x="563.3" y="298.1" width="13.7" height="363.9" rx="2" fill="#4E79A7"><title>DeepSeek R1 14B | Zero-shot | medium: 64.29% (9/14)</title></rect>
<text class="value" x="570.2" y="294.1" text-anchor="middle">64</text>
<rect x="582.0" y="136.4" width="13.7" height="525.6" rx="2" fill="#59A14F"><title>DeepSeek R1 14B | One-shot | medium: 92.86% (13/14)</title></rect>
<text class="value" x="588.8" y="132.4" text-anchor="middle">93</text>
<rect x="600.7" y="136.4" width="13.7" height="525.6" rx="2" fill="#F28E2B"><title>DeepSeek R1 14B | Few-shot | medium: 92.86% (13/14)</title></rect>
<text class="value" x="607.5" y="132.4" text-anchor="middle">93</text>
<rect x="619.3" y="136.4" width="13.7" height="525.6" rx="2" fill="#76B7B2"><title>DeepSeek R1 14B | RAG | medium: 92.86% (13/14)</title></rect>
<text class="value" x="626.2" y="132.4" text-anchor="middle">93</text>
<rect x="638.0" y="136.4" width="13.7" height="525.6" rx="2" fill="#E15759"><title>DeepSeek R1 14B | RAG + Repair | medium: 92.86% (13/14)</title></rect>
<text class="value" x="644.8" y="132.4" text-anchor="middle">93</text>
<text class="model" x="607.5" y="684" text-anchor="middle">DeepSeek R1 14B</text>
<rect x="675.7" y="540.7" width="13.7" height="121.3" rx="2" fill="#4E79A7"><title>Llama 3.1 8B Instruct | Zero-shot | medium: 21.43% (3/14)</title></rect>
<text class="value" x="682.5" y="536.7" text-anchor="middle">21</text>
<rect x="694.3" y="96.0" width="13.7" height="566.0" rx="2" fill="#59A14F"><title>Llama 3.1 8B Instruct | One-shot | medium: 100.00% (14/14)</title></rect>
<text class="value" x="701.2" y="92.0" text-anchor="middle">100</text>
<rect x="713.0" y="136.4" width="13.7" height="525.6" rx="2" fill="#F28E2B"><title>Llama 3.1 8B Instruct | Few-shot | medium: 92.86% (13/14)</title></rect>
<text class="value" x="719.8" y="132.4" text-anchor="middle">93</text>
<rect x="731.7" y="96.0" width="13.7" height="566.0" rx="2" fill="#76B7B2"><title>Llama 3.1 8B Instruct | RAG | medium: 100.00% (14/14)</title></rect>
<text class="value" x="738.5" y="92.0" text-anchor="middle">100</text>
<rect x="750.3" y="136.4" width="13.7" height="525.6" rx="2" fill="#E15759"><title>Llama 3.1 8B Instruct | RAG + Repair | medium: 92.86% (13/14)</title></rect>
<text class="value" x="757.2" y="132.4" text-anchor="middle">93</text>
<text class="model" x="719.8" y="684" text-anchor="middle">Llama 3.1 8B Instruct</text>
<rect x="788.0" y="621.6" width="13.7" height="40.4" rx="2" fill="#4E79A7"><title>Mistral | Zero-shot | medium: 7.14% (1/14)</title></rect>
<text class="value" x="794.8" y="617.6" text-anchor="middle">7</text>
<rect x="806.7" y="176.9" width="13.7" height="485.1" rx="2" fill="#59A14F"><title>Mistral | One-shot | medium: 85.71% (12/14)</title></rect>
<text class="value" x="813.5" y="172.9" text-anchor="middle">86</text>
<rect x="825.3" y="96.0" width="13.7" height="566.0" rx="2" fill="#F28E2B"><title>Mistral | Few-shot | medium: 100.00% (14/14)</title></rect>
<text class="value" x="832.2" y="92.0" text-anchor="middle">100</text>
<rect x="844.0" y="257.7" width="13.7" height="404.3" rx="2" fill="#76B7B2"><title>Mistral | RAG | medium: 71.43% (10/14)</title></rect>
<text class="value" x="850.8" y="253.7" text-anchor="middle">71</text>
<rect x="862.7" y="662.0" width="13.7" height="0.0" rx="2" fill="#E15759"><title>Mistral | RAG + Repair | medium: 0.00% (0/0)</title></rect>
<text class="model" x="832.2" y="684" text-anchor="middle">Mistral</text>
<rect x="900.3" y="500.3" width="13.7" height="161.7" rx="2" fill="#4E79A7"><title>Qwen 2.5 7B Instruct | Zero-shot | medium: 28.57% (4/14)</title></rect>
<text class="value" x="907.2" y="496.3" text-anchor="middle">29</text>
<rect x="919.0" y="257.7" width="13.7" height="404.3" rx="2" fill="#59A14F"><title>Qwen 2.5 7B Instruct | One-shot | medium: 71.43% (10/14)</title></rect>
<text class="value" x="925.8" y="253.7" text-anchor="middle">71</text>
<rect x="937.7" y="96.0" width="13.7" height="566.0" rx="2" fill="#F28E2B"><title>Qwen 2.5 7B Instruct | Few-shot | medium: 100.00% (14/14)</title></rect>
<text class="value" x="944.5" y="92.0" text-anchor="middle">100</text>
<rect x="956.3" y="96.0" width="13.7" height="566.0" rx="2" fill="#76B7B2"><title>Qwen 2.5 7B Instruct | RAG | medium: 100.00% (14/14)</title></rect>
<text class="value" x="963.2" y="92.0" text-anchor="middle">100</text>
<rect x="975.0" y="136.4" width="13.7" height="525.6" rx="2" fill="#E15759"><title>Qwen 2.5 7B Instruct | RAG + Repair | medium: 92.86% (13/14)</title></rect>
<text class="value" x="981.8" y="132.4" text-anchor="middle">93</text>
<text class="model" x="944.5" y="684" text-anchor="middle">Qwen 2.5 7B Instruct</text>
<text class="panel" x="1253.3" y="82" text-anchor="middle">Complex</text>
<line class="grid" x1="1040.6666666666665" y1="662.0" x2="1465.9999999999998" y2="662.0"/>
<line class="grid" x1="1040.6666666666665" y1="548.8" x2="1465.9999999999998" y2="548.8"/>
<line class="grid" x1="1040.6666666666665" y1="435.6" x2="1465.9999999999998" y2="435.6"/>
<line class="grid" x1="1040.6666666666665" y1="322.4" x2="1465.9999999999998" y2="322.4"/>
<line class="grid" x1="1040.6666666666665" y1="209.2" x2="1465.9999999999998" y2="209.2"/>
<line class="grid" x1="1040.6666666666665" y1="96.0" x2="1465.9999999999998" y2="96.0"/>
<line class="axis" x1="1040.6666666666665" y1="96" x2="1040.6666666666665" y2="662"/>
<line class="axis" x1="1040.6666666666665" y1="662" x2="1465.9999999999998" y2="662"/>
<rect x="1040.7" y="284.6" width="13.7" height="377.4" rx="2" fill="#4E79A7"><title>DeepSeek R1 14B | Zero-shot | complex: 66.67% (4/6)</title></rect>
<text class="value" x="1047.5" y="280.6" text-anchor="middle">67</text>
<rect x="1059.3" y="96.0" width="13.7" height="566.0" rx="2" fill="#59A14F"><title>DeepSeek R1 14B | One-shot | complex: 100.00% (6/6)</title></rect>
<text class="value" x="1066.2" y="92.0" text-anchor="middle">100</text>
<rect x="1078.0" y="190.4" width="13.7" height="471.6" rx="2" fill="#F28E2B"><title>DeepSeek R1 14B | Few-shot | complex: 83.33% (5/6)</title></rect>
<text class="value" x="1084.8" y="186.4" text-anchor="middle">83</text>
<rect x="1096.7" y="284.6" width="13.7" height="377.4" rx="2" fill="#76B7B2"><title>DeepSeek R1 14B | RAG | complex: 66.67% (4/6)</title></rect>
<text class="value" x="1103.5" y="280.6" text-anchor="middle">67</text>
<rect x="1115.3" y="190.4" width="13.7" height="471.6" rx="2" fill="#E15759"><title>DeepSeek R1 14B | RAG + Repair | complex: 83.33% (5/6)</title></rect>
<text class="value" x="1122.2" y="186.4" text-anchor="middle">83</text>
<text class="model" x="1084.8" y="684" text-anchor="middle">DeepSeek R1 14B</text>
<rect x="1153.0" y="473.4" width="13.7" height="188.6" rx="2" fill="#4E79A7"><title>Llama 3.1 8B Instruct | Zero-shot | complex: 33.33% (2/6)</title></rect>
<text class="value" x="1159.8" y="469.4" text-anchor="middle">33</text>
<rect x="1171.7" y="190.4" width="13.7" height="471.6" rx="2" fill="#59A14F"><title>Llama 3.1 8B Instruct | One-shot | complex: 83.33% (5/6)</title></rect>
<text class="value" x="1178.5" y="186.4" text-anchor="middle">83</text>
<rect x="1190.3" y="190.4" width="13.7" height="471.6" rx="2" fill="#F28E2B"><title>Llama 3.1 8B Instruct | Few-shot | complex: 83.33% (5/6)</title></rect>
<text class="value" x="1197.2" y="186.4" text-anchor="middle">83</text>
<rect x="1209.0" y="96.0" width="13.7" height="566.0" rx="2" fill="#76B7B2"><title>Llama 3.1 8B Instruct | RAG | complex: 100.00% (6/6)</title></rect>
<text class="value" x="1215.8" y="92.0" text-anchor="middle">100</text>
<rect x="1227.7" y="96.0" width="13.7" height="566.0" rx="2" fill="#E15759"><title>Llama 3.1 8B Instruct | RAG + Repair | complex: 100.00% (6/6)</title></rect>
<text class="value" x="1234.5" y="92.0" text-anchor="middle">100</text>
<text class="model" x="1197.2" y="684" text-anchor="middle">Llama 3.1 8B Instruct</text>
<rect x="1265.3" y="662.0" width="13.7" height="0.0" rx="2" fill="#4E79A7"><title>Mistral | Zero-shot | complex: 0.00% (0/6)</title></rect>
<rect x="1284.0" y="96.0" width="13.7" height="566.0" rx="2" fill="#59A14F"><title>Mistral | One-shot | complex: 100.00% (6/6)</title></rect>
<text class="value" x="1290.8" y="92.0" text-anchor="middle">100</text>
<rect x="1302.7" y="190.4" width="13.7" height="471.6" rx="2" fill="#F28E2B"><title>Mistral | Few-shot | complex: 83.33% (5/6)</title></rect>
<text class="value" x="1309.5" y="186.4" text-anchor="middle">83</text>
<rect x="1321.3" y="284.6" width="13.7" height="377.4" rx="2" fill="#76B7B2"><title>Mistral | RAG | complex: 66.67% (4/6)</title></rect>
<text class="value" x="1328.2" y="280.6" text-anchor="middle">67</text>
<rect x="1340.0" y="662.0" width="13.7" height="0.0" rx="2" fill="#E15759"><title>Mistral | RAG + Repair | complex: 0.00% (0/0)</title></rect>
<text class="model" x="1309.5" y="684" text-anchor="middle">Mistral</text>
<rect x="1377.7" y="662.0" width="13.7" height="0.0" rx="2" fill="#4E79A7"><title>Qwen 2.5 7B Instruct | Zero-shot | complex: 0.00% (0/6)</title></rect>
<rect x="1396.3" y="284.6" width="13.7" height="377.4" rx="2" fill="#59A14F"><title>Qwen 2.5 7B Instruct | One-shot | complex: 66.67% (4/6)</title></rect>
<text class="value" x="1403.2" y="280.6" text-anchor="middle">67</text>
<rect x="1415.0" y="190.4" width="13.7" height="471.6" rx="2" fill="#F28E2B"><title>Qwen 2.5 7B Instruct | Few-shot | complex: 83.33% (5/6)</title></rect>
<text class="value" x="1421.8" y="186.4" text-anchor="middle">83</text>
<rect x="1433.7" y="96.0" width="13.7" height="566.0" rx="2" fill="#76B7B2"><title>Qwen 2.5 7B Instruct | RAG | complex: 100.00% (6/6)</title></rect>
<text class="value" x="1440.5" y="92.0" text-anchor="middle">100</text>
<rect x="1452.3" y="96.0" width="13.7" height="566.0" rx="2" fill="#E15759"><title>Qwen 2.5 7B Instruct | RAG + Repair | complex: 100.00% (6/6)</title></rect>
<text class="value" x="1459.2" y="92.0" text-anchor="middle">100</text>
<text class="model" x="1421.8" y="684" text-anchor="middle">Qwen 2.5 7B Instruct</text>
<rect x="86" y="718" width="14" height="14" fill="#4E79A7" rx="2"/>
<text class="legend" x="106" y="730">Zero-shot</text>
<rect x="197" y="718" width="14" height="14" fill="#59A14F" rx="2"/>
<text class="legend" x="217" y="730">One-shot</text>
<rect x="301" y="718" width="14" height="14" fill="#F28E2B" rx="2"/>
<text class="legend" x="321" y="730">Few-shot</text>
<rect x="405" y="718" width="14" height="14" fill="#76B7B2" rx="2"/>
<text class="legend" x="425" y="730">RAG</text>
<rect x="474" y="718" width="14" height="14" fill="#E15759" rx="2"/>
<text class="legend" x="494" y="730">RAG + Repair</text>
</svg>