<svg xmlns="http://www.w3.org/2000/svg" width="1220" height="620" viewBox="0 0 1220 620">
<style>
text { font-family: Arial, Helvetica, sans-serif; fill: #222; }
.title { font-size: 24px; font-weight: 700; }
.subtitle { font-size: 13px; fill: #555; }
.axis { stroke: #333; stroke-width: 1.2; }
.grid { stroke: #ddd; stroke-width: 1; }
.tick { font-size: 12px; fill: #555; }
.model { font-size: 13px; font-weight: 700; }
.value { font-size: 11px; fill: #222; }
.legend { font-size: 12px; }
</style>
<rect width="100%" height="100%" fill="#fff"/>
<text class="title" x="86" y="34">Strict UML State-Rule Validity by Model and Method</text>
<text class="subtitle" x="86" y="56">Without ensemble results.</text>
<line class="grid" x1="86" y1="490.0" x2="1186" y2="490.0"/>
<text class="tick" x="74" y="494.0" text-anchor="end">0%</text>
<line class="grid" x1="86" y1="410.4" x2="1186" y2="410.4"/>
<text class="tick" x="74" y="414.4" text-anchor="end">20%</text>
<line class="grid" x1="86" y1="330.8" x2="1186" y2="330.8"/>
<text class="tick" x="74" y="334.8" text-anchor="end">40%</text>
<line class="grid" x1="86" y1="251.2" x2="1186" y2="251.2"/>
<text class="tick" x="74" y="255.2" text-anchor="end">60%</text>
<line class="grid" x1="86" y1="171.6" x2="1186" y2="171.6"/>
<text class="tick" x="74" y="175.6" text-anchor="end">80%</text>
<line class="grid" x1="86" y1="92.0" x2="1186" y2="92.0"/>
<text class="tick" x="74" y="96.0" text-anchor="end">100%</text>
<line class="axis" x1="86" y1="92" x2="86" y2="490"/>
<line class="axis" x1="86" y1="490" x2="1186" y2="490"/>
<rect x="86.0" y="490.0" width="35.8" height="0.0" rx="2" fill="#4E79A7"><title>DeepSeek R1 14B | Zero-shot: 0.00% (0/27)</title></rect>
<text class="value" x="103.9" y="485.0" text-anchor="middle">0%</text>
<rect x="128.8" y="445.8" width="35.8" height="44.2" rx="2" fill="#59A14F"><title>DeepSeek R1 14B | One-shot: 11.11% (3/27)</title></rect>
<text class="value" x="146.6" y="440.8" text-anchor="middle">11%</text>
<rect x="171.5" y="401.6" width="35.8" height="88.4" rx="2" fill="#F28E2B"><title>DeepSeek R1 14B | Few-shot: 22.22% (6/27)</title></rect>
<text class="value" x="189.4" y="396.6" text-anchor="middle">22%</text>
<rect x="214.2" y="136.2" width="35.8" height="353.8" rx="2" fill="#FFBE7D"><title>DeepSeek R1 14B | Few-shot + Repair: 88.89% (24/27)</title></rect>
<text class="value" x="232.1" y="131.2" text-anchor="middle">89%</text>
<rect x="257.0" y="431.1" width="35.8" height="58.9" rx="2" fill="#76B7B2"><title>DeepSeek R1 14B | RAG: 14.81% (4/27)</title></rect>
<text class="value" x="274.9" y="426.1" text-anchor="middle">15%</text>
<rect x="299.8" y="490.0" width="35.8" height="0.0" rx="2" fill="#E15759"><title>DeepSeek R1 14B | RAG + Repair: 0.00% (0/0)</title></rect>
<text class="value" x="317.6" y="485.0" text-anchor="middle">0%</text>
<text class="model" x="210.8" y="518" text-anchor="middle">DeepSeek R1 14B</text>
<rect x="369.5" y="490.0" width="35.8" height="0.0" rx="2" fill="#4E79A7"><title>Llama 3.1 8B Instruct | Zero-shot: 0.00% (0/27)</title></rect>
<text class="value" x="387.4" y="485.0" text-anchor="middle">0%</text>
<rect x="412.2" y="416.3" width="35.8" height="73.7" rx="2" fill="#59A14F"><title>Llama 3.1 8B Instruct | One-shot: 18.52% (5/27)</title></rect>
<text class="value" x="430.1" y="411.3" text-anchor="middle">19%</text>
<rect x="455.0" y="372.1" width="35.8" height="117.9" rx="2" fill="#F28E2B"><title>Llama 3.1 8B Instruct | Few-shot: 29.63% (8/27)</title></rect>
<text class="value" x="472.9" y="367.1" text-anchor="middle">30%</text>
<rect x="497.8" y="268.9" width="35.8" height="221.1" rx="2" fill="#FFBE7D"><title>Llama 3.1 8B Instruct | Few-shot + Repair: 55.56% (15/27)</title></rect>
<text class="value" x="515.6" y="263.9" text-anchor="middle">56%</text>
<rect x="540.5" y="401.6" width="35.8" height="88.4" rx="2" fill="#76B7B2"><title>Llama 3.1 8B Instruct | RAG: 22.22% (6/27)</title></rect>
<text class="value" x="558.4" y="396.6" text-anchor="middle">22%</text>
<rect x="583.2" y="490.0" width="35.8" height="0.0" rx="2" fill="#E15759"><title>Llama 3.1 8B Instruct | RAG + Repair: 0.00% (0/0)</title></rect>
<text class="value" x="601.1" y="485.0" text-anchor="middle">0%</text>
<text class="model" x="494.2" y="518" text-anchor="middle">Llama 3.1 8B Instruct</text>
<rect x="653.0" y="490.0" width="35.8" height="0.0" rx="2" fill="#4E79A7"><title>Mistral | Zero-shot: 0.00% (0/27)</title></rect>
<text class="value" x="670.9" y="485.0" text-anchor="middle">0%</text>
<rect x="695.8" y="475.3" width="35.8" height="14.7" rx="2" fill="#59A14F"><title>Mistral | One-shot: 3.70% (1/27)</title></rect>
<text class="value" x="713.6" y="470.3" text-anchor="middle">4%</text>
<rect x="738.5" y="460.5" width="35.8" height="29.5" rx="2" fill="#F28E2B"><title>Mistral | Few-shot: 7.41% (2/27)</title></rect>
<text class="value" x="756.4" y="455.5" text-anchor="middle">7%</text>
<rect x="781.2" y="490.0" width="35.8" height="0.0" rx="2" fill="#FFBE7D"><title>Mistral | Few-shot + Repair: 0.00% (0/0)</title></rect>
<text class="value" x="799.1" y="485.0" text-anchor="middle">0%</text>
<rect x="824.0" y="431.1" width="35.8" height="58.9" rx="2" fill="#76B7B2"><title>Mistral | RAG: 14.81% (4/27)</title></rect>
<text class="value" x="841.9" y="426.1" text-anchor="middle">15%</text>
<rect x="866.8" y="372.1" width="35.8" height="117.9" rx="2" fill="#E15759"><title>Mistral | RAG + Repair: 29.63% (8/27)</title></rect>
<text class="value" x="884.6" y="367.1" text-anchor="middle">30%</text>
<text class="model" x="777.8" y="518" text-anchor="middle">Mistral</text>
<rect x="936.5" y="490.0" width="35.8" height="0.0" rx="2" fill="#4E79A7"><title>Qwen 2.5 7B Instruct | Zero-shot: 0.00% (0/27)</title></rect>
<text class="value" x="954.4" y="485.0" text-anchor="middle">0%</text>
<rect x="979.2" y="475.3" width="35.8" height="14.7" rx="2" fill="#59A14F"><title>Qwen 2.5 7B Instruct | One-shot: 3.70% (1/27)</title></rect>
<text class="value" x="997.1" y="470.3" text-anchor="middle">4%</text>
<rect x="1022.0" y="445.8" width="35.8" height="44.2" rx="2" fill="#F28E2B"><title>Qwen 2.5 7B Instruct | Few-shot: 11.11% (3/27)</title></rect>
<text class="value" x="1039.9" y="440.8" text-anchor="middle">11%</text>
<rect x="1064.8" y="490.0" width="35.8" height="0.0" rx="2" fill="#FFBE7D"><title>Qwen 2.5 7B Instruct | Few-shot + Repair: 0.00% (0/0)</title></rect>
<text class="value" x="1082.6" y="485.0" text-anchor="middle">0%</text>
<rect x="1107.5" y="431.1" width="35.8" height="58.9" rx="2" fill="#76B7B2"><title>Qwen 2.5 7B Instruct | RAG: 14.81% (4/27)</title></rect>
<text class="value" x="1125.4" y="426.1" text-anchor="middle">15%</text>
<rect x="1150.2" y="327.9" width="35.8" height="162.1" rx="2" fill="#E15759"><title>Qwen 2.5 7B Instruct | RAG + Repair: 40.74% (11/27)</title></rect>
<text class="value" x="1168.1" y="322.9" text-anchor="middle">41%</text>
<text class="model" x="1061.2" y="518" text-anchor="middle">Qwen 2.5 7B Instruct</text>
<rect x="86" y="566" width="14" height="14" fill="#4E79A7" rx="2"/>
<text class="legend" x="106" y="578">Zero-shot</text>
<rect x="197" y="566" width="14" height="14" fill="#59A14F" rx="2"/>
<text class="legend" x="217" y="578">One-shot</text>
<rect x="301" y="566" width="14" height="14" fill="#F28E2B" rx="2"/>
<text class="legend" x="321" y="578">Few-shot</text>
<rect x="405" y="566" width="14" height="14" fill="#FFBE7D" rx="2"/>
<text class="legend" x="425" y="578">Few-shot + Repair</text>
<rect x="572" y="566" width="14" height="14" fill="#76B7B2" rx="2"/>
<text class="legend" x="592" y="578">RAG</text>
<rect x="641" y="566" width="14" height="14" fill="#E15759" rx="2"/>
<text class="legend" x="661" y="578">RAG + Repair</text>
</svg>