<svg xmlns="http://www.w3.org/2000/svg" width="1500" height="760" viewBox="0 0 1500 760">
<style>
text { font-family: Arial, Helvetica, sans-serif; fill: #222; }
.title { font-size: 24px; font-weight: 700; }
.subtitle { font-size: 13px; fill: #555; }
.axis { stroke: #333; stroke-width: 1.1; }
.grid { stroke: #ddd; stroke-width: 1; }
.tick { font-size: 11px; fill: #555; }
.panel { font-size: 16px; font-weight: 700; }
.model { font-size: 10px; font-weight: 700; }
.value { font-size: 9px; fill: #222; }
.legend { font-size: 12px; }
</style>
<rect width="100%" height="100%" fill="#fff"/>
<text class="title" x="86" y="34">State Validity by Diagram Difficulty Without Ensemble</text>
<text class="subtitle" x="86" y="56">Grouped bars for simple, medium, and complex diagrams.</text>
<text class="tick" x="74" y="666.0" text-anchor="end">0%</text>
<text class="tick" x="74" y="552.8" text-anchor="end">20%</text>
<text class="tick" x="74" y="439.6" text-anchor="end">40%</text>
<text class="tick" x="74" y="326.4" text-anchor="end">60%</text>
<text class="tick" x="74" y="213.2" text-anchor="end">80%</text>
<text class="tick" x="74" y="100.0" text-anchor="end">100%</text>
<text class="panel" x="298.7" y="82" text-anchor="middle">Simple</text>
<line class="grid" x1="86.0" y1="662.0" x2="511.3333333333333" y2="662.0"/>
<line class="grid" x1="86.0" y1="548.8" x2="511.3333333333333" y2="548.8"/>
<line class="grid" x1="86.0" y1="435.6" x2="511.3333333333333" y2="435.6"/>
<line class="grid" x1="86.0" y1="322.4" x2="511.3333333333333" y2="322.4"/>
<line class="grid" x1="86.0" y1="209.2" x2="511.3333333333333" y2="209.2"/>
<line class="grid" x1="86.0" y1="96.0" x2="511.3333333333333" y2="96.0"/>
<line class="axis" x1="86.0" y1="96" x2="86.0" y2="662"/>
<line class="axis" x1="86.0" y1="662" x2="511.3333333333333" y2="662"/>
<rect x="86.0" y="662.0" width="18.3" height="0.0" rx="2" fill="#4E79A7"><title>DeepSeek R1 14B | Zero-shot | simple: 0.00% (0/7)</title></rect>
<rect x="109.3" y="581.1" width="18.3" height="80.9" rx="2" fill="#59A14F"><title>DeepSeek R1 14B | One-shot | simple: 14.29% (1/7)</title></rect>
<text class="value" x="118.5" y="577.1" text-anchor="middle">14</text>
<rect x="132.7" y="419.4" width="18.3" height="242.6" rx="2" fill="#F28E2B"><title>DeepSeek R1 14B | Few-shot | simple: 42.86% (3/7)</title></rect>
<text class="value" x="141.8" y="415.4" text-anchor="middle">43</text>
<rect x="156.0" y="581.1" width="18.3" height="80.9" rx="2" fill="#76B7B2"><title>DeepSeek R1 14B | RAG | simple: 14.29% (1/7)</title></rect>
<text class="value" x="165.2" y="577.1" text-anchor="middle">14</text>
<text class="model" x="130.2" y="684" text-anchor="middle">DeepSeek R1 14B</text>
<rect x="198.3" y="662.0" width="18.3" height="0.0" rx="2" fill="#4E79A7"><title>Llama 3.1 8B Instruct | Zero-shot | simple: 0.00% (0/7)</title></rect>
<rect x="221.7" y="500.3" width="18.3" height="161.7" rx="2" fill="#59A14F"><title>Llama 3.1 8B Instruct | One-shot | simple: 28.57% (2/7)</title></rect>
<text class="value" x="230.8" y="496.3" text-anchor="middle">29</text>
<rect x="245.0" y="419.4" width="18.3" height="242.6" rx="2" fill="#F28E2B"><title>Llama 3.1 8B Instruct | Few-shot | simple: 42.86% (3/7)</title></rect>
<text class="value" x="254.2" y="415.4" text-anchor="middle">43</text>
<rect x="268.3" y="500.3" width="18.3" height="161.7" rx="2" fill="#76B7B2"><title>Llama 3.1 8B Instruct | RAG | simple: 28.57% (2/7)</title></rect>
<text class="value" x="277.5" y="496.3" text-anchor="middle">29</text>
<text class="model" x="242.5" y="684" text-anchor="middle">Llama 3.1 8B Instruct</text>
<rect x="310.7" y="662.0" width="18.3" height="0.0" rx="2" fill="#4E79A7"><title>Mistral | Zero-shot | simple: 0.00% (0/7)</title></rect>
<rect x="334.0" y="581.1" width="18.3" height="80.9" rx="2" fill="#59A14F"><title>Mistral | One-shot | simple: 14.29% (1/7)</title></rect>
<text class="value" x="343.2" y="577.1" text-anchor="middle">14</text>
<rect x="357.3" y="662.0" width="18.3" height="0.0" rx="2" fill="#F28E2B"><title>Mistral | Few-shot | simple: 0.00% (0/7)</title></rect>
<rect x="380.7" y="419.4" width="18.3" height="242.6" rx="2" fill="#76B7B2"><title>Mistral | RAG | simple: 42.86% (3/7)</title></rect>
<text class="value" x="389.8" y="415.4" text-anchor="middle">43</text>
<text class="model" x="354.8" y="684" text-anchor="middle">Mistral</text>
<rect x="423.0" y="662.0" width="18.3" height="0.0" rx="2" fill="#4E79A7"><title>Qwen 2.5 7B Instruct | Zero-shot | simple: 0.00% (0/7)</title></rect>
<rect x="446.3" y="581.1" width="18.3" height="80.9" rx="2" fill="#59A14F"><title>Qwen 2.5 7B Instruct | One-shot | simple: 14.29% (1/7)</title></rect>
<text class="value" x="455.5" y="577.1" text-anchor="middle">14</text>
<rect x="469.7" y="581.1" width="18.3" height="80.9" rx="2" fill="#F28E2B"><title>Qwen 2.5 7B Instruct | Few-shot | simple: 14.29% (1/7)</title></rect>
<text class="value" x="478.8" y="577.1" text-anchor="middle">14</text>
<rect x="493.0" y="500.3" width="18.3" height="161.7" rx="2" fill="#76B7B2"><title>Qwen 2.5 7B Instruct | RAG | simple: 28.57% (2/7)</title></rect>
<text class="value" x="502.2" y="496.3" text-anchor="middle">29</text>
<text class="model" x="467.2" y="684" text-anchor="middle">Qwen 2.5 7B Instruct</text>
<text class="panel" x="776.0" y="82" text-anchor="middle">Medium</text>
<line class="grid" x1="563.3333333333333" y1="662.0" x2="988.6666666666665" y2="662.0"/>
<line class="grid" x1="563.3333333333333" y1="548.8" x2="988.6666666666665" y2="548.8"/>
<line class="grid" x1="563.3333333333333" y1="435.6" x2="988.6666666666665" y2="435.6"/>
<line class="grid" x1="563.3333333333333" y1="322.4" x2="988.6666666666665" y2="322.4"/>
<line class="grid" x1="563.3333333333333" y1="209.2" x2="988.6666666666665" y2="209.2"/>
<line class="grid" x1="563.3333333333333" y1="96.0" x2="988.6666666666665" y2="96.0"/>
<line class="axis" x1="563.3333333333333" y1="96" x2="563.3333333333333" y2="662"/>
<line class="axis" x1="563.3333333333333" y1="662" x2="988.6666666666665" y2="662"/>
<rect x="563.3" y="662.0" width="18.3" height="0.0" rx="2" fill="#4E79A7"><title>DeepSeek R1 14B | Zero-shot | medium: 0.00% (0/14)</title></rect>
<rect x="586.7" y="581.1" width="18.3" height="80.9" rx="2" fill="#59A14F"><title>DeepSeek R1 14B | One-shot | medium: 14.29% (2/14)</title></rect>
<text class="value" x="595.8" y="577.1" text-anchor="middle">14</text>
<rect x="610.0" y="581.1" width="18.3" height="80.9" rx="2" fill="#F28E2B"><title>DeepSeek R1 14B | Few-shot | medium: 14.29% (2/14)</title></rect>
<text class="value" x="619.2" y="577.1" text-anchor="middle">14</text>
<rect x="633.3" y="540.7" width="18.3" height="121.3" rx="2" fill="#76B7B2"><title>DeepSeek R1 14B | RAG | medium: 21.43% (3/14)</title></rect>
<text class="value" x="642.5" y="536.7" text-anchor="middle">21</text>
<text class="model" x="607.5" y="684" text-anchor="middle">DeepSeek R1 14B</text>
<rect x="675.7" y="662.0" width="18.3" height="0.0" rx="2" fill="#4E79A7"><title>Llama 3.1 8B Instruct | Zero-shot | medium: 0.00% (0/14)</title></rect>
<rect x="699.0" y="581.1" width="18.3" height="80.9" rx="2" fill="#59A14F"><title>Llama 3.1 8B Instruct | One-shot | medium: 14.29% (2/14)</title></rect>
<text class="value" x="708.2" y="577.1" text-anchor="middle">14</text>
<rect x="722.3" y="500.3" width="18.3" height="161.7" rx="2" fill="#F28E2B"><title>Llama 3.1 8B Instruct | Few-shot | medium: 28.57% (4/14)</title></rect>
<text class="value" x="731.5" y="496.3" text-anchor="middle">29</text>
<rect x="745.7" y="540.7" width="18.3" height="121.3" rx="2" fill="#76B7B2"><title>Llama 3.1 8B Instruct | RAG | medium: 21.43% (3/14)</title></rect>
<text class="value" x="754.8" y="536.7" text-anchor="middle">21</text>
<text class="model" x="719.8" y="684" text-anchor="middle">Llama 3.1 8B Instruct</text>
<rect x="788.0" y="662.0" width="18.3" height="0.0" rx="2" fill="#4E79A7"><title>Mistral | Zero-shot | medium: 0.00% (0/14)</title></rect>
<rect x="811.3" y="662.0" width="18.3" height="0.0" rx="2" fill="#59A14F"><title>Mistral | One-shot | medium: 0.00% (0/14)</title></rect>
<rect x="834.7" y="581.1" width="18.3" height="80.9" rx="2" fill="#F28E2B"><title>Mistral | Few-shot | medium: 14.29% (2/14)</title></rect>
<text class="value" x="843.8" y="577.1" text-anchor="middle">14</text>
<rect x="858.0" y="621.6" width="18.3" height="40.4" rx="2" fill="#76B7B2"><title>Mistral | RAG | medium: 7.14% (1/14)</title></rect>
<text class="value" x="867.2" y="617.6" text-anchor="middle">7</text>
<text class="model" x="832.2" y="684" text-anchor="middle">Mistral</text>
<rect x="900.3" y="662.0" width="18.3" height="0.0" rx="2" fill="#4E79A7"><title>Qwen 2.5 7B Instruct | Zero-shot | medium: 0.00% (0/14)</title></rect>
<rect x="923.7" y="662.0" width="18.3" height="0.0" rx="2" fill="#59A14F"><title>Qwen 2.5 7B Instruct | One-shot | medium: 0.00% (0/14)</title></rect>
<rect x="947.0" y="581.1" width="18.3" height="80.9" rx="2" fill="#F28E2B"><title>Qwen 2.5 7B Instruct | Few-shot | medium: 14.29% (2/14)</title></rect>
<text class="value" x="956.2" y="577.1" text-anchor="middle">14</text>
<rect x="970.3" y="581.1" width="18.3" height="80.9" rx="2" fill="#76B7B2"><title>Qwen 2.5 7B Instruct | RAG | medium: 14.29% (2/14)</title></rect>
<text class="value" x="979.5" y="577.1" text-anchor="middle">14</text>
<text class="model" x="944.5" y="684" text-anchor="middle">Qwen 2.5 7B Instruct</text>
<text class="panel" x="1253.3" y="82" text-anchor="middle">Complex</text>
<line class="grid" x1="1040.6666666666665" y1="662.0" x2="1465.9999999999998" y2="662.0"/>
<line class="grid" x1="1040.6666666666665" y1="548.8" x2="1465.9999999999998" y2="548.8"/>
<line class="grid" x1="1040.6666666666665" y1="435.6" x2="1465.9999999999998" y2="435.6"/>
<line class="grid" x1="1040.6666666666665" y1="322.4" x2="1465.9999999999998" y2="322.4"/>
<line class="grid" x1="1040.6666666666665" y1="209.2" x2="1465.9999999999998" y2="209.2"/>
<line class="grid" x1="1040.6666666666665" y1="96.0" x2="1465.9999999999998" y2="96.0"/>
<line class="axis" x1="1040.6666666666665" y1="96" x2="1040.6666666666665" y2="662"/>
<line class="axis" x1="1040.6666666666665" y1="662" x2="1465.9999999999998" y2="662"/>
<rect x="1040.7" y="662.0" width="18.3" height="0.0" rx="2" fill="#4E79A7"><title>DeepSeek R1 14B | Zero-shot | complex: 0.00% (0/6)</title></rect>
<rect x="1064.0" y="662.0" width="18.3" height="0.0" rx="2" fill="#59A14F"><title>DeepSeek R1 14B | One-shot | complex: 0.00% (0/6)</title></rect>
<rect x="1087.3" y="567.6" width="18.3" height="94.4" rx="2" fill="#F28E2B"><title>DeepSeek R1 14B | Few-shot | complex: 16.67% (1/6)</title></rect>
<text class="value" x="1096.5" y="563.6" text-anchor="middle">17</text>
<rect x="1110.7" y="662.0" width="18.3" height="0.0" rx="2" fill="#76B7B2"><title>DeepSeek R1 14B | RAG | complex: 0.00% (0/6)</title></rect>
<text class="model" x="1084.8" y="684" text-anchor="middle">DeepSeek R1 14B</text>
<rect x="1153.0" y="662.0" width="18.3" height="0.0" rx="2" fill="#4E79A7"><title>Llama 3.1 8B Instruct | Zero-shot | complex: 0.00% (0/6)</title></rect>
<rect x="1176.3" y="567.6" width="18.3" height="94.4" rx="2" fill="#59A14F"><title>Llama 3.1 8B Instruct | One-shot | complex: 16.67% (1/6)</title></rect>
<text class="value" x="1185.5" y="563.6" text-anchor="middle">17</text>
<rect x="1199.7" y="567.6" width="18.3" height="94.4" rx="2" fill="#F28E2B"><title>Llama 3.1 8B Instruct | Few-shot | complex: 16.67% (1/6)</title></rect>
<text class="value" x="1208.8" y="563.6" text-anchor="middle">17</text>
<rect x="1223.0" y="567.6" width="18.3" height="94.4" rx="2" fill="#76B7B2"><title>Llama 3.1 8B Instruct | RAG | complex: 16.67% (1/6)</title></rect>
<text class="value" x="1232.2" y="563.6" text-anchor="middle">17</text>
<text class="model" x="1197.2" y="684" text-anchor="middle">Llama 3.1 8B Instruct</text>
<rect x="1265.3" y="662.0" width="18.3" height="0.0" rx="2" fill="#4E79A7"><title>Mistral | Zero-shot | complex: 0.00% (0/6)</title></rect>
<rect x="1288.7" y="662.0" width="18.3" height="0.0" rx="2" fill="#59A14F"><title>Mistral | One-shot | complex: 0.00% (0/6)</title></rect>
<rect x="1312.0" y="662.0" width="18.3" height="0.0" rx="2" fill="#F28E2B"><title>Mistral | Few-shot | complex: 0.00% (0/6)</title></rect>
<rect x="1335.3" y="662.0" width="18.3" height="0.0" rx="2" fill="#76B7B2"><title>Mistral | RAG | complex: 0.00% (0/6)</title></rect>
<text class="model" x="1309.5" y="684" text-anchor="middle">Mistral</text>
<rect x="1377.7" y="662.0" width="18.3" height="0.0" rx="2" fill="#4E79A7"><title>Qwen 2.5 7B Instruct | Zero-shot | complex: 0.00% (0/6)</title></rect>
<rect x="1401.0" y="662.0" width="18.3" height="0.0" rx="2" fill="#59A14F"><title>Qwen 2.5 7B Instruct | One-shot | complex: 0.00% (0/6)</title></rect>
<rect x="1424.3" y="662.0" width="18.3" height="0.0" rx="2" fill="#F28E2B"><title>Qwen 2.5 7B Instruct | Few-shot | complex: 0.00% (0/6)</title></rect>
<rect x="1447.7" y="662.0" width="18.3" height="0.0" rx="2" fill="#76B7B2"><title>Qwen 2.5 7B Instruct | RAG | complex: 0.00% (0/6)</title></rect>
<text class="model" x="1421.8" y="684" text-anchor="middle">Qwen 2.5 7B Instruct</text>
<rect x="86" y="718" width="14" height="14" fill="#4E79A7" rx="2"/>
<text class="legend" x="106" y="730">Zero-shot</text>
<rect x="197" y="718" width="14" height="14" fill="#59A14F" rx="2"/>
<text class="legend" x="217" y="730">One-shot</text>
<rect x="301" y="718" width="14" height="14" fill="#F28E2B" rx="2"/>
<text class="legend" x="321" y="730">Few-shot</text>
<rect x="405" y="718" width="14" height="14" fill="#76B7B2" rx="2"/>
<text class="legend" x="425" y="730">RAG</text>
</svg>