<svg xmlns="http://www.w3.org/2000/svg" width="1220" height="760" viewBox="0 0 1220 760">
<style>
text { font-family: Arial, Helvetica, sans-serif; fill: #222; }
.title { font-size: 24px; font-weight: 700; }
.subtitle { font-size: 13px; fill: #555; }
.axis { stroke: #333; stroke-width: 1.1; }
.grid { stroke: #ddd; stroke-width: 1; }
.tick { font-size: 11px; fill: #555; }
.panel { font-size: 16px; font-weight: 700; }
.model { font-size: 10px; font-weight: 700; }
.value { font-size: 9px; fill: #222; }
.legend { font-size: 12px; }
</style>
<rect width="100%" height="100%" fill="#fff"/>
<text class="title" x="86" y="34">Strict State-Rule Validity by System Type</text>
<text class="subtitle" x="86" y="56">Test split only. RAG ablation variants excluded.</text>
<text class="tick" x="74" y="666.0" text-anchor="end">0%</text>
<text class="tick" x="74" y="552.8" text-anchor="end">20%</text>
<text class="tick" x="74" y="439.6" text-anchor="end">40%</text>
<text class="tick" x="74" y="326.4" text-anchor="end">60%</text>
<text class="tick" x="74" y="213.2" text-anchor="end">80%</text>
<text class="tick" x="74" y="100.0" text-anchor="end">100%</text>
<text class="panel" x="346.0" y="82" text-anchor="middle">Embedded Systems</text>
<line class="grid" x1="86.0" y1="662.0" x2="606.0" y2="662.0"/>
<line class="grid" x1="86.0" y1="548.8" x2="606.0" y2="548.8"/>
<line class="grid" x1="86.0" y1="435.6" x2="606.0" y2="435.6"/>
<line class="grid" x1="86.0" y1="322.4" x2="606.0" y2="322.4"/>
<line class="grid" x1="86.0" y1="209.2" x2="606.0" y2="209.2"/>
<line class="grid" x1="86.0" y1="96.0" x2="606.0" y2="96.0"/>
<line class="axis" x1="86.0" y1="96" x2="86.0" y2="662"/>
<line class="axis" x1="86.0" y1="662" x2="606.0" y2="662"/>
<rect x="86.0" y="662.0" width="14.5" height="0.0" rx="2" fill="#4E79A7"><title>DeepSeek R1 14B | Zero-shot | Embedded Systems: 0.00% (0/9)</title></rect>
<rect x="105.5" y="536.2" width="14.5" height="125.8" rx="2" fill="#59A14F"><title>DeepSeek R1 14B | One-shot | Embedded Systems: 22.22% (2/9)</title></rect>
<text class="value" x="112.8" y="532.2" text-anchor="middle">22</text>
<rect x="125.0" y="599.1" width="14.5" height="62.9" rx="2" fill="#F28E2B"><title>DeepSeek R1 14B | Few-shot | Embedded Systems: 11.11% (1/9)</title></rect>
<text class="value" x="132.2" y="595.1" text-anchor="middle">11</text>
<rect x="144.5" y="158.9" width="14.5" height="503.1" rx="2" fill="#FFBE7D"><title>DeepSeek R1 14B | Few-shot + Repair | Embedded Systems: 88.89% (8/9)</title></rect>
<text class="value" x="151.8" y="154.9" text-anchor="middle">89</text>
<rect x="164.0" y="599.1" width="14.5" height="62.9" rx="2" fill="#76B7B2"><title>DeepSeek R1 14B | RAG | Embedded Systems: 11.11% (1/9)</title></rect>
<text class="value" x="171.2" y="595.1" text-anchor="middle">11</text>
<rect x="183.5" y="662.0" width="14.5" height="0.0" rx="2" fill="#E15759"><title>DeepSeek R1 14B | RAG + Repair | Embedded Systems: 0.00% (0/0)</title></rect>
<text class="model" x="142.0" y="684" text-anchor="middle">DeepSeek R1 14B</text>
<rect x="222.0" y="662.0" width="14.5" height="0.0" rx="2" fill="#4E79A7"><title>Llama 3.1 8B Instruct | Zero-shot | Embedded Systems: 0.00% (0/9)</title></rect>
<rect x="241.5" y="599.1" width="14.5" height="62.9" rx="2" fill="#59A14F"><title>Llama 3.1 8B Instruct | One-shot | Embedded Systems: 11.11% (1/9)</title></rect>
<text class="value" x="248.8" y="595.1" text-anchor="middle">11</text>
<rect x="261.0" y="473.4" width="14.5" height="188.6" rx="2" fill="#F28E2B"><title>Llama 3.1 8B Instruct | Few-shot | Embedded Systems: 33.33% (3/9)</title></rect>
<text class="value" x="268.2" y="469.4" text-anchor="middle">33</text>
<rect x="280.5" y="284.6" width="14.5" height="377.4" rx="2" fill="#FFBE7D"><title>Llama 3.1 8B Instruct | Few-shot + Repair | Embedded Systems: 66.67% (6/9)</title></rect>
<text class="value" x="287.8" y="280.6" text-anchor="middle">67</text>
<rect x="300.0" y="536.2" width="14.5" height="125.8" rx="2" fill="#76B7B2"><title>Llama 3.1 8B Instruct | RAG | Embedded Systems: 22.22% (2/9)</title></rect>
<text class="value" x="307.2" y="532.2" text-anchor="middle">22</text>
<rect x="319.5" y="662.0" width="14.5" height="0.0" rx="2" fill="#E15759"><title>Llama 3.1 8B Instruct | RAG + Repair | Embedded Systems: 0.00% (0/0)</title></rect>
<text class="model" x="278.0" y="684" text-anchor="middle">Llama 3.1 8B Instruct</text>
<rect x="358.0" y="662.0" width="14.5" height="0.0" rx="2" fill="#4E79A7"><title>Mistral | Zero-shot | Embedded Systems: 0.00% (0/9)</title></rect>
<rect x="377.5" y="599.1" width="14.5" height="62.9" rx="2" fill="#59A14F"><title>Mistral | One-shot | Embedded Systems: 11.11% (1/9)</title></rect>
<text class="value" x="384.8" y="595.1" text-anchor="middle">11</text>
<rect x="397.0" y="662.0" width="14.5" height="0.0" rx="2" fill="#F28E2B"><title>Mistral | Few-shot | Embedded Systems: 0.00% (0/9)</title></rect>
<rect x="416.5" y="662.0" width="14.5" height="0.0" rx="2" fill="#FFBE7D"><title>Mistral | Few-shot + Repair | Embedded Systems: 0.00% (0/0)</title></rect>
<rect x="436.0" y="599.1" width="14.5" height="62.9" rx="2" fill="#76B7B2"><title>Mistral | RAG | Embedded Systems: 11.11% (1/9)</title></rect>
<text class="value" x="443.2" y="595.1" text-anchor="middle">11</text>
<rect x="455.5" y="599.1" width="14.5" height="62.9" rx="2" fill="#E15759"><title>Mistral | RAG + Repair | Embedded Systems: 11.11% (1/9)</title></rect>
<text class="value" x="462.8" y="595.1" text-anchor="middle">11</text>
<text class="model" x="414.0" y="684" text-anchor="middle">Mistral</text>
<rect x="494.0" y="662.0" width="14.5" height="0.0" rx="2" fill="#4E79A7"><title>Qwen 2.5 7B Instruct | Zero-shot | Embedded Systems: 0.00% (0/9)</title></rect>
<rect x="513.5" y="599.1" width="14.5" height="62.9" rx="2" fill="#59A14F"><title>Qwen 2.5 7B Instruct | One-shot | Embedded Systems: 11.11% (1/9)</title></rect>
<text class="value" x="520.8" y="595.1" text-anchor="middle">11</text>
<rect x="533.0" y="599.1" width="14.5" height="62.9" rx="2" fill="#F28E2B"><title>Qwen 2.5 7B Instruct | Few-shot | Embedded Systems: 11.11% (1/9)</title></rect>
<text class="value" x="540.2" y="595.1" text-anchor="middle">11</text>
<rect x="552.5" y="662.0" width="14.5" height="0.0" rx="2" fill="#FFBE7D"><title>Qwen 2.5 7B Instruct | Few-shot + Repair | Embedded Systems: 0.00% (0/0)</title></rect>
<rect x="572.0" y="662.0" width="14.5" height="0.0" rx="2" fill="#76B7B2"><title>Qwen 2.5 7B Instruct | RAG | Embedded Systems: 0.00% (0/9)</title></rect>
<rect x="591.5" y="410.5" width="14.5" height="251.5" rx="2" fill="#E15759"><title>Qwen 2.5 7B Instruct | RAG + Repair | Embedded Systems: 44.44% (4/9)</title></rect>
<text class="value" x="598.8" y="406.5" text-anchor="middle">44</text>
<text class="model" x="550.0" y="684" text-anchor="middle">Qwen 2.5 7B Instruct</text>
<text class="panel" x="926.0" y="82" text-anchor="middle">Software Systems</text>
<line class="grid" x1="666.0" y1="662.0" x2="1186.0" y2="662.0"/>
<line class="grid" x1="666.0" y1="548.8" x2="1186.0" y2="548.8"/>
<line class="grid" x1="666.0" y1="435.6" x2="1186.0" y2="435.6"/>
<line class="grid" x1="666.0" y1="322.4" x2="1186.0" y2="322.4"/>
<line class="grid" x1="666.0" y1="209.2" x2="1186.0" y2="209.2"/>
<line class="grid" x1="666.0" y1="96.0" x2="1186.0" y2="96.0"/>
<line class="axis" x1="666.0" y1="96" x2="666.0" y2="662"/>
<line class="axis" x1="666.0" y1="662" x2="1186.0" y2="662"/>
<rect x="666.0" y="662.0" width="14.5" height="0.0" rx="2" fill="#4E79A7"><title>DeepSeek R1 14B | Zero-shot | Software Systems: 0.00% (0/18)</title></rect>
<rect x="685.5" y="630.5" width="14.5" height="31.5" rx="2" fill="#59A14F"><title>DeepSeek R1 14B | One-shot | Software Systems: 5.56% (1/18)</title></rect>
<text class="value" x="692.8" y="626.5" text-anchor="middle">6</text>
<rect x="705.0" y="504.8" width="14.5" height="157.2" rx="2" fill="#F28E2B"><title>DeepSeek R1 14B | Few-shot | Software Systems: 27.78% (5/18)</title></rect>
<text class="value" x="712.2" y="500.8" text-anchor="middle">28</text>
<rect x="724.5" y="158.9" width="14.5" height="503.1" rx="2" fill="#FFBE7D"><title>DeepSeek R1 14B | Few-shot + Repair | Software Systems: 88.89% (16/18)</title></rect>
<text class="value" x="731.8" y="154.9" text-anchor="middle">89</text>
<rect x="744.0" y="567.6" width="14.5" height="94.4" rx="2" fill="#76B7B2"><title>DeepSeek R1 14B | RAG | Software Systems: 16.67% (3/18)</title></rect>
<text class="value" x="751.2" y="563.6" text-anchor="middle">17</text>
<rect x="763.5" y="662.0" width="14.5" height="0.0" rx="2" fill="#E15759"><title>DeepSeek R1 14B | RAG + Repair | Software Systems: 0.00% (0/0)</title></rect>
<text class="model" x="722.0" y="684" text-anchor="middle">DeepSeek R1 14B</text>
<rect x="802.0" y="662.0" width="14.5" height="0.0" rx="2" fill="#4E79A7"><title>Llama 3.1 8B Instruct | Zero-shot | Software Systems: 0.00% (0/18)</title></rect>
<rect x="821.5" y="536.2" width="14.5" height="125.8" rx="2" fill="#59A14F"><title>Llama 3.1 8B Instruct | One-shot | Software Systems: 22.22% (4/18)</title></rect>
<text class="value" x="828.8" y="532.2" text-anchor="middle">22</text>
<rect x="841.0" y="504.8" width="14.5" height="157.2" rx="2" fill="#F28E2B"><title>Llama 3.1 8B Instruct | Few-shot | Software Systems: 27.78% (5/18)</title></rect>
<text class="value" x="848.2" y="500.8" text-anchor="middle">28</text>
<rect x="860.5" y="379.0" width="14.5" height="283.0" rx="2" fill="#FFBE7D"><title>Llama 3.1 8B Instruct | Few-shot + Repair | Software Systems: 50.00% (9/18)</title></rect>
<text class="value" x="867.8" y="375.0" text-anchor="middle">50</text>
<rect x="880.0" y="536.2" width="14.5" height="125.8" rx="2" fill="#76B7B2"><title>Llama 3.1 8B Instruct | RAG | Software Systems: 22.22% (4/18)</title></rect>
<text class="value" x="887.2" y="532.2" text-anchor="middle">22</text>
<rect x="899.5" y="662.0" width="14.5" height="0.0" rx="2" fill="#E15759"><title>Llama 3.1 8B Instruct | RAG + Repair | Software Systems: 0.00% (0/0)</title></rect>
<text class="model" x="858.0" y="684" text-anchor="middle">Llama 3.1 8B Instruct</text>
<rect x="938.0" y="662.0" width="14.5" height="0.0" rx="2" fill="#4E79A7"><title>Mistral | Zero-shot | Software Systems: 0.00% (0/18)</title></rect>
<rect x="957.5" y="662.0" width="14.5" height="0.0" rx="2" fill="#59A14F"><title>Mistral | One-shot | Software Systems: 0.00% (0/18)</title></rect>
<rect x="977.0" y="599.1" width="14.5" height="62.9" rx="2" fill="#F28E2B"><title>Mistral | Few-shot | Software Systems: 11.11% (2/18)</title></rect>
<text class="value" x="984.2" y="595.1" text-anchor="middle">11</text>
<rect x="996.5" y="662.0" width="14.5" height="0.0" rx="2" fill="#FFBE7D"><title>Mistral | Few-shot + Repair | Software Systems: 0.00% (0/0)</title></rect>
<rect x="1016.0" y="567.6" width="14.5" height="94.4" rx="2" fill="#76B7B2"><title>Mistral | RAG | Software Systems: 16.67% (3/18)</title></rect>
<text class="value" x="1023.2" y="563.6" text-anchor="middle">17</text>
<rect x="1035.5" y="441.9" width="14.5" height="220.1" rx="2" fill="#E15759"><title>Mistral | RAG + Repair | Software Systems: 38.89% (7/18)</title></rect>
<text class="value" x="1042.8" y="437.9" text-anchor="middle">39</text>
<text class="model" x="994.0" y="684" text-anchor="middle">Mistral</text>
<rect x="1074.0" y="662.0" width="14.5" height="0.0" rx="2" fill="#4E79A7"><title>Qwen 2.5 7B Instruct | Zero-shot | Software Systems: 0.00% (0/18)</title></rect>
<rect x="1093.5" y="662.0" width="14.5" height="0.0" rx="2" fill="#59A14F"><title>Qwen 2.5 7B Instruct | One-shot | Software Systems: 0.00% (0/18)</title></rect>
<rect x="1113.0" y="599.1" width="14.5" height="62.9" rx="2" fill="#F28E2B"><title>Qwen 2.5 7B Instruct | Few-shot | Software Systems: 11.11% (2/18)</title></rect>
<text class="value" x="1120.2" y="595.1" text-anchor="middle">11</text>
<rect x="1132.5" y="662.0" width="14.5" height="0.0" rx="2" fill="#FFBE7D"><title>Qwen 2.5 7B Instruct | Few-shot + Repair | Software Systems: 0.00% (0/0)</title></rect>
<rect x="1152.0" y="536.2" width="14.5" height="125.8" rx="2" fill="#76B7B2"><title>Qwen 2.5 7B Instruct | RAG | Software Systems: 22.22% (4/18)</title></rect>
<text class="value" x="1159.2" y="532.2" text-anchor="middle">22</text>
<rect x="1171.5" y="441.9" width="14.5" height="220.1" rx="2" fill="#E15759"><title>Qwen 2.5 7B Instruct | RAG + Repair | Software Systems: 38.89% (7/18)</title></rect>
<text class="value" x="1178.8" y="437.9" text-anchor="middle">39</text>
<text class="model" x="1130.0" y="684" text-anchor="middle">Qwen 2.5 7B Instruct</text>
<rect x="86" y="718" width="14" height="14" fill="#4E79A7" rx="2"/>
<text class="legend" x="106" y="730">Zero-shot</text>
<rect x="197" y="718" width="14" height="14" fill="#59A14F" rx="2"/>
<text class="legend" x="217" y="730">One-shot</text>
<rect x="301" y="718" width="14" height="14" fill="#F28E2B" rx="2"/>
<text class="legend" x="321" y="730">Few-shot</text>
<rect x="405" y="718" width="14" height="14" fill="#FFBE7D" rx="2"/>
<text class="legend" x="425" y="730">Few-shot + Repair</text>
<rect x="572" y="718" width="14" height="14" fill="#76B7B2" rx="2"/>
<text class="legend" x="592" y="730">RAG</text>
<rect x="641" y="718" width="14" height="14" fill="#E15759" rx="2"/>
<text class="legend" x="661" y="730">RAG + Repair</text>
</svg>