<svg xmlns="http://www.w3.org/2000/svg" width="1120" height="620" viewBox="0 0 1120 620">
<style>
text { font-family: Arial, Helvetica, sans-serif; fill: #222; }
.title { font-size: 24px; font-weight: 700; }
.subtitle { font-size: 13px; fill: #555; }
.panel { font-size: 15px; font-weight: 700; }
.axis { stroke: #333; stroke-width: 1.2; }
.grid { stroke: #ddd; stroke-width: 1; }
.label { font-size: 12px; }
.tick { font-size: 11px; fill: #555; }
.value { font-size: 11px; font-weight: 700; }
.legend { font-size: 12px; }
</style>
<rect width="100%" height="100%" fill="#fff"/>
<text class="title" x="40" y="34">Prompting Strategy: Average Human Score</text>
<text class="subtitle" x="40" y="56">Average of completeness, correctness, understandability, and terminology medians</text>
<line class="grid" x1="78" y1="442.0" x2="1072" y2="442.0"/>
<text class="tick" x="66" y="446.0" text-anchor="end">1</text>
<line class="grid" x1="78" y1="354.5" x2="1072" y2="354.5"/>
<text class="tick" x="66" y="358.5" text-anchor="end">2</text>
<line class="grid" x1="78" y1="267.0" x2="1072" y2="267.0"/>
<text class="tick" x="66" y="271.0" text-anchor="end">3</text>
<line class="grid" x1="78" y1="179.5" x2="1072" y2="179.5"/>
<text class="tick" x="66" y="183.5" text-anchor="end">4</text>
<line class="grid" x1="78" y1="92.0" x2="1072" y2="92.0"/>
<text class="tick" x="66" y="96.0" text-anchor="end">5</text>
<line class="axis" x1="78" y1="92" x2="78" y2="442"/>
<line class="axis" x1="78" y1="442" x2="1072" y2="442"/>
<text class="label" x="184.2" y="472.0" text-anchor="middle">Zero-shot</text>
<rect x="338.5" y="135.8" width="47.1" height="306.2" fill="#4E79A7" rx="2"><title>One-shot | Llama average: 4.50</title></rect>
<text class="value" x="362.1" y="129.8" text-anchor="middle">4.50</text>
<rect x="393.6" y="146.7" width="47.1" height="295.3" fill="#F28E2B" rx="2"><title>One-shot | Mistral average: 4.38</title></rect>
<text class="value" x="417.2" y="140.7" text-anchor="middle">4.38</text>
<rect x="448.8" y="201.4" width="47.1" height="240.6" fill="#59A14F" rx="2"><title>One-shot | DeepSeek average: 3.75</title></rect>
<text class="value" x="472.3" y="195.4" text-anchor="middle">3.75</text>
<rect x="503.9" y="277.9" width="47.1" height="164.1" fill="#E15759" rx="2"><title>One-shot | Qwen average: 2.88</title></rect>
<text class="value" x="527.4" y="271.9" text-anchor="middle">2.88</text>
<text class="label" x="444.8" y="472.0" text-anchor="middle">One-shot</text>
<rect x="599.0" y="179.5" width="47.1" height="262.5" fill="#4E79A7" rx="2"><title>Few-shot | Llama average: 4.00</title></rect>
<text class="value" x="622.6" y="173.5" text-anchor="middle">4.00</text>
<rect x="654.1" y="157.6" width="47.1" height="284.4" fill="#F28E2B" rx="2"><title>Few-shot | Mistral average: 4.25</title></rect>
<text class="value" x="677.7" y="151.6" text-anchor="middle">4.25</text>
<rect x="709.2" y="135.8" width="47.1" height="306.2" fill="#59A14F" rx="2"><title>Few-shot | DeepSeek average: 4.50</title></rect>
<text class="value" x="732.8" y="129.8" text-anchor="middle">4.50</text>
<rect x="764.4" y="135.8" width="47.1" height="306.2" fill="#E15759" rx="2"><title>Few-shot | Qwen average: 4.50</title></rect>
<text class="value" x="787.9" y="129.8" text-anchor="middle">4.50</text>
<text class="label" x="705.2" y="472.0" text-anchor="middle">Few-shot</text>
<rect x="859.5" y="201.4" width="47.1" height="240.6" fill="#4E79A7" rx="2"><title>RAG | Llama average: 3.75</title></rect>
<text class="value" x="883.1" y="195.4" text-anchor="middle">3.75</text>
<rect x="914.6" y="146.7" width="47.1" height="295.3" fill="#F28E2B" rx="2"><title>RAG | Mistral average: 4.38</title></rect>
<text class="value" x="938.2" y="140.7" text-anchor="middle">4.38</text>
<rect x="969.8" y="113.9" width="47.1" height="328.1" fill="#59A14F" rx="2"><title>RAG | DeepSeek average: 4.75</title></rect>
<text class="value" x="993.3" y="107.9" text-anchor="middle">4.75</text>
<rect x="1024.9" y="212.3" width="47.1" height="229.7" fill="#E15759" rx="2"><title>RAG | Qwen average: 3.62</title></rect>
<text class="value" x="1048.4" y="206.3" text-anchor="middle">3.62</text>
<text class="label" x="965.8" y="472.0" text-anchor="middle">RAG</text>
<rect x="78" y="564" width="14" height="14" fill="#4E79A7" rx="2"/>
<text class="legend" x="98" y="576">Llama</text>
<rect x="194" y="564" width="14" height="14" fill="#F28E2B" rx="2"/>
<text class="legend" x="214" y="576">Mistral</text>
<rect x="310" y="564" width="14" height="14" fill="#59A14F" rx="2"/>
<text class="legend" x="330" y="576">DeepSeek</text>
<rect x="426" y="564" width="14" height="14" fill="#E15759" rx="2"/>
<text class="legend" x="446" y="576">Qwen</text>
</svg>