<svg xmlns="http://www.w3.org/2000/svg" width="2510" height="398" viewBox="0 0 2510 398">
<style>
text { font-family: Arial, Helvetica, sans-serif; fill: #222; }
.title { font-size: 24px; font-weight: 700; }
.subtitle { font-size: 13px; fill: #555; }
.panel { font-size: 15px; font-weight: 700; }
.axis { stroke: #333; stroke-width: 1.2; }
.grid { stroke: #ddd; stroke-width: 1; }
.label { font-size: 12px; }
.tick { font-size: 11px; fill: #555; }
.value { font-size: 11px; font-weight: 700; }
.legend { font-size: 12px; }
</style>
<rect width="100%" height="100%" fill="#fff"/>
<text class="title" x="40" y="34">Prompting Strategy: Human Likert Scores</text>
<text class="subtitle" x="40" y="56">Median score with sample size in each cell</text>
<text class="panel" x="40.0" y="68.0" text-anchor="start">Zero-shot</text>
<text class="label" x="259.0" y="104" text-anchor="middle">Llama</text>
<text class="label" x="361.0" y="104" text-anchor="middle">Mistral</text>
<text class="label" x="463.0" y="104" text-anchor="middle">DeepSeek</text>
<text class="label" x="565.0" y="104" text-anchor="middle">Qwen</text>
<text class="label" x="200" y="148" text-anchor="end">Completeness</text>
<rect x="208" y="122" width="100" height="40" fill="#f2f2f2" stroke="#fff"><title>Zero-shot | Llama | Completeness: </title></rect>
<text class="value" x="259.0" y="142" text-anchor="middle"></text>
<text class="tick" x="259.0" y="156" text-anchor="middle"></text>
<rect x="310" y="122" width="100" height="40" fill="#f2f2f2" stroke="#fff"><title>Zero-shot | Mistral | Completeness: </title></rect>
<text class="value" x="361.0" y="142" text-anchor="middle"></text>
<text class="tick" x="361.0" y="156" text-anchor="middle"></text>
<rect x="412" y="122" width="100" height="40" fill="#f2f2f2" stroke="#fff"><title>Zero-shot | DeepSeek | Completeness: </title></rect>
<text class="value" x="463.0" y="142" text-anchor="middle"></text>
<text class="tick" x="463.0" y="156" text-anchor="middle"></text>
<rect x="514" y="122" width="100" height="40" fill="#f2f2f2" stroke="#fff"><title>Zero-shot | Qwen | Completeness: </title></rect>
<text class="value" x="565.0" y="142" text-anchor="middle"></text>
<text class="tick" x="565.0" y="156" text-anchor="middle"></text>
<text class="label" x="200" y="190" text-anchor="end">Correctness</text>
<rect x="208" y="164" width="100" height="40" fill="#f2f2f2" stroke="#fff"><title>Zero-shot | Llama | Correctness: </title></rect>
<text class="value" x="259.0" y="184" text-anchor="middle"></text>
<text class="tick" x="259.0" y="198" text-anchor="middle"></text>
<rect x="310" y="164" width="100" height="40" fill="#f2f2f2" stroke="#fff"><title>Zero-shot | Mistral | Correctness: </title></rect>
<text class="value" x="361.0" y="184" text-anchor="middle"></text>
<text class="tick" x="361.0" y="198" text-anchor="middle"></text>
<rect x="412" y="164" width="100" height="40" fill="#f2f2f2" stroke="#fff"><title>Zero-shot | DeepSeek | Correctness: </title></rect>
<text class="value" x="463.0" y="184" text-anchor="middle"></text>
<text class="tick" x="463.0" y="198" text-anchor="middle"></text>
<rect x="514" y="164" width="100" height="40" fill="#f2f2f2" stroke="#fff"><title>Zero-shot | Qwen | Correctness: </title></rect>
<text class="value" x="565.0" y="184" text-anchor="middle"></text>
<text class="tick" x="565.0" y="198" text-anchor="middle"></text>
<text class="label" x="200" y="232" text-anchor="end">Understandability</text>
<rect x="208" y="206" width="100" height="40" fill="#f2f2f2" stroke="#fff"><title>Zero-shot | Llama | Understandability: </title></rect>
<text class="value" x="259.0" y="226" text-anchor="middle"></text>
<text class="tick" x="259.0" y="240" text-anchor="middle"></text>
<rect x="310" y="206" width="100" height="40" fill="#f2f2f2" stroke="#fff"><title>Zero-shot | Mistral | Understandability: </title></rect>
<text class="value" x="361.0" y="226" text-anchor="middle"></text>
<text class="tick" x="361.0" y="240" text-anchor="middle"></text>
<rect x="412" y="206" width="100" height="40" fill="#f2f2f2" stroke="#fff"><title>Zero-shot | DeepSeek | Understandability: </title></rect>
<text class="value" x="463.0" y="226" text-anchor="middle"></text>
<text class="tick" x="463.0" y="240" text-anchor="middle"></text>
<rect x="514" y="206" width="100" height="40" fill="#f2f2f2" stroke="#fff"><title>Zero-shot | Qwen | Understandability: </title></rect>
<text class="value" x="565.0" y="226" text-anchor="middle"></text>
<text class="tick" x="565.0" y="240" text-anchor="middle"></text>
<text class="label" x="200" y="274" text-anchor="end">Terminology alignment</text>
<rect x="208" y="248" width="100" height="40" fill="#f2f2f2" stroke="#fff"><title>Zero-shot | Llama | Terminology alignment: </title></rect>
<text class="value" x="259.0" y="268" text-anchor="middle"></text>
<text class="tick" x="259.0" y="282" text-anchor="middle"></text>
<rect x="310" y="248" width="100" height="40" fill="#f2f2f2" stroke="#fff"><title>Zero-shot | Mistral | Terminology alignment: </title></rect>
<text class="value" x="361.0" y="268" text-anchor="middle"></text>
<text class="tick" x="361.0" y="282" text-anchor="middle"></text>
<rect x="412" y="248" width="100" height="40" fill="#f2f2f2" stroke="#fff"><title>Zero-shot | DeepSeek | Terminology alignment: </title></rect>
<text class="value" x="463.0" y="268" text-anchor="middle"></text>
<text class="tick" x="463.0" y="282" text-anchor="middle"></text>
<rect x="514" y="248" width="100" height="40" fill="#f2f2f2" stroke="#fff"><title>Zero-shot | Qwen | Terminology alignment: </title></rect>
<text class="value" x="565.0" y="268" text-anchor="middle"></text>
<text class="tick" x="565.0" y="282" text-anchor="middle"></text>
<text class="panel" x="658.0" y="68.0" text-anchor="start">One-shot</text>
<text class="label" x="877.0" y="104" text-anchor="middle">Llama</text>
<text class="label" x="979.0" y="104" text-anchor="middle">Mistral</text>
<text class="label" x="1081.0" y="104" text-anchor="middle">DeepSeek</text>
<text class="label" x="1183.0" y="104" text-anchor="middle">Qwen</text>
<text class="label" x="818" y="148" text-anchor="end">Completeness</text>
<rect x="826" y="122" width="100" height="40" fill="#90d796" stroke="#fff"><title>One-shot | Llama | Completeness: 4 (n=10)</title></rect>
<text class="value" x="877.0" y="142" text-anchor="middle">4</text>
<text class="tick" x="877.0" y="156" text-anchor="middle">n=10</text>
<rect x="928" y="122" width="100" height="40" fill="#71cd76" stroke="#fff"><title>One-shot | Mistral | Completeness: 5 (n=2)</title></rect>
<text class="value" x="979.0" y="142" text-anchor="middle">5</text>
<text class="tick" x="979.0" y="156" text-anchor="middle">n=2</text>
<rect x="1030" y="122" width="100" height="40" fill="#90d796" stroke="#fff"><title>One-shot | DeepSeek | Completeness: 4 (n=6)</title></rect>
<text class="value" x="1081.0" y="142" text-anchor="middle">4</text>
<text class="tick" x="1081.0" y="156" text-anchor="middle">n=6</text>
<rect x="1132" y="122" width="100" height="40" fill="#9fdca6" stroke="#fff"><title>One-shot | Qwen | Completeness: 3.5 (n=2)</title></rect>
<text class="value" x="1183.0" y="142" text-anchor="middle">3.5</text>
<text class="tick" x="1183.0" y="156" text-anchor="middle">n=2</text>
<text class="label" x="818" y="190" text-anchor="end">Correctness</text>
<rect x="826" y="164" width="100" height="40" fill="#90d796" stroke="#fff"><title>One-shot | Llama | Correctness: 4 (n=10)</title></rect>
<text class="value" x="877.0" y="184" text-anchor="middle">4</text>
<text class="tick" x="877.0" y="198" text-anchor="middle">n=10</text>
<rect x="928" y="164" width="100" height="40" fill="#80d286" stroke="#fff"><title>One-shot | Mistral | Correctness: 4.5 (n=2)</title></rect>
<text class="value" x="979.0" y="184" text-anchor="middle">4.5</text>
<text class="tick" x="979.0" y="198" text-anchor="middle">n=2</text>
<rect x="1030" y="164" width="100" height="40" fill="#9fdca6" stroke="#fff"><title>One-shot | DeepSeek | Correctness: 3.5 (n=6)</title></rect>
<text class="value" x="1081.0" y="184" text-anchor="middle">3.5</text>
<text class="tick" x="1081.0" y="198" text-anchor="middle">n=6</text>
<rect x="1132" y="164" width="100" height="40" fill="#bfe6c7" stroke="#fff"><title>One-shot | Qwen | Correctness: 2.5 (n=2)</title></rect>
<text class="value" x="1183.0" y="184" text-anchor="middle">2.5</text>
<text class="tick" x="1183.0" y="198" text-anchor="middle">n=2</text>
<text class="label" x="818" y="232" text-anchor="end">Understandability</text>
<rect x="826" y="206" width="100" height="40" fill="#71cd76" stroke="#fff"><title>One-shot | Llama | Understandability: 5 (n=10)</title></rect>
<text class="value" x="877.0" y="226" text-anchor="middle">5</text>
<text class="tick" x="877.0" y="240" text-anchor="middle">n=10</text>
<rect x="928" y="206" width="100" height="40" fill="#80d286" stroke="#fff"><title>One-shot | Mistral | Understandability: 4.5 (n=2)</title></rect>
<text class="value" x="979.0" y="226" text-anchor="middle">4.5</text>
<text class="tick" x="979.0" y="240" text-anchor="middle">n=2</text>
<rect x="1030" y="206" width="100" height="40" fill="#9fdca6" stroke="#fff"><title>One-shot | DeepSeek | Understandability: 3.5 (n=6)</title></rect>
<text class="value" x="1081.0" y="226" text-anchor="middle">3.5</text>
<text class="tick" x="1081.0" y="240" text-anchor="middle">n=6</text>
<rect x="1132" y="206" width="100" height="40" fill="#bfe6c7" stroke="#fff"><title>One-shot | Qwen | Understandability: 2.5 (n=2)</title></rect>
<text class="value" x="1183.0" y="226" text-anchor="middle">2.5</text>
<text class="tick" x="1183.0" y="240" text-anchor="middle">n=2</text>
<text class="label" x="818" y="274" text-anchor="end">Terminology alignment</text>
<rect x="826" y="248" width="100" height="40" fill="#71cd76" stroke="#fff"><title>One-shot | Llama | Terminology alignment: 5 (n=10)</title></rect>
<text class="value" x="877.0" y="268" text-anchor="middle">5</text>
<text class="tick" x="877.0" y="282" text-anchor="middle">n=10</text>
<rect x="928" y="248" width="100" height="40" fill="#9fdca6" stroke="#fff"><title>One-shot | Mistral | Terminology alignment: 3.5 (n=2)</title></rect>
<text class="value" x="979.0" y="268" text-anchor="middle">3.5</text>
<text class="tick" x="979.0" y="282" text-anchor="middle">n=2</text>
<rect x="1030" y="248" width="100" height="40" fill="#90d796" stroke="#fff"><title>One-shot | DeepSeek | Terminology alignment: 4 (n=6)</title></rect>
<text class="value" x="1081.0" y="268" text-anchor="middle">4</text>
<text class="tick" x="1081.0" y="282" text-anchor="middle">n=6</text>
<rect x="1132" y="248" width="100" height="40" fill="#afe1b7" stroke="#fff"><title>One-shot | Qwen | Terminology alignment: 3 (n=2)</title></rect>
<text class="value" x="1183.0" y="268" text-anchor="middle">3</text>
<text class="tick" x="1183.0" y="282" text-anchor="middle">n=2</text>
<text class="panel" x="1276.0" y="68.0" text-anchor="start">Few-shot</text>
<text class="label" x="1495.0" y="104" text-anchor="middle">Llama</text>
<text class="label" x="1597.0" y="104" text-anchor="middle">Mistral</text>
<text class="label" x="1699.0" y="104" text-anchor="middle">DeepSeek</text>
<text class="label" x="1801.0" y="104" text-anchor="middle">Qwen</text>
<text class="label" x="1436" y="148" text-anchor="end">Completeness</text>
<rect x="1444" y="122" width="100" height="40" fill="#afe1b7" stroke="#fff"><title>Few-shot | Llama | Completeness: 3 (n=19)</title></rect>
<text class="value" x="1495.0" y="142" text-anchor="middle">3</text>
<text class="tick" x="1495.0" y="156" text-anchor="middle">n=19</text>
<rect x="1546" y="122" width="100" height="40" fill="#90d796" stroke="#fff"><title>Few-shot | Mistral | Completeness: 4 (n=4)</title></rect>
<text class="value" x="1597.0" y="142" text-anchor="middle">4</text>
<text class="tick" x="1597.0" y="156" text-anchor="middle">n=4</text>
<rect x="1648" y="122" width="100" height="40" fill="#90d796" stroke="#fff"><title>Few-shot | DeepSeek | Completeness: 4 (n=12)</title></rect>
<text class="value" x="1699.0" y="142" text-anchor="middle">4</text>
<text class="tick" x="1699.0" y="156" text-anchor="middle">n=12</text>
<rect x="1750" y="122" width="100" height="40" fill="#90d796" stroke="#fff"><title>Few-shot | Qwen | Completeness: 4 (n=6)</title></rect>
<text class="value" x="1801.0" y="142" text-anchor="middle">4</text>
<text class="tick" x="1801.0" y="156" text-anchor="middle">n=6</text>
<text class="label" x="1436" y="190" text-anchor="end">Correctness</text>
<rect x="1444" y="164" width="100" height="40" fill="#afe1b7" stroke="#fff"><title>Few-shot | Llama | Correctness: 3 (n=19)</title></rect>
<text class="value" x="1495.0" y="184" text-anchor="middle">3</text>
<text class="tick" x="1495.0" y="198" text-anchor="middle">n=19</text>
<rect x="1546" y="164" width="100" height="40" fill="#90d796" stroke="#fff"><title>Few-shot | Mistral | Correctness: 4 (n=4)</title></rect>
<text class="value" x="1597.0" y="184" text-anchor="middle">4</text>
<text class="tick" x="1597.0" y="198" text-anchor="middle">n=4</text>
<rect x="1648" y="164" width="100" height="40" fill="#90d796" stroke="#fff"><title>Few-shot | DeepSeek | Correctness: 4 (n=12)</title></rect>
<text class="value" x="1699.0" y="184" text-anchor="middle">4</text>
<text class="tick" x="1699.0" y="198" text-anchor="middle">n=12</text>
<rect x="1750" y="164" width="100" height="40" fill="#90d796" stroke="#fff"><title>Few-shot | Qwen | Correctness: 4 (n=6)</title></rect>
<text class="value" x="1801.0" y="184" text-anchor="middle">4</text>
<text class="tick" x="1801.0" y="198" text-anchor="middle">n=6</text>
<text class="label" x="1436" y="232" text-anchor="end">Understandability</text>
<rect x="1444" y="206" width="100" height="40" fill="#71cd76" stroke="#fff"><title>Few-shot | Llama | Understandability: 5 (n=19)</title></rect>
<text class="value" x="1495.0" y="226" text-anchor="middle">5</text>
<text class="tick" x="1495.0" y="240" text-anchor="middle">n=19</text>
<rect x="1546" y="206" width="100" height="40" fill="#80d286" stroke="#fff"><title>Few-shot | Mistral | Understandability: 4.5 (n=4)</title></rect>
<text class="value" x="1597.0" y="226" text-anchor="middle">4.5</text>
<text class="tick" x="1597.0" y="240" text-anchor="middle">n=4</text>
<rect x="1648" y="206" width="100" height="40" fill="#71cd76" stroke="#fff"><title>Few-shot | DeepSeek | Understandability: 5 (n=12)</title></rect>
<text class="value" x="1699.0" y="226" text-anchor="middle">5</text>
<text class="tick" x="1699.0" y="240" text-anchor="middle">n=12</text>
<rect x="1750" y="206" width="100" height="40" fill="#71cd76" stroke="#fff"><title>Few-shot | Qwen | Understandability: 5 (n=6)</title></rect>
<text class="value" x="1801.0" y="226" text-anchor="middle">5</text>
<text class="tick" x="1801.0" y="240" text-anchor="middle">n=6</text>
<text class="label" x="1436" y="274" text-anchor="end">Terminology alignment</text>
<rect x="1444" y="248" width="100" height="40" fill="#71cd76" stroke="#fff"><title>Few-shot | Llama | Terminology alignment: 5 (n=19)</title></rect>
<text class="value" x="1495.0" y="268" text-anchor="middle">5</text>
<text class="tick" x="1495.0" y="282" text-anchor="middle">n=19</text>
<rect x="1546" y="248" width="100" height="40" fill="#80d286" stroke="#fff"><title>Few-shot | Mistral | Terminology alignment: 4.5 (n=4)</title></rect>
<text class="value" x="1597.0" y="268" text-anchor="middle">4.5</text>
<text class="tick" x="1597.0" y="282" text-anchor="middle">n=4</text>
<rect x="1648" y="248" width="100" height="40" fill="#71cd76" stroke="#fff"><title>Few-shot | DeepSeek | Terminology alignment: 5 (n=12)</title></rect>
<text class="value" x="1699.0" y="268" text-anchor="middle">5</text>
<text class="tick" x="1699.0" y="282" text-anchor="middle">n=12</text>
<rect x="1750" y="248" width="100" height="40" fill="#71cd76" stroke="#fff"><title>Few-shot | Qwen | Terminology alignment: 5 (n=6)</title></rect>
<text class="value" x="1801.0" y="268" text-anchor="middle">5</text>
<text class="tick" x="1801.0" y="282" text-anchor="middle">n=6</text>
<text class="panel" x="1894.0" y="68.0" text-anchor="start">RAG</text>
<text class="label" x="2113.0" y="104" text-anchor="middle">Llama</text>
<text class="label" x="2215.0" y="104" text-anchor="middle">Mistral</text>
<text class="label" x="2317.0" y="104" text-anchor="middle">DeepSeek</text>
<text class="label" x="2419.0" y="104" text-anchor="middle">Qwen</text>
<text class="label" x="2054" y="148" text-anchor="end">Completeness</text>
<rect x="2062" y="122" width="100" height="40" fill="#afe1b7" stroke="#fff"><title>RAG | Llama | Completeness: 3 (n=12)</title></rect>
<text class="value" x="2113.0" y="142" text-anchor="middle">3</text>
<text class="tick" x="2113.0" y="156" text-anchor="middle">n=12</text>
<rect x="2164" y="122" width="100" height="40" fill="#80d286" stroke="#fff"><title>RAG | Mistral | Completeness: 4.5 (n=8)</title></rect>
<text class="value" x="2215.0" y="142" text-anchor="middle">4.5</text>
<text class="tick" x="2215.0" y="156" text-anchor="middle">n=8</text>
<rect x="2266" y="122" width="100" height="40" fill="#80d286" stroke="#fff"><title>RAG | DeepSeek | Completeness: 4.5 (n=8)</title></rect>
<text class="value" x="2317.0" y="142" text-anchor="middle">4.5</text>
<text class="tick" x="2317.0" y="156" text-anchor="middle">n=8</text>
<rect x="2368" y="122" width="100" height="40" fill="#afe1b7" stroke="#fff"><title>RAG | Qwen | Completeness: 3 (n=8)</title></rect>
<text class="value" x="2419.0" y="142" text-anchor="middle">3</text>
<text class="tick" x="2419.0" y="156" text-anchor="middle">n=8</text>
<text class="label" x="2054" y="190" text-anchor="end">Correctness</text>
<rect x="2062" y="164" width="100" height="40" fill="#afe1b7" stroke="#fff"><title>RAG | Llama | Correctness: 3 (n=12)</title></rect>
<text class="value" x="2113.0" y="184" text-anchor="middle">3</text>
<text class="tick" x="2113.0" y="198" text-anchor="middle">n=12</text>
<rect x="2164" y="164" width="100" height="40" fill="#90d796" stroke="#fff"><title>RAG | Mistral | Correctness: 4 (n=8)</title></rect>
<text class="value" x="2215.0" y="184" text-anchor="middle">4</text>
<text class="tick" x="2215.0" y="198" text-anchor="middle">n=8</text>
<rect x="2266" y="164" width="100" height="40" fill="#80d286" stroke="#fff"><title>RAG | DeepSeek | Correctness: 4.5 (n=8)</title></rect>
<text class="value" x="2317.0" y="184" text-anchor="middle">4.5</text>
<text class="tick" x="2317.0" y="198" text-anchor="middle">n=8</text>
<rect x="2368" y="164" width="100" height="40" fill="#9fdca6" stroke="#fff"><title>RAG | Qwen | Correctness: 3.5 (n=8)</title></rect>
<text class="value" x="2419.0" y="184" text-anchor="middle">3.5</text>
<text class="tick" x="2419.0" y="198" text-anchor="middle">n=8</text>
<text class="label" x="2054" y="232" text-anchor="end">Understandability</text>
<rect x="2062" y="206" width="100" height="40" fill="#80d286" stroke="#fff"><title>RAG | Llama | Understandability: 4.5 (n=12)</title></rect>
<text class="value" x="2113.0" y="226" text-anchor="middle">4.5</text>
<text class="tick" x="2113.0" y="240" text-anchor="middle">n=12</text>
<rect x="2164" y="206" width="100" height="40" fill="#71cd76" stroke="#fff"><title>RAG | Mistral | Understandability: 5 (n=8)</title></rect>
<text class="value" x="2215.0" y="226" text-anchor="middle">5</text>
<text class="tick" x="2215.0" y="240" text-anchor="middle">n=8</text>
<rect x="2266" y="206" width="100" height="40" fill="#71cd76" stroke="#fff"><title>RAG | DeepSeek | Understandability: 5 (n=8)</title></rect>
<text class="value" x="2317.0" y="226" text-anchor="middle">5</text>
<text class="tick" x="2317.0" y="240" text-anchor="middle">n=8</text>
<rect x="2368" y="206" width="100" height="40" fill="#80d286" stroke="#fff"><title>RAG | Qwen | Understandability: 4.5 (n=8)</title></rect>
<text class="value" x="2419.0" y="226" text-anchor="middle">4.5</text>
<text class="tick" x="2419.0" y="240" text-anchor="middle">n=8</text>
<text class="label" x="2054" y="274" text-anchor="end">Terminology alignment</text>
<rect x="2062" y="248" width="100" height="40" fill="#80d286" stroke="#fff"><title>RAG | Llama | Terminology alignment: 4.5 (n=12)</title></rect>
<text class="value" x="2113.0" y="268" text-anchor="middle">4.5</text>
<text class="tick" x="2113.0" y="282" text-anchor="middle">n=12</text>
<rect x="2164" y="248" width="100" height="40" fill="#90d796" stroke="#fff"><title>RAG | Mistral | Terminology alignment: 4 (n=8)</title></rect>
<text class="value" x="2215.0" y="268" text-anchor="middle">4</text>
<text class="tick" x="2215.0" y="282" text-anchor="middle">n=8</text>
<rect x="2266" y="248" width="100" height="40" fill="#71cd76" stroke="#fff"><title>RAG | DeepSeek | Terminology alignment: 5 (n=8)</title></rect>
<text class="value" x="2317.0" y="268" text-anchor="middle">5</text>
<text class="tick" x="2317.0" y="282" text-anchor="middle">n=8</text>
<rect x="2368" y="248" width="100" height="40" fill="#9fdca6" stroke="#fff"><title>RAG | Qwen | Terminology alignment: 3.5 (n=8)</title></rect>
<text class="value" x="2419.0" y="268" text-anchor="middle">3.5</text>
<text class="tick" x="2419.0" y="282" text-anchor="middle">n=8</text>
<text class="tick" x="40" y="378">Darker cells indicate higher median Likert score.</text>
</svg>