<svg xmlns="http://www.w3.org/2000/svg" width="3590" height="286" viewBox="0 0 3590 286">
<style>
text { font-family: Arial, Helvetica, sans-serif; fill: #222; }
.title { font-size: 24px; font-weight: 700; }
.subtitle { font-size: 13px; fill: #555; }
.panel { font-size: 15px; font-weight: 700; }
.axis { stroke: #333; stroke-width: 1.2; }
.grid { stroke: #ddd; stroke-width: 1; }
.label { font-size: 12px; }
.tick { font-size: 11px; fill: #555; }
.value { font-size: 11px; font-weight: 700; }
.legend { font-size: 12px; }
</style>
<rect width="100%" height="100%" fill="#fff"/>
<text class="title" x="40" y="34">Repair Iterations: Automatic Validity</text>
<text class="subtitle" x="40" y="56">Structural and syntactic validity percentages</text>
<text class="panel" x="40.0" y="68.0" text-anchor="start">Repair at zero</text>
<text class="panel" x="40.0" y="84.0" text-anchor="start">iterations</text>
<text class="label" x="233.0" y="104" text-anchor="middle">Llama</text>
<text class="label" x="335.0" y="104" text-anchor="middle">Mistral</text>
<text class="label" x="437.0" y="104" text-anchor="middle">DeepSeek</text>
<text class="label" x="539.0" y="104" text-anchor="middle">Qwen</text>
<text class="label" x="174" y="147" text-anchor="end">Structural</text>
<rect x="182" y="122" width="100" height="38" fill="#61b0a8" stroke="#fff"><title>Repair at zero iterations | Llama | Structural validity: 100.00% (n=8/8)</title></rect>
<text class="value" x="233.0" y="146" text-anchor="middle">100%</text>
<rect x="284" y="122" width="100" height="38" fill="#61b0a8" stroke="#fff"><title>Repair at zero iterations | Mistral | Structural validity: 100.00% (n=4/4)</title></rect>
<text class="value" x="335.0" y="146" text-anchor="middle">100%</text>
<rect x="386" y="122" width="100" height="38" fill="#61b0a8" stroke="#fff"><title>Repair at zero iterations | DeepSeek | Structural validity: 100.00% (n=6/6)</title></rect>
<text class="value" x="437.0" y="146" text-anchor="middle">100%</text>
<rect x="488" y="122" width="100" height="38" fill="#61b0a8" stroke="#fff"><title>Repair at zero iterations | Qwen | Structural validity: 100.00% (n=4/4)</title></rect>
<text class="value" x="539.0" y="146" text-anchor="middle">100%</text>
<text class="label" x="174" y="187" text-anchor="end">Syntactic</text>
<rect x="182" y="162" width="100" height="38" fill="#61b0a8" stroke="#fff"><title>Repair at zero iterations | Llama | Syntactic validity: 100.00% (n=8/8)</title></rect>
<text class="value" x="233.0" y="186" text-anchor="middle">100%</text>
<rect x="284" y="162" width="100" height="38" fill="#61b0a8" stroke="#fff"><title>Repair at zero iterations | Mistral | Syntactic validity: 100.00% (n=4/4)</title></rect>
<text class="value" x="335.0" y="186" text-anchor="middle">100%</text>
<rect x="386" y="162" width="100" height="38" fill="#61b0a8" stroke="#fff"><title>Repair at zero iterations | DeepSeek | Syntactic validity: 100.00% (n=6/6)</title></rect>
<text class="value" x="437.0" y="186" text-anchor="middle">100%</text>
<rect x="488" y="162" width="100" height="38" fill="#61b0a8" stroke="#fff"><title>Repair at zero iterations | Qwen | Syntactic validity: 100.00% (n=4/4)</title></rect>
<text class="value" x="539.0" y="186" text-anchor="middle">100%</text>
<text class="panel" x="632.0" y="68.0" text-anchor="start">Repair at once</text>
<text class="label" x="825.0" y="104" text-anchor="middle">Llama</text>
<text class="label" x="927.0" y="104" text-anchor="middle">Mistral</text>
<text class="label" x="1029.0" y="104" text-anchor="middle">DeepSeek</text>
<text class="label" x="1131.0" y="104" text-anchor="middle">Qwen</text>
<text class="label" x="766" y="147" text-anchor="end">Structural</text>
<rect x="774" y="122" width="100" height="38" fill="#61b0a8" stroke="#fff"><title>Repair at once | Llama | Structural validity: 100.00% (n=6/6)</title></rect>
<text class="value" x="825.0" y="146" text-anchor="middle">100%</text>
<rect x="876" y="122" width="100" height="38" fill="#61b0a8" stroke="#fff"><title>Repair at once | Mistral | Structural validity: 100.00% (n=3/3)</title></rect>
<text class="value" x="927.0" y="146" text-anchor="middle">100%</text>
<rect x="978" y="122" width="100" height="38" fill="#61b0a8" stroke="#fff"><title>Repair at once | DeepSeek | Structural validity: 100.00% (n=11/11)</title></rect>
<text class="value" x="1029.0" y="146" text-anchor="middle">100%</text>
<rect x="1080" y="122" width="100" height="38" fill="#61b0a8" stroke="#fff"><title>Repair at once | Qwen | Structural validity: 100.00% (n=4/4)</title></rect>
<text class="value" x="1131.0" y="146" text-anchor="middle">100%</text>
<text class="label" x="766" y="187" text-anchor="end">Syntactic</text>
<rect x="774" y="162" width="100" height="38" fill="#61b0a8" stroke="#fff"><title>Repair at once | Llama | Syntactic validity: 100.00% (n=6/6)</title></rect>
<text class="value" x="825.0" y="186" text-anchor="middle">100%</text>
<rect x="876" y="162" width="100" height="38" fill="#61b0a8" stroke="#fff"><title>Repair at once | Mistral | Syntactic validity: 100.00% (n=3/3)</title></rect>
<text class="value" x="927.0" y="186" text-anchor="middle">100%</text>
<rect x="978" y="162" width="100" height="38" fill="#61b0a8" stroke="#fff"><title>Repair at once | DeepSeek | Syntactic validity: 100.00% (n=11/11)</title></rect>
<text class="value" x="1029.0" y="186" text-anchor="middle">100%</text>
<rect x="1080" y="162" width="100" height="38" fill="#61b0a8" stroke="#fff"><title>Repair at once | Qwen | Syntactic validity: 100.00% (n=4/4)</title></rect>
<text class="value" x="1131.0" y="186" text-anchor="middle">100%</text>
<text class="panel" x="1224.0" y="68.0" text-anchor="start">Repair at two</text>
<text class="panel" x="1224.0" y="84.0" text-anchor="start">iterations</text>
<text class="label" x="1417.0" y="104" text-anchor="middle">Llama</text>
<text class="label" x="1519.0" y="104" text-anchor="middle">Mistral</text>
<text class="label" x="1621.0" y="104" text-anchor="middle">DeepSeek</text>
<text class="label" x="1723.0" y="104" text-anchor="middle">Qwen</text>
<text class="label" x="1358" y="147" text-anchor="end">Structural</text>
<rect x="1366" y="122" width="100" height="38" fill="#f2f2f2" stroke="#fff"><title>Repair at two iterations | Llama | Structural validity: </title></rect>
<text class="value" x="1417.0" y="146" text-anchor="middle"></text>
<rect x="1468" y="122" width="100" height="38" fill="#61b0a8" stroke="#fff"><title>Repair at two iterations | Mistral | Structural validity: 100.00% (n=1/1)</title></rect>
<text class="value" x="1519.0" y="146" text-anchor="middle">100%</text>
<rect x="1570" y="122" width="100" height="38" fill="#61b0a8" stroke="#fff"><title>Repair at two iterations | DeepSeek | Structural validity: 100.00% (n=3/3)</title></rect>
<text class="value" x="1621.0" y="146" text-anchor="middle">100%</text>
<rect x="1672" y="122" width="100" height="38" fill="#61b0a8" stroke="#fff"><title>Repair at two iterations | Qwen | Structural validity: 100.00% (n=3/3)</title></rect>
<text class="value" x="1723.0" y="146" text-anchor="middle">100%</text>
<text class="label" x="1358" y="187" text-anchor="end">Syntactic</text>
<rect x="1366" y="162" width="100" height="38" fill="#f2f2f2" stroke="#fff"><title>Repair at two iterations | Llama | Syntactic validity: </title></rect>
<text class="value" x="1417.0" y="186" text-anchor="middle"></text>
<rect x="1468" y="162" width="100" height="38" fill="#61b0a8" stroke="#fff"><title>Repair at two iterations | Mistral | Syntactic validity: 100.00% (n=1/1)</title></rect>
<text class="value" x="1519.0" y="186" text-anchor="middle">100%</text>
<rect x="1570" y="162" width="100" height="38" fill="#61b0a8" stroke="#fff"><title>Repair at two iterations | DeepSeek | Syntactic validity: 100.00% (n=3/3)</title></rect>
<text class="value" x="1621.0" y="186" text-anchor="middle">100%</text>
<rect x="1672" y="162" width="100" height="38" fill="#61b0a8" stroke="#fff"><title>Repair at two iterations | Qwen | Syntactic validity: 100.00% (n=3/3)</title></rect>
<text class="value" x="1723.0" y="186" text-anchor="middle">100%</text>
<text class="panel" x="1816.0" y="68.0" text-anchor="start">Repair at three</text>
<text class="panel" x="1816.0" y="84.0" text-anchor="start">iterations</text>
<text class="label" x="2009.0" y="104" text-anchor="middle">Llama</text>
<text class="label" x="2111.0" y="104" text-anchor="middle">Mistral</text>
<text class="label" x="2213.0" y="104" text-anchor="middle">DeepSeek</text>
<text class="label" x="2315.0" y="104" text-anchor="middle">Qwen</text>
<text class="label" x="1950" y="147" text-anchor="end">Structural</text>
<rect x="1958" y="122" width="100" height="38" fill="#61b0a8" stroke="#fff"><title>Repair at three iterations | Llama | Structural validity: 100.00% (n=1/1)</title></rect>
<text class="value" x="2009.0" y="146" text-anchor="middle">100%</text>
<rect x="2060" y="122" width="100" height="38" fill="#f2f2f2" stroke="#fff"><title>Repair at three iterations | Mistral | Structural validity: </title></rect>
<text class="value" x="2111.0" y="146" text-anchor="middle"></text>
<rect x="2162" y="122" width="100" height="38" fill="#61b0a8" stroke="#fff"><title>Repair at three iterations | DeepSeek | Structural validity: 100.00% (n=2/2)</title></rect>
<text class="value" x="2213.0" y="146" text-anchor="middle">100%</text>
<rect x="2264" y="122" width="100" height="38" fill="#f2f2f2" stroke="#fff"><title>Repair at three iterations | Qwen | Structural validity: </title></rect>
<text class="value" x="2315.0" y="146" text-anchor="middle"></text>
<text class="label" x="1950" y="187" text-anchor="end">Syntactic</text>
<rect x="1958" y="162" width="100" height="38" fill="#61b0a8" stroke="#fff"><title>Repair at three iterations | Llama | Syntactic validity: 100.00% (n=1/1)</title></rect>
<text class="value" x="2009.0" y="186" text-anchor="middle">100%</text>
<rect x="2060" y="162" width="100" height="38" fill="#f2f2f2" stroke="#fff"><title>Repair at three iterations | Mistral | Syntactic validity: </title></rect>
<text class="value" x="2111.0" y="186" text-anchor="middle"></text>
<rect x="2162" y="162" width="100" height="38" fill="#61b0a8" stroke="#fff"><title>Repair at three iterations | DeepSeek | Syntactic validity: 100.00% (n=2/2)</title></rect>
<text class="value" x="2213.0" y="186" text-anchor="middle">100%</text>
<rect x="2264" y="162" width="100" height="38" fill="#f2f2f2" stroke="#fff"><title>Repair at three iterations | Qwen | Syntactic validity: </title></rect>
<text class="value" x="2315.0" y="186" text-anchor="middle"></text>
<text class="panel" x="2408.0" y="68.0" text-anchor="start">Repair at four</text>
<text class="panel" x="2408.0" y="84.0" text-anchor="start">iterations</text>
<text class="label" x="2601.0" y="104" text-anchor="middle">Llama</text>
<text class="label" x="2703.0" y="104" text-anchor="middle">Mistral</text>
<text class="label" x="2805.0" y="104" text-anchor="middle">DeepSeek</text>
<text class="label" x="2907.0" y="104" text-anchor="middle">Qwen</text>
<text class="label" x="2542" y="147" text-anchor="end">Structural</text>
<rect x="2550" y="122" width="100" height="38" fill="#f2f2f2" stroke="#fff"><title>Repair at four iterations | Llama | Structural validity: </title></rect>
<text class="value" x="2601.0" y="146" text-anchor="middle"></text>
<rect x="2652" y="122" width="100" height="38" fill="#f2f2f2" stroke="#fff"><title>Repair at four iterations | Mistral | Structural validity: </title></rect>
<text class="value" x="2703.0" y="146" text-anchor="middle"></text>
<rect x="2754" y="122" width="100" height="38" fill="#61b0a8" stroke="#fff"><title>Repair at four iterations | DeepSeek | Structural validity: 100.00% (n=2/2)</title></rect>
<text class="value" x="2805.0" y="146" text-anchor="middle">100%</text>
<rect x="2856" y="122" width="100" height="38" fill="#f2f2f2" stroke="#fff"><title>Repair at four iterations | Qwen | Structural validity: </title></rect>
<text class="value" x="2907.0" y="146" text-anchor="middle"></text>
<text class="label" x="2542" y="187" text-anchor="end">Syntactic</text>
<rect x="2550" y="162" width="100" height="38" fill="#f2f2f2" stroke="#fff"><title>Repair at four iterations | Llama | Syntactic validity: </title></rect>
<text class="value" x="2601.0" y="186" text-anchor="middle"></text>
<rect x="2652" y="162" width="100" height="38" fill="#f2f2f2" stroke="#fff"><title>Repair at four iterations | Mistral | Syntactic validity: </title></rect>
<text class="value" x="2703.0" y="186" text-anchor="middle"></text>
<rect x="2754" y="162" width="100" height="38" fill="#61b0a8" stroke="#fff"><title>Repair at four iterations | DeepSeek | Syntactic validity: 100.00% (n=2/2)</title></rect>
<text class="value" x="2805.0" y="186" text-anchor="middle">100%</text>
<rect x="2856" y="162" width="100" height="38" fill="#f2f2f2" stroke="#fff"><title>Repair at four iterations | Qwen | Syntactic validity: </title></rect>
<text class="value" x="2907.0" y="186" text-anchor="middle"></text>
<text class="panel" x="3000.0" y="68.0" text-anchor="start">Repair at five</text>
<text class="panel" x="3000.0" y="84.0" text-anchor="start">iterations</text>
<text class="label" x="3193.0" y="104" text-anchor="middle">Llama</text>
<text class="label" x="3295.0" y="104" text-anchor="middle">Mistral</text>
<text class="label" x="3397.0" y="104" text-anchor="middle">DeepSeek</text>
<text class="label" x="3499.0" y="104" text-anchor="middle">Qwen</text>
<text class="label" x="3134" y="147" text-anchor="end">Structural</text>
<rect x="3142" y="122" width="100" height="38" fill="#f2f2f2" stroke="#fff"><title>Repair at five iterations | Llama | Structural validity: </title></rect>
<text class="value" x="3193.0" y="146" text-anchor="middle"></text>
<rect x="3244" y="122" width="100" height="38" fill="#f2f2f2" stroke="#fff"><title>Repair at five iterations | Mistral | Structural validity: </title></rect>
<text class="value" x="3295.0" y="146" text-anchor="middle"></text>
<rect x="3346" y="122" width="100" height="38" fill="#f2f2f2" stroke="#fff"><title>Repair at five iterations | DeepSeek | Structural validity: </title></rect>
<text class="value" x="3397.0" y="146" text-anchor="middle"></text>
<rect x="3448" y="122" width="100" height="38" fill="#f2f2f2" stroke="#fff"><title>Repair at five iterations | Qwen | Structural validity: </title></rect>
<text class="value" x="3499.0" y="146" text-anchor="middle"></text>
<text class="label" x="3134" y="187" text-anchor="end">Syntactic</text>
<rect x="3142" y="162" width="100" height="38" fill="#f2f2f2" stroke="#fff"><title>Repair at five iterations | Llama | Syntactic validity: </title></rect>
<text class="value" x="3193.0" y="186" text-anchor="middle"></text>
<rect x="3244" y="162" width="100" height="38" fill="#f2f2f2" stroke="#fff"><title>Repair at five iterations | Mistral | Syntactic validity: </title></rect>
<text class="value" x="3295.0" y="186" text-anchor="middle"></text>
<rect x="3346" y="162" width="100" height="38" fill="#f2f2f2" stroke="#fff"><title>Repair at five iterations | DeepSeek | Syntactic validity: </title></rect>
<text class="value" x="3397.0" y="186" text-anchor="middle"></text>
<rect x="3448" y="162" width="100" height="38" fill="#f2f2f2" stroke="#fff"><title>Repair at five iterations | Qwen | Syntactic validity: </title></rect>
<text class="value" x="3499.0" y="186" text-anchor="middle"></text>
</svg>