<svg xmlns="http://www.w3.org/2000/svg" width="1190" height="620" viewBox="0 0 1190 620">
<style>
text { font-family: Arial, Helvetica, sans-serif; fill: #222; }
.title { font-size: 24px; font-weight: 700; }
.subtitle { font-size: 13px; fill: #555; }
.panel { font-size: 15px; font-weight: 700; }
.axis { stroke: #333; stroke-width: 1.2; }
.grid { stroke: #ddd; stroke-width: 1; }
.label { font-size: 12px; }
.tick { font-size: 11px; fill: #555; }
.value { font-size: 11px; font-weight: 700; }
.legend { font-size: 12px; }
</style>
<rect width="100%" height="100%" fill="#fff"/>
<text class="title" x="40" y="34">Repair Iterations: Average Human Score</text>
<text class="subtitle" x="40" y="56">Average of completeness, correctness, understandability, and terminology medians</text>
<line class="grid" x1="78" y1="442.0" x2="1142" y2="442.0"/>
<text class="tick" x="66" y="446.0" text-anchor="end">1</text>
<line class="grid" x1="78" y1="354.5" x2="1142" y2="354.5"/>
<text class="tick" x="66" y="358.5" text-anchor="end">2</text>
<line class="grid" x1="78" y1="267.0" x2="1142" y2="267.0"/>
<text class="tick" x="66" y="271.0" text-anchor="end">3</text>
<line class="grid" x1="78" y1="179.5" x2="1142" y2="179.5"/>
<text class="tick" x="66" y="183.5" text-anchor="end">4</text>
<line class="grid" x1="78" y1="92.0" x2="1142" y2="92.0"/>
<text class="tick" x="66" y="96.0" text-anchor="end">5</text>
<line class="axis" x1="78" y1="92" x2="78" y2="442"/>
<line class="axis" x1="78" y1="442" x2="1142" y2="442"/>
<rect x="78.0" y="157.6" width="37.6" height="284.4" fill="#4E79A7" rx="2"><title>Repair at once | Llama average: 4.25</title></rect>
<text class="value" x="96.8" y="151.6" text-anchor="middle">4.25</text>
<rect x="123.6" y="135.8" width="37.6" height="306.2" fill="#F28E2B" rx="2"><title>Repair at once | Mistral average: 4.50</title></rect>
<text class="value" x="142.4" y="129.8" text-anchor="middle">4.50</text>
<rect x="169.2" y="135.8" width="37.6" height="306.2" fill="#59A14F" rx="2"><title>Repair at once | DeepSeek average: 4.50</title></rect>
<text class="value" x="188.0" y="129.8" text-anchor="middle">4.50</text>
<rect x="214.8" y="223.2" width="37.6" height="218.8" fill="#E15759" rx="2"><title>Repair at once | Qwen average: 3.50</title></rect>
<text class="value" x="233.6" y="217.2" text-anchor="middle">3.50</text>
<text class="label" x="165.2" y="472.0" text-anchor="middle">Repair at once</text>
<rect x="346.0" y="168.6" width="37.6" height="273.4" fill="#F28E2B" rx="2"><title>Repair at two iterations | Mistral average: 4.12</title></rect>
<text class="value" x="364.8" y="162.6" text-anchor="middle">4.12</text>
<rect x="391.6" y="113.9" width="37.6" height="328.1" fill="#59A14F" rx="2"><title>Repair at two iterations | DeepSeek average: 4.75</title></rect>
<text class="value" x="410.4" y="107.9" text-anchor="middle">4.75</text>
<rect x="437.2" y="201.4" width="37.6" height="240.6" fill="#E15759" rx="2"><title>Repair at two iterations | Qwen average: 3.75</title></rect>
<text class="value" x="456.0" y="195.4" text-anchor="middle">3.75</text>
<text class="label" x="387.6" y="472.0" text-anchor="middle">Repair at two</text>
<text class="label" x="387.6" y="486.0" text-anchor="middle">iterations</text>
<rect x="522.8" y="212.3" width="37.6" height="229.7" fill="#4E79A7" rx="2"><title>Repair at three iterations | Llama average: 3.62</title></rect>
<text class="value" x="541.6" y="206.3" text-anchor="middle">3.62</text>
<rect x="614.0" y="168.6" width="37.6" height="273.4" fill="#59A14F" rx="2"><title>Repair at three iterations | DeepSeek average: 4.12</title></rect>
<text class="value" x="632.8" y="162.6" text-anchor="middle">4.12</text>
<text class="label" x="610.0" y="472.0" text-anchor="middle">Repair at three</text>
<text class="label" x="610.0" y="486.0" text-anchor="middle">iterations</text>
<rect x="836.4" y="310.8" width="37.6" height="131.2" fill="#59A14F" rx="2"><title>Repair at four iterations | DeepSeek average: 2.50</title></rect>
<text class="value" x="855.2" y="304.8" text-anchor="middle">2.50</text>
<text class="label" x="832.4" y="472.0" text-anchor="middle">Repair at four</text>
<text class="label" x="832.4" y="486.0" text-anchor="middle">iterations</text>
<text class="label" x="1054.8" y="472.0" text-anchor="middle">Repair at five</text>
<text class="label" x="1054.8" y="486.0" text-anchor="middle">iterations</text>
<rect x="78" y="564" width="14" height="14" fill="#4E79A7" rx="2"/>
<text class="legend" x="98" y="576">Llama</text>
<rect x="194" y="564" width="14" height="14" fill="#F28E2B" rx="2"/>
<text class="legend" x="214" y="576">Mistral</text>
<rect x="310" y="564" width="14" height="14" fill="#59A14F" rx="2"/>
<text class="legend" x="330" y="576">DeepSeek</text>
<rect x="426" y="564" width="14" height="14" fill="#E15759" rx="2"/>
<text class="legend" x="446" y="576">Qwen</text>
</svg>