<svg xmlns="http://www.w3.org/2000/svg" width="656" height="398" viewBox="0 0 656 398">
<style>
text { font-family: Arial, Helvetica, sans-serif; fill: #222; }
.title { font-size: 24px; font-weight: 700; }
.subtitle { font-size: 13px; fill: #555; }
.panel { font-size: 15px; font-weight: 700; }
.axis { stroke: #333; stroke-width: 1.2; }
.grid { stroke: #ddd; stroke-width: 1; }
.label { font-size: 12px; }
.tick { font-size: 11px; fill: #555; }
.value { font-size: 11px; font-weight: 700; }
.legend { font-size: 12px; }
</style>
<rect width="100%" height="100%" fill="#fff"/>
<text class="title" x="40" y="34">Repair: Human Likert Scores</text>
<text class="subtitle" x="40" y="56">Median score with sample size in each cell</text>
<text class="panel" x="40.0" y="68.0" text-anchor="start">Repair</text>
<text class="label" x="259.0" y="104" text-anchor="middle">Llama</text>
<text class="label" x="361.0" y="104" text-anchor="middle">Mistral</text>
<text class="label" x="463.0" y="104" text-anchor="middle">DeepSeek</text>
<text class="label" x="565.0" y="104" text-anchor="middle">Qwen</text>
<text class="label" x="200" y="148" text-anchor="end">Completeness</text>
<rect x="208" y="122" width="100" height="40" fill="#90d796" stroke="#fff"><title>Repair | Llama | Completeness: 4 (n=15)</title></rect>
<text class="value" x="259.0" y="142" text-anchor="middle">4</text>
<text class="tick" x="259.0" y="156" text-anchor="middle">n=15</text>
<rect x="310" y="122" width="100" height="40" fill="#90d796" stroke="#fff"><title>Repair | Mistral | Completeness: 4 (n=9)</title></rect>
<text class="value" x="361.0" y="142" text-anchor="middle">4</text>
<text class="tick" x="361.0" y="156" text-anchor="middle">n=9</text>
<rect x="412" y="122" width="100" height="40" fill="#90d796" stroke="#fff"><title>Repair | DeepSeek | Completeness: 4 (n=39)</title></rect>
<text class="value" x="463.0" y="142" text-anchor="middle">4</text>
<text class="tick" x="463.0" y="156" text-anchor="middle">n=39</text>
<rect x="514" y="122" width="100" height="40" fill="#90d796" stroke="#fff"><title>Repair | Qwen | Completeness: 4 (n=16)</title></rect>
<text class="value" x="565.0" y="142" text-anchor="middle">4</text>
<text class="tick" x="565.0" y="156" text-anchor="middle">n=16</text>
<text class="label" x="200" y="190" text-anchor="end">Correctness</text>
<rect x="208" y="164" width="100" height="40" fill="#90d796" stroke="#fff"><title>Repair | Llama | Correctness: 4 (n=15)</title></rect>
<text class="value" x="259.0" y="184" text-anchor="middle">4</text>
<text class="tick" x="259.0" y="198" text-anchor="middle">n=15</text>
<rect x="310" y="164" width="100" height="40" fill="#71cd76" stroke="#fff"><title>Repair | Mistral | Correctness: 5 (n=9)</title></rect>
<text class="value" x="361.0" y="184" text-anchor="middle">5</text>
<text class="tick" x="361.0" y="198" text-anchor="middle">n=9</text>
<rect x="412" y="164" width="100" height="40" fill="#90d796" stroke="#fff"><title>Repair | DeepSeek | Correctness: 4 (n=39)</title></rect>
<text class="value" x="463.0" y="184" text-anchor="middle">4</text>
<text class="tick" x="463.0" y="198" text-anchor="middle">n=39</text>
<rect x="514" y="164" width="100" height="40" fill="#90d796" stroke="#fff"><title>Repair | Qwen | Correctness: 4 (n=16)</title></rect>
<text class="value" x="565.0" y="184" text-anchor="middle">4</text>
<text class="tick" x="565.0" y="198" text-anchor="middle">n=16</text>
<text class="label" x="200" y="232" text-anchor="end">Understandability</text>
<rect x="208" y="206" width="100" height="40" fill="#71cd76" stroke="#fff"><title>Repair | Llama | Understandability: 5 (n=15)</title></rect>
<text class="value" x="259.0" y="226" text-anchor="middle">5</text>
<text class="tick" x="259.0" y="240" text-anchor="middle">n=15</text>
<rect x="310" y="206" width="100" height="40" fill="#71cd76" stroke="#fff"><title>Repair | Mistral | Understandability: 5 (n=9)</title></rect>
<text class="value" x="361.0" y="226" text-anchor="middle">5</text>
<text class="tick" x="361.0" y="240" text-anchor="middle">n=9</text>
<rect x="412" y="206" width="100" height="40" fill="#71cd76" stroke="#fff"><title>Repair | DeepSeek | Understandability: 5 (n=39)</title></rect>
<text class="value" x="463.0" y="226" text-anchor="middle">5</text>
<text class="tick" x="463.0" y="240" text-anchor="middle">n=39</text>
<rect x="514" y="206" width="100" height="40" fill="#afe1b7" stroke="#fff"><title>Repair | Qwen | Understandability: 3 (n=16)</title></rect>
<text class="value" x="565.0" y="226" text-anchor="middle">3</text>
<text class="tick" x="565.0" y="240" text-anchor="middle">n=16</text>
<text class="label" x="200" y="274" text-anchor="end">Terminology alignment</text>
<rect x="208" y="248" width="100" height="40" fill="#90d796" stroke="#fff"><title>Repair | Llama | Terminology alignment: 4 (n=15)</title></rect>
<text class="value" x="259.0" y="268" text-anchor="middle">4</text>
<text class="tick" x="259.0" y="282" text-anchor="middle">n=15</text>
<rect x="310" y="248" width="100" height="40" fill="#71cd76" stroke="#fff"><title>Repair | Mistral | Terminology alignment: 5 (n=9)</title></rect>
<text class="value" x="361.0" y="268" text-anchor="middle">5</text>
<text class="tick" x="361.0" y="282" text-anchor="middle">n=9</text>
<rect x="412" y="248" width="100" height="40" fill="#71cd76" stroke="#fff"><title>Repair | DeepSeek | Terminology alignment: 5 (n=39)</title></rect>
<text class="value" x="463.0" y="268" text-anchor="middle">5</text>
<text class="tick" x="463.0" y="282" text-anchor="middle">n=39</text>
<rect x="514" y="248" width="100" height="40" fill="#90d796" stroke="#fff"><title>Repair | Qwen | Terminology alignment: 4 (n=16)</title></rect>
<text class="value" x="565.0" y="268" text-anchor="middle">4</text>
<text class="tick" x="565.0" y="282" text-anchor="middle">n=16</text>
<text class="tick" x="40" y="378">Darker cells indicate higher median Likert score.</text>
</svg>