<svg xmlns="http://www.w3.org/2000/svg" width="3746" height="398" viewBox="0 0 3746 398">
<style>
text { font-family: Arial, Helvetica, sans-serif; fill: #222; }
.title { font-size: 24px; font-weight: 700; }
.subtitle { font-size: 13px; fill: #555; }
.panel { font-size: 15px; font-weight: 700; }
.axis { stroke: #333; stroke-width: 1.2; }
.grid { stroke: #ddd; stroke-width: 1; }
.label { font-size: 12px; }
.tick { font-size: 11px; fill: #555; }
.value { font-size: 11px; font-weight: 700; }
.legend { font-size: 12px; }
</style>
<rect width="100%" height="100%" fill="#fff"/>
<text class="title" x="40" y="34">Repair Iterations: Human Likert Scores</text>
<text class="subtitle" x="40" y="56">Median score with sample size in each cell</text>
<text class="panel" x="40.0" y="68.0" text-anchor="start">Repair at zero</text>
<text class="panel" x="40.0" y="84.0" text-anchor="start">iterations</text>
<text class="label" x="259.0" y="104" text-anchor="middle">Llama</text>
<text class="label" x="361.0" y="104" text-anchor="middle">Mistral</text>
<text class="label" x="463.0" y="104" text-anchor="middle">DeepSeek</text>
<text class="label" x="565.0" y="104" text-anchor="middle">Qwen</text>
<text class="label" x="200" y="148" text-anchor="end">Completeness</text>
<rect x="208" y="122" width="100" height="40" fill="#f2f2f2" stroke="#fff"><title>Repair at zero iterations | Llama | Completeness: </title></rect>
<text class="value" x="259.0" y="142" text-anchor="middle"></text>
<text class="tick" x="259.0" y="156" text-anchor="middle"></text>
<rect x="310" y="122" width="100" height="40" fill="#f2f2f2" stroke="#fff"><title>Repair at zero iterations | Mistral | Completeness: </title></rect>
<text class="value" x="361.0" y="142" text-anchor="middle"></text>
<text class="tick" x="361.0" y="156" text-anchor="middle"></text>
<rect x="412" y="122" width="100" height="40" fill="#f2f2f2" stroke="#fff"><title>Repair at zero iterations | DeepSeek | Completeness: </title></rect>
<text class="value" x="463.0" y="142" text-anchor="middle"></text>
<text class="tick" x="463.0" y="156" text-anchor="middle"></text>
<rect x="514" y="122" width="100" height="40" fill="#f2f2f2" stroke="#fff"><title>Repair at zero iterations | Qwen | Completeness: </title></rect>
<text class="value" x="565.0" y="142" text-anchor="middle"></text>
<text class="tick" x="565.0" y="156" text-anchor="middle"></text>
<text class="label" x="200" y="190" text-anchor="end">Correctness</text>
<rect x="208" y="164" width="100" height="40" fill="#f2f2f2" stroke="#fff"><title>Repair at zero iterations | Llama | Correctness: </title></rect>
<text class="value" x="259.0" y="184" text-anchor="middle"></text>
<text class="tick" x="259.0" y="198" text-anchor="middle"></text>
<rect x="310" y="164" width="100" height="40" fill="#f2f2f2" stroke="#fff"><title>Repair at zero iterations | Mistral | Correctness: </title></rect>
<text class="value" x="361.0" y="184" text-anchor="middle"></text>
<text class="tick" x="361.0" y="198" text-anchor="middle"></text>
<rect x="412" y="164" width="100" height="40" fill="#f2f2f2" stroke="#fff"><title>Repair at zero iterations | DeepSeek | Correctness: </title></rect>
<text class="value" x="463.0" y="184" text-anchor="middle"></text>
<text class="tick" x="463.0" y="198" text-anchor="middle"></text>
<rect x="514" y="164" width="100" height="40" fill="#f2f2f2" stroke="#fff"><title>Repair at zero iterations | Qwen | Correctness: </title></rect>
<text class="value" x="565.0" y="184" text-anchor="middle"></text>
<text class="tick" x="565.0" y="198" text-anchor="middle"></text>
<text class="label" x="200" y="232" text-anchor="end">Understandability</text>
<rect x="208" y="206" width="100" height="40" fill="#f2f2f2" stroke="#fff"><title>Repair at zero iterations | Llama | Understandability: </title></rect>
<text class="value" x="259.0" y="226" text-anchor="middle"></text>
<text class="tick" x="259.0" y="240" text-anchor="middle"></text>
<rect x="310" y="206" width="100" height="40" fill="#f2f2f2" stroke="#fff"><title>Repair at zero iterations | Mistral | Understandability: </title></rect>
<text class="value" x="361.0" y="226" text-anchor="middle"></text>
<text class="tick" x="361.0" y="240" text-anchor="middle"></text>
<rect x="412" y="206" width="100" height="40" fill="#f2f2f2" stroke="#fff"><title>Repair at zero iterations | DeepSeek | Understandability: </title></rect>
<text class="value" x="463.0" y="226" text-anchor="middle"></text>
<text class="tick" x="463.0" y="240" text-anchor="middle"></text>
<rect x="514" y="206" width="100" height="40" fill="#f2f2f2" stroke="#fff"><title>Repair at zero iterations | Qwen | Understandability: </title></rect>
<text class="value" x="565.0" y="226" text-anchor="middle"></text>
<text class="tick" x="565.0" y="240" text-anchor="middle"></text>
<text class="label" x="200" y="274" text-anchor="end">Terminology alignment</text>
<rect x="208" y="248" width="100" height="40" fill="#f2f2f2" stroke="#fff"><title>Repair at zero iterations | Llama | Terminology alignment: </title></rect>
<text class="value" x="259.0" y="268" text-anchor="middle"></text>
<text class="tick" x="259.0" y="282" text-anchor="middle"></text>
<rect x="310" y="248" width="100" height="40" fill="#f2f2f2" stroke="#fff"><title>Repair at zero iterations | Mistral | Terminology alignment: </title></rect>
<text class="value" x="361.0" y="268" text-anchor="middle"></text>
<text class="tick" x="361.0" y="282" text-anchor="middle"></text>
<rect x="412" y="248" width="100" height="40" fill="#f2f2f2" stroke="#fff"><title>Repair at zero iterations | DeepSeek | Terminology alignment: </title></rect>
<text class="value" x="463.0" y="268" text-anchor="middle"></text>
<text class="tick" x="463.0" y="282" text-anchor="middle"></text>
<rect x="514" y="248" width="100" height="40" fill="#f2f2f2" stroke="#fff"><title>Repair at zero iterations | Qwen | Terminology alignment: </title></rect>
<text class="value" x="565.0" y="268" text-anchor="middle"></text>
<text class="tick" x="565.0" y="282" text-anchor="middle"></text>
<text class="panel" x="658.0" y="68.0" text-anchor="start">Repair at once</text>
<text class="label" x="877.0" y="104" text-anchor="middle">Llama</text>
<text class="label" x="979.0" y="104" text-anchor="middle">Mistral</text>
<text class="label" x="1081.0" y="104" text-anchor="middle">DeepSeek</text>
<text class="label" x="1183.0" y="104" text-anchor="middle">Qwen</text>
<text class="label" x="818" y="148" text-anchor="end">Completeness</text>
<rect x="826" y="122" width="100" height="40" fill="#90d796" stroke="#fff"><title>Repair at once | Llama | Completeness: 4 (n=13)</title></rect>
<text class="value" x="877.0" y="142" text-anchor="middle">4</text>
<text class="tick" x="877.0" y="156" text-anchor="middle">n=13</text>
<rect x="928" y="122" width="100" height="40" fill="#afe1b7" stroke="#fff"><title>Repair at once | Mistral | Completeness: 3 (n=7)</title></rect>
<text class="value" x="979.0" y="142" text-anchor="middle">3</text>
<text class="tick" x="979.0" y="156" text-anchor="middle">n=7</text>
<rect x="1030" y="122" width="100" height="40" fill="#90d796" stroke="#fff"><title>Repair at once | DeepSeek | Completeness: 4 (n=23)</title></rect>
<text class="value" x="1081.0" y="142" text-anchor="middle">4</text>
<text class="tick" x="1081.0" y="156" text-anchor="middle">n=23</text>
<rect x="1132" y="122" width="100" height="40" fill="#afe1b7" stroke="#fff"><title>Repair at once | Qwen | Completeness: 3 (n=9)</title></rect>
<text class="value" x="1183.0" y="142" text-anchor="middle">3</text>
<text class="tick" x="1183.0" y="156" text-anchor="middle">n=9</text>
<text class="label" x="818" y="190" text-anchor="end">Correctness</text>
<rect x="826" y="164" width="100" height="40" fill="#90d796" stroke="#fff"><title>Repair at once | Llama | Correctness: 4 (n=13)</title></rect>
<text class="value" x="877.0" y="184" text-anchor="middle">4</text>
<text class="tick" x="877.0" y="198" text-anchor="middle">n=13</text>
<rect x="928" y="164" width="100" height="40" fill="#71cd76" stroke="#fff"><title>Repair at once | Mistral | Correctness: 5 (n=7)</title></rect>
<text class="value" x="979.0" y="184" text-anchor="middle">5</text>
<text class="tick" x="979.0" y="198" text-anchor="middle">n=7</text>
<rect x="1030" y="164" width="100" height="40" fill="#90d796" stroke="#fff"><title>Repair at once | DeepSeek | Correctness: 4 (n=23)</title></rect>
<text class="value" x="1081.0" y="184" text-anchor="middle">4</text>
<text class="tick" x="1081.0" y="198" text-anchor="middle">n=23</text>
<rect x="1132" y="164" width="100" height="40" fill="#90d796" stroke="#fff"><title>Repair at once | Qwen | Correctness: 4 (n=9)</title></rect>
<text class="value" x="1183.0" y="184" text-anchor="middle">4</text>
<text class="tick" x="1183.0" y="198" text-anchor="middle">n=9</text>
<text class="label" x="818" y="232" text-anchor="end">Understandability</text>
<rect x="826" y="206" width="100" height="40" fill="#71cd76" stroke="#fff"><title>Repair at once | Llama | Understandability: 5 (n=13)</title></rect>
<text class="value" x="877.0" y="226" text-anchor="middle">5</text>
<text class="tick" x="877.0" y="240" text-anchor="middle">n=13</text>
<rect x="928" y="206" width="100" height="40" fill="#71cd76" stroke="#fff"><title>Repair at once | Mistral | Understandability: 5 (n=7)</title></rect>
<text class="value" x="979.0" y="226" text-anchor="middle">5</text>
<text class="tick" x="979.0" y="240" text-anchor="middle">n=7</text>
<rect x="1030" y="206" width="100" height="40" fill="#71cd76" stroke="#fff"><title>Repair at once | DeepSeek | Understandability: 5 (n=23)</title></rect>
<text class="value" x="1081.0" y="226" text-anchor="middle">5</text>
<text class="tick" x="1081.0" y="240" text-anchor="middle">n=23</text>
<rect x="1132" y="206" width="100" height="40" fill="#afe1b7" stroke="#fff"><title>Repair at once | Qwen | Understandability: 3 (n=9)</title></rect>
<text class="value" x="1183.0" y="226" text-anchor="middle">3</text>
<text class="tick" x="1183.0" y="240" text-anchor="middle">n=9</text>
<text class="label" x="818" y="274" text-anchor="end">Terminology alignment</text>
<rect x="826" y="248" width="100" height="40" fill="#90d796" stroke="#fff"><title>Repair at once | Llama | Terminology alignment: 4 (n=13)</title></rect>
<text class="value" x="877.0" y="268" text-anchor="middle">4</text>
<text class="tick" x="877.0" y="282" text-anchor="middle">n=13</text>
<rect x="928" y="248" width="100" height="40" fill="#71cd76" stroke="#fff"><title>Repair at once | Mistral | Terminology alignment: 5 (n=7)</title></rect>
<text class="value" x="979.0" y="268" text-anchor="middle">5</text>
<text class="tick" x="979.0" y="282" text-anchor="middle">n=7</text>
<rect x="1030" y="248" width="100" height="40" fill="#71cd76" stroke="#fff"><title>Repair at once | DeepSeek | Terminology alignment: 5 (n=23)</title></rect>
<text class="value" x="1081.0" y="268" text-anchor="middle">5</text>
<text class="tick" x="1081.0" y="282" text-anchor="middle">n=23</text>
<rect x="1132" y="248" width="100" height="40" fill="#90d796" stroke="#fff"><title>Repair at once | Qwen | Terminology alignment: 4 (n=9)</title></rect>
<text class="value" x="1183.0" y="268" text-anchor="middle">4</text>
<text class="tick" x="1183.0" y="282" text-anchor="middle">n=9</text>
<text class="panel" x="1276.0" y="68.0" text-anchor="start">Repair at two</text>
<text class="panel" x="1276.0" y="84.0" text-anchor="start">iterations</text>
<text class="label" x="1495.0" y="104" text-anchor="middle">Llama</text>
<text class="label" x="1597.0" y="104" text-anchor="middle">Mistral</text>
<text class="label" x="1699.0" y="104" text-anchor="middle">DeepSeek</text>
<text class="label" x="1801.0" y="104" text-anchor="middle">Qwen</text>
<text class="label" x="1436" y="148" text-anchor="end">Completeness</text>
<rect x="1444" y="122" width="100" height="40" fill="#f2f2f2" stroke="#fff"><title>Repair at two iterations | Llama | Completeness: </title></rect>
<text class="value" x="1495.0" y="142" text-anchor="middle"></text>
<text class="tick" x="1495.0" y="156" text-anchor="middle"></text>
<rect x="1546" y="122" width="100" height="40" fill="#80d286" stroke="#fff"><title>Repair at two iterations | Mistral | Completeness: 4.5 (n=2)</title></rect>
<text class="value" x="1597.0" y="142" text-anchor="middle">4.5</text>
<text class="tick" x="1597.0" y="156" text-anchor="middle">n=2</text>
<rect x="1648" y="122" width="100" height="40" fill="#90d796" stroke="#fff"><title>Repair at two iterations | DeepSeek | Completeness: 4 (n=7)</title></rect>
<text class="value" x="1699.0" y="142" text-anchor="middle">4</text>
<text class="tick" x="1699.0" y="156" text-anchor="middle">n=7</text>
<rect x="1750" y="122" width="100" height="40" fill="#90d796" stroke="#fff"><title>Repair at two iterations | Qwen | Completeness: 4 (n=7)</title></rect>
<text class="value" x="1801.0" y="142" text-anchor="middle">4</text>
<text class="tick" x="1801.0" y="156" text-anchor="middle">n=7</text>
<text class="label" x="1436" y="190" text-anchor="end">Correctness</text>
<rect x="1444" y="164" width="100" height="40" fill="#f2f2f2" stroke="#fff"><title>Repair at two iterations | Llama | Correctness: </title></rect>
<text class="value" x="1495.0" y="184" text-anchor="middle"></text>
<text class="tick" x="1495.0" y="198" text-anchor="middle"></text>
<rect x="1546" y="164" width="100" height="40" fill="#90d796" stroke="#fff"><title>Repair at two iterations | Mistral | Correctness: 4 (n=2)</title></rect>
<text class="value" x="1597.0" y="184" text-anchor="middle">4</text>
<text class="tick" x="1597.0" y="198" text-anchor="middle">n=2</text>
<rect x="1648" y="164" width="100" height="40" fill="#71cd76" stroke="#fff"><title>Repair at two iterations | DeepSeek | Correctness: 5 (n=7)</title></rect>
<text class="value" x="1699.0" y="184" text-anchor="middle">5</text>
<text class="tick" x="1699.0" y="198" text-anchor="middle">n=7</text>
<rect x="1750" y="164" width="100" height="40" fill="#90d796" stroke="#fff"><title>Repair at two iterations | Qwen | Correctness: 4 (n=7)</title></rect>
<text class="value" x="1801.0" y="184" text-anchor="middle">4</text>
<text class="tick" x="1801.0" y="198" text-anchor="middle">n=7</text>
<text class="label" x="1436" y="232" text-anchor="end">Understandability</text>
<rect x="1444" y="206" width="100" height="40" fill="#f2f2f2" stroke="#fff"><title>Repair at two iterations | Llama | Understandability: </title></rect>
<text class="value" x="1495.0" y="226" text-anchor="middle"></text>
<text class="tick" x="1495.0" y="240" text-anchor="middle"></text>
<rect x="1546" y="206" width="100" height="40" fill="#90d796" stroke="#fff"><title>Repair at two iterations | Mistral | Understandability: 4 (n=2)</title></rect>
<text class="value" x="1597.0" y="226" text-anchor="middle">4</text>
<text class="tick" x="1597.0" y="240" text-anchor="middle">n=2</text>
<rect x="1648" y="206" width="100" height="40" fill="#71cd76" stroke="#fff"><title>Repair at two iterations | DeepSeek | Understandability: 5 (n=7)</title></rect>
<text class="value" x="1699.0" y="226" text-anchor="middle">5</text>
<text class="tick" x="1699.0" y="240" text-anchor="middle">n=7</text>
<rect x="1750" y="206" width="100" height="40" fill="#afe1b7" stroke="#fff"><title>Repair at two iterations | Qwen | Understandability: 3 (n=7)</title></rect>
<text class="value" x="1801.0" y="226" text-anchor="middle">3</text>
<text class="tick" x="1801.0" y="240" text-anchor="middle">n=7</text>
<text class="label" x="1436" y="274" text-anchor="end">Terminology alignment</text>
<rect x="1444" y="248" width="100" height="40" fill="#f2f2f2" stroke="#fff"><title>Repair at two iterations | Llama | Terminology alignment: </title></rect>
<text class="value" x="1495.0" y="268" text-anchor="middle"></text>
<text class="tick" x="1495.0" y="282" text-anchor="middle"></text>
<rect x="1546" y="248" width="100" height="40" fill="#90d796" stroke="#fff"><title>Repair at two iterations | Mistral | Terminology alignment: 4 (n=2)</title></rect>
<text class="value" x="1597.0" y="268" text-anchor="middle">4</text>
<text class="tick" x="1597.0" y="282" text-anchor="middle">n=2</text>
<rect x="1648" y="248" width="100" height="40" fill="#71cd76" stroke="#fff"><title>Repair at two iterations | DeepSeek | Terminology alignment: 5 (n=7)</title></rect>
<text class="value" x="1699.0" y="268" text-anchor="middle">5</text>
<text class="tick" x="1699.0" y="282" text-anchor="middle">n=7</text>
<rect x="1750" y="248" width="100" height="40" fill="#90d796" stroke="#fff"><title>Repair at two iterations | Qwen | Terminology alignment: 4 (n=7)</title></rect>
<text class="value" x="1801.0" y="268" text-anchor="middle">4</text>
<text class="tick" x="1801.0" y="282" text-anchor="middle">n=7</text>
<text class="panel" x="1894.0" y="68.0" text-anchor="start">Repair at three</text>
<text class="panel" x="1894.0" y="84.0" text-anchor="start">iterations</text>
<text class="label" x="2113.0" y="104" text-anchor="middle">Llama</text>
<text class="label" x="2215.0" y="104" text-anchor="middle">Mistral</text>
<text class="label" x="2317.0" y="104" text-anchor="middle">DeepSeek</text>
<text class="label" x="2419.0" y="104" text-anchor="middle">Qwen</text>
<text class="label" x="2054" y="148" text-anchor="end">Completeness</text>
<rect x="2062" y="122" width="100" height="40" fill="#afe1b7" stroke="#fff"><title>Repair at three iterations | Llama | Completeness: 3 (n=2)</title></rect>
<text class="value" x="2113.0" y="142" text-anchor="middle">3</text>
<text class="tick" x="2113.0" y="156" text-anchor="middle">n=2</text>
<rect x="2164" y="122" width="100" height="40" fill="#f2f2f2" stroke="#fff"><title>Repair at three iterations | Mistral | Completeness: </title></rect>
<text class="value" x="2215.0" y="142" text-anchor="middle"></text>
<text class="tick" x="2215.0" y="156" text-anchor="middle"></text>
<rect x="2266" y="122" width="100" height="40" fill="#90d796" stroke="#fff"><title>Repair at three iterations | DeepSeek | Completeness: 4 (n=4)</title></rect>
<text class="value" x="2317.0" y="142" text-anchor="middle">4</text>
<text class="tick" x="2317.0" y="156" text-anchor="middle">n=4</text>
<rect x="2368" y="122" width="100" height="40" fill="#f2f2f2" stroke="#fff"><title>Repair at three iterations | Qwen | Completeness: </title></rect>
<text class="value" x="2419.0" y="142" text-anchor="middle"></text>
<text class="tick" x="2419.0" y="156" text-anchor="middle"></text>
<text class="label" x="2054" y="190" text-anchor="end">Correctness</text>
<rect x="2062" y="164" width="100" height="40" fill="#afe1b7" stroke="#fff"><title>Repair at three iterations | Llama | Correctness: 3 (n=2)</title></rect>
<text class="value" x="2113.0" y="184" text-anchor="middle">3</text>
<text class="tick" x="2113.0" y="198" text-anchor="middle">n=2</text>
<rect x="2164" y="164" width="100" height="40" fill="#f2f2f2" stroke="#fff"><title>Repair at three iterations | Mistral | Correctness: </title></rect>
<text class="value" x="2215.0" y="184" text-anchor="middle"></text>
<text class="tick" x="2215.0" y="198" text-anchor="middle"></text>
<rect x="2266" y="164" width="100" height="40" fill="#9fdca6" stroke="#fff"><title>Repair at three iterations | DeepSeek | Correctness: 3.5 (n=4)</title></rect>
<text class="value" x="2317.0" y="184" text-anchor="middle">3.5</text>
<text class="tick" x="2317.0" y="198" text-anchor="middle">n=4</text>
<rect x="2368" y="164" width="100" height="40" fill="#f2f2f2" stroke="#fff"><title>Repair at three iterations | Qwen | Correctness: </title></rect>
<text class="value" x="2419.0" y="184" text-anchor="middle"></text>
<text class="tick" x="2419.0" y="198" text-anchor="middle"></text>
<text class="label" x="2054" y="232" text-anchor="end">Understandability</text>
<rect x="2062" y="206" width="100" height="40" fill="#80d286" stroke="#fff"><title>Repair at three iterations | Llama | Understandability: 4.5 (n=2)</title></rect>
<text class="value" x="2113.0" y="226" text-anchor="middle">4.5</text>
<text class="tick" x="2113.0" y="240" text-anchor="middle">n=2</text>
<rect x="2164" y="206" width="100" height="40" fill="#f2f2f2" stroke="#fff"><title>Repair at three iterations | Mistral | Understandability: </title></rect>
<text class="value" x="2215.0" y="226" text-anchor="middle"></text>
<text class="tick" x="2215.0" y="240" text-anchor="middle"></text>
<rect x="2266" y="206" width="100" height="40" fill="#71cd76" stroke="#fff"><title>Repair at three iterations | DeepSeek | Understandability: 5 (n=4)</title></rect>
<text class="value" x="2317.0" y="226" text-anchor="middle">5</text>
<text class="tick" x="2317.0" y="240" text-anchor="middle">n=4</text>
<rect x="2368" y="206" width="100" height="40" fill="#f2f2f2" stroke="#fff"><title>Repair at three iterations | Qwen | Understandability: </title></rect>
<text class="value" x="2419.0" y="226" text-anchor="middle"></text>
<text class="tick" x="2419.0" y="240" text-anchor="middle"></text>
<text class="label" x="2054" y="274" text-anchor="end">Terminology alignment</text>
<rect x="2062" y="248" width="100" height="40" fill="#90d796" stroke="#fff"><title>Repair at three iterations | Llama | Terminology alignment: 4 (n=2)</title></rect>
<text class="value" x="2113.0" y="268" text-anchor="middle">4</text>
<text class="tick" x="2113.0" y="282" text-anchor="middle">n=2</text>
<rect x="2164" y="248" width="100" height="40" fill="#f2f2f2" stroke="#fff"><title>Repair at three iterations | Mistral | Terminology alignment: </title></rect>
<text class="value" x="2215.0" y="268" text-anchor="middle"></text>
<text class="tick" x="2215.0" y="282" text-anchor="middle"></text>
<rect x="2266" y="248" width="100" height="40" fill="#90d796" stroke="#fff"><title>Repair at three iterations | DeepSeek | Terminology alignment: 4 (n=4)</title></rect>
<text class="value" x="2317.0" y="268" text-anchor="middle">4</text>
<text class="tick" x="2317.0" y="282" text-anchor="middle">n=4</text>
<rect x="2368" y="248" width="100" height="40" fill="#f2f2f2" stroke="#fff"><title>Repair at three iterations | Qwen | Terminology alignment: </title></rect>
<text class="value" x="2419.0" y="268" text-anchor="middle"></text>
<text class="tick" x="2419.0" y="282" text-anchor="middle"></text>
<text class="panel" x="2512.0" y="68.0" text-anchor="start">Repair at four</text>
<text class="panel" x="2512.0" y="84.0" text-anchor="start">iterations</text>
<text class="label" x="2731.0" y="104" text-anchor="middle">Llama</text>
<text class="label" x="2833.0" y="104" text-anchor="middle">Mistral</text>
<text class="label" x="2935.0" y="104" text-anchor="middle">DeepSeek</text>
<text class="label" x="3037.0" y="104" text-anchor="middle">Qwen</text>
<text class="label" x="2672" y="148" text-anchor="end">Completeness</text>
<rect x="2680" y="122" width="100" height="40" fill="#f2f2f2" stroke="#fff"><title>Repair at four iterations | Llama | Completeness: </title></rect>
<text class="value" x="2731.0" y="142" text-anchor="middle"></text>
<text class="tick" x="2731.0" y="156" text-anchor="middle"></text>
<rect x="2782" y="122" width="100" height="40" fill="#f2f2f2" stroke="#fff"><title>Repair at four iterations | Mistral | Completeness: </title></rect>
<text class="value" x="2833.0" y="142" text-anchor="middle"></text>
<text class="tick" x="2833.0" y="156" text-anchor="middle"></text>
<rect x="2884" y="122" width="100" height="40" fill="#ceebd7" stroke="#fff"><title>Repair at four iterations | DeepSeek | Completeness: 2 (n=5)</title></rect>
<text class="value" x="2935.0" y="142" text-anchor="middle">2</text>
<text class="tick" x="2935.0" y="156" text-anchor="middle">n=5</text>
<rect x="2986" y="122" width="100" height="40" fill="#f2f2f2" stroke="#fff"><title>Repair at four iterations | Qwen | Completeness: </title></rect>
<text class="value" x="3037.0" y="142" text-anchor="middle"></text>
<text class="tick" x="3037.0" y="156" text-anchor="middle"></text>
<text class="label" x="2672" y="190" text-anchor="end">Correctness</text>
<rect x="2680" y="164" width="100" height="40" fill="#f2f2f2" stroke="#fff"><title>Repair at four iterations | Llama | Correctness: </title></rect>
<text class="value" x="2731.0" y="184" text-anchor="middle"></text>
<text class="tick" x="2731.0" y="198" text-anchor="middle"></text>
<rect x="2782" y="164" width="100" height="40" fill="#f2f2f2" stroke="#fff"><title>Repair at four iterations | Mistral | Correctness: </title></rect>
<text class="value" x="2833.0" y="184" text-anchor="middle"></text>
<text class="tick" x="2833.0" y="198" text-anchor="middle"></text>
<rect x="2884" y="164" width="100" height="40" fill="#afe1b7" stroke="#fff"><title>Repair at four iterations | DeepSeek | Correctness: 3 (n=5)</title></rect>
<text class="value" x="2935.0" y="184" text-anchor="middle">3</text>
<text class="tick" x="2935.0" y="198" text-anchor="middle">n=5</text>
<rect x="2986" y="164" width="100" height="40" fill="#f2f2f2" stroke="#fff"><title>Repair at four iterations | Qwen | Correctness: </title></rect>
<text class="value" x="3037.0" y="184" text-anchor="middle"></text>
<text class="tick" x="3037.0" y="198" text-anchor="middle"></text>
<text class="label" x="2672" y="232" text-anchor="end">Understandability</text>
<rect x="2680" y="206" width="100" height="40" fill="#f2f2f2" stroke="#fff"><title>Repair at four iterations | Llama | Understandability: </title></rect>
<text class="value" x="2731.0" y="226" text-anchor="middle"></text>
<text class="tick" x="2731.0" y="240" text-anchor="middle"></text>
<rect x="2782" y="206" width="100" height="40" fill="#f2f2f2" stroke="#fff"><title>Repair at four iterations | Mistral | Understandability: </title></rect>
<text class="value" x="2833.0" y="226" text-anchor="middle"></text>
<text class="tick" x="2833.0" y="240" text-anchor="middle"></text>
<rect x="2884" y="206" width="100" height="40" fill="#ceebd7" stroke="#fff"><title>Repair at four iterations | DeepSeek | Understandability: 2 (n=5)</title></rect>
<text class="value" x="2935.0" y="226" text-anchor="middle">2</text>
<text class="tick" x="2935.0" y="240" text-anchor="middle">n=5</text>
<rect x="2986" y="206" width="100" height="40" fill="#f2f2f2" stroke="#fff"><title>Repair at four iterations | Qwen | Understandability: </title></rect>
<text class="value" x="3037.0" y="226" text-anchor="middle"></text>
<text class="tick" x="3037.0" y="240" text-anchor="middle"></text>
<text class="label" x="2672" y="274" text-anchor="end">Terminology alignment</text>
<rect x="2680" y="248" width="100" height="40" fill="#f2f2f2" stroke="#fff"><title>Repair at four iterations | Llama | Terminology alignment: </title></rect>
<text class="value" x="2731.0" y="268" text-anchor="middle"></text>
<text class="tick" x="2731.0" y="282" text-anchor="middle"></text>
<rect x="2782" y="248" width="100" height="40" fill="#f2f2f2" stroke="#fff"><title>Repair at four iterations | Mistral | Terminology alignment: </title></rect>
<text class="value" x="2833.0" y="268" text-anchor="middle"></text>
<text class="tick" x="2833.0" y="282" text-anchor="middle"></text>
<rect x="2884" y="248" width="100" height="40" fill="#afe1b7" stroke="#fff"><title>Repair at four iterations | DeepSeek | Terminology alignment: 3 (n=5)</title></rect>
<text class="value" x="2935.0" y="268" text-anchor="middle">3</text>
<text class="tick" x="2935.0" y="282" text-anchor="middle">n=5</text>
<rect x="2986" y="248" width="100" height="40" fill="#f2f2f2" stroke="#fff"><title>Repair at four iterations | Qwen | Terminology alignment: </title></rect>
<text class="value" x="3037.0" y="268" text-anchor="middle"></text>
<text class="tick" x="3037.0" y="282" text-anchor="middle"></text>
<text class="panel" x="3130.0" y="68.0" text-anchor="start">Repair at five</text>
<text class="panel" x="3130.0" y="84.0" text-anchor="start">iterations</text>
<text class="label" x="3349.0" y="104" text-anchor="middle">Llama</text>
<text class="label" x="3451.0" y="104" text-anchor="middle">Mistral</text>
<text class="label" x="3553.0" y="104" text-anchor="middle">DeepSeek</text>
<text class="label" x="3655.0" y="104" text-anchor="middle">Qwen</text>
<text class="label" x="3290" y="148" text-anchor="end">Completeness</text>
<rect x="3298" y="122" width="100" height="40" fill="#f2f2f2" stroke="#fff"><title>Repair at five iterations | Llama | Completeness: </title></rect>
<text class="value" x="3349.0" y="142" text-anchor="middle"></text>
<text class="tick" x="3349.0" y="156" text-anchor="middle"></text>
<rect x="3400" y="122" width="100" height="40" fill="#f2f2f2" stroke="#fff"><title>Repair at five iterations | Mistral | Completeness: </title></rect>
<text class="value" x="3451.0" y="142" text-anchor="middle"></text>
<text class="tick" x="3451.0" y="156" text-anchor="middle"></text>
<rect x="3502" y="122" width="100" height="40" fill="#f2f2f2" stroke="#fff"><title>Repair at five iterations | DeepSeek | Completeness: </title></rect>
<text class="value" x="3553.0" y="142" text-anchor="middle"></text>
<text class="tick" x="3553.0" y="156" text-anchor="middle"></text>
<rect x="3604" y="122" width="100" height="40" fill="#f2f2f2" stroke="#fff"><title>Repair at five iterations | Qwen | Completeness: </title></rect>
<text class="value" x="3655.0" y="142" text-anchor="middle"></text>
<text class="tick" x="3655.0" y="156" text-anchor="middle"></text>
<text class="label" x="3290" y="190" text-anchor="end">Correctness</text>
<rect x="3298" y="164" width="100" height="40" fill="#f2f2f2" stroke="#fff"><title>Repair at five iterations | Llama | Correctness: </title></rect>
<text class="value" x="3349.0" y="184" text-anchor="middle"></text>
<text class="tick" x="3349.0" y="198" text-anchor="middle"></text>
<rect x="3400" y="164" width="100" height="40" fill="#f2f2f2" stroke="#fff"><title>Repair at five iterations | Mistral | Correctness: </title></rect>
<text class="value" x="3451.0" y="184" text-anchor="middle"></text>
<text class="tick" x="3451.0" y="198" text-anchor="middle"></text>
<rect x="3502" y="164" width="100" height="40" fill="#f2f2f2" stroke="#fff"><title>Repair at five iterations | DeepSeek | Correctness: </title></rect>
<text class="value" x="3553.0" y="184" text-anchor="middle"></text>
<text class="tick" x="3553.0" y="198" text-anchor="middle"></text>
<rect x="3604" y="164" width="100" height="40" fill="#f2f2f2" stroke="#fff"><title>Repair at five iterations | Qwen | Correctness: </title></rect>
<text class="value" x="3655.0" y="184" text-anchor="middle"></text>
<text class="tick" x="3655.0" y="198" text-anchor="middle"></text>
<text class="label" x="3290" y="232" text-anchor="end">Understandability</text>
<rect x="3298" y="206" width="100" height="40" fill="#f2f2f2" stroke="#fff"><title>Repair at five iterations | Llama | Understandability: </title></rect>
<text class="value" x="3349.0" y="226" text-anchor="middle"></text>
<text class="tick" x="3349.0" y="240" text-anchor="middle"></text>
<rect x="3400" y="206" width="100" height="40" fill="#f2f2f2" stroke="#fff"><title>Repair at five iterations | Mistral | Understandability: </title></rect>
<text class="value" x="3451.0" y="226" text-anchor="middle"></text>
<text class="tick" x="3451.0" y="240" text-anchor="middle"></text>
<rect x="3502" y="206" width="100" height="40" fill="#f2f2f2" stroke="#fff"><title>Repair at five iterations | DeepSeek | Understandability: </title></rect>
<text class="value" x="3553.0" y="226" text-anchor="middle"></text>
<text class="tick" x="3553.0" y="240" text-anchor="middle"></text>
<rect x="3604" y="206" width="100" height="40" fill="#f2f2f2" stroke="#fff"><title>Repair at five iterations | Qwen | Understandability: </title></rect>
<text class="value" x="3655.0" y="226" text-anchor="middle"></text>
<text class="tick" x="3655.0" y="240" text-anchor="middle"></text>
<text class="label" x="3290" y="274" text-anchor="end">Terminology alignment</text>
<rect x="3298" y="248" width="100" height="40" fill="#f2f2f2" stroke="#fff"><title>Repair at five iterations | Llama | Terminology alignment: </title></rect>
<text class="value" x="3349.0" y="268" text-anchor="middle"></text>
<text class="tick" x="3349.0" y="282" text-anchor="middle"></text>
<rect x="3400" y="248" width="100" height="40" fill="#f2f2f2" stroke="#fff"><title>Repair at five iterations | Mistral | Terminology alignment: </title></rect>
<text class="value" x="3451.0" y="268" text-anchor="middle"></text>
<text class="tick" x="3451.0" y="282" text-anchor="middle"></text>
<rect x="3502" y="248" width="100" height="40" fill="#f2f2f2" stroke="#fff"><title>Repair at five iterations | DeepSeek | Terminology alignment: </title></rect>
<text class="value" x="3553.0" y="268" text-anchor="middle"></text>
<text class="tick" x="3553.0" y="282" text-anchor="middle"></text>
<rect x="3604" y="248" width="100" height="40" fill="#f2f2f2" stroke="#fff"><title>Repair at five iterations | Qwen | Terminology alignment: </title></rect>
<text class="value" x="3655.0" y="268" text-anchor="middle"></text>
<text class="tick" x="3655.0" y="282" text-anchor="middle"></text>
<text class="tick" x="40" y="378">Darker cells indicate higher median Likert score.</text>
</svg>