<svg xmlns="http://www.w3.org/2000/svg" width="1900" height="1120" viewBox="0 0 1900 1120">
<rect width="100%" height="100%" fill="#ffffff"/>
<text x="40.0" y="42.0" font-family="Arial, sans-serif" font-size="24" font-weight="700" text-anchor="start" fill="#1f2933">Human evaluation median Likert scores across prompting methods</text>
<text x="40.0" y="72.0" font-family="Arial, sans-serif" font-size="15" font-weight="400" text-anchor="start" fill="#52606d">Grouped by model and evaluation dimension; bars show median human scores on the 1-5 Likert scale.</text>
<rect x="40" y="100" width="18" height="18" rx="3" fill="#4E79A7"/>
<text x="66.0" y="115.0" font-family="Arial, sans-serif" font-size="13" font-weight="600" text-anchor="start" fill="#1f2933">One-shot</text>
<rect x="190" y="100" width="18" height="18" rx="3" fill="#F28E2B"/>
<text x="216.0" y="115.0" font-family="Arial, sans-serif" font-size="13" font-weight="600" text-anchor="start" fill="#1f2933">Few-shot</text>
<rect x="340" y="100" width="18" height="18" rx="3" fill="#59A14F"/>
<text x="366.0" y="115.0" font-family="Arial, sans-serif" font-size="13" font-weight="600" text-anchor="start" fill="#1f2933">RAG</text>
<rect x="490" y="100" width="18" height="18" rx="3" fill="#E15759"/>
<text x="516.0" y="115.0" font-family="Arial, sans-serif" font-size="13" font-weight="600" text-anchor="start" fill="#1f2933">Repair</text>
<rect x="90" y="148" width="820" height="390" fill="#ffffff" stroke="#d9e2ec" stroke-width="1"/>
<text x="106.0" y="172.0" font-family="Arial, sans-serif" font-size="16" font-weight="700" text-anchor="start" fill="#1f2933">Completeness</text>
<line x1="146" y1="484.0" x2="888" y2="484.0" stroke="#9fb3c8" stroke-width="1"/>
<text x="136.0" y="488.0" font-family="Arial, sans-serif" font-size="12" font-weight="400" text-anchor="end" fill="#52606d">0</text>
<line x1="146" y1="426.4" x2="888" y2="426.4" stroke="#d9e2ec" stroke-width="1"/>
<text x="136.0" y="430.4" font-family="Arial, sans-serif" font-size="12" font-weight="400" text-anchor="end" fill="#52606d">1</text>
<line x1="146" y1="368.8" x2="888" y2="368.8" stroke="#d9e2ec" stroke-width="1"/>
<text x="136.0" y="372.8" font-family="Arial, sans-serif" font-size="12" font-weight="400" text-anchor="end" fill="#52606d">2</text>
<line x1="146" y1="311.2" x2="888" y2="311.2" stroke="#d9e2ec" stroke-width="1"/>
<text x="136.0" y="315.2" font-family="Arial, sans-serif" font-size="12" font-weight="400" text-anchor="end" fill="#52606d">3</text>
<line x1="146" y1="253.6" x2="888" y2="253.6" stroke="#d9e2ec" stroke-width="1"/>
<text x="136.0" y="257.6" font-family="Arial, sans-serif" font-size="12" font-weight="400" text-anchor="end" fill="#52606d">4</text>
<line x1="146" y1="196.0" x2="888" y2="196.0" stroke="#d9e2ec" stroke-width="1"/>
<text x="136.0" y="200.0" font-family="Arial, sans-serif" font-size="12" font-weight="400" text-anchor="end" fill="#52606d">5</text>
<rect x="191.2" y="282.4" width="20" height="201.6" fill="#4E79A7" rx="2"/>
<text x="201.2" y="276.4" font-family="Arial, sans-serif" font-size="10" font-weight="700" text-anchor="middle" fill="#1f2933">3.5</text>
<rect x="216.2" y="311.2" width="20" height="172.8" fill="#F28E2B" rx="2"/>
<text x="226.2" y="305.2" font-family="Arial, sans-serif" font-size="10" font-weight="700" text-anchor="middle" fill="#1f2933">3</text>
<rect x="241.2" y="311.2" width="20" height="172.8" fill="#59A14F" rx="2"/>
<text x="251.2" y="305.2" font-family="Arial, sans-serif" font-size="10" font-weight="700" text-anchor="middle" fill="#1f2933">3</text>
<rect x="266.2" y="253.6" width="20" height="230.4" fill="#E15759" rx="2"/>
<text x="276.2" y="247.6" font-family="Arial, sans-serif" font-size="10" font-weight="700" text-anchor="middle" fill="#1f2933">4</text>
<text x="238.8" y="507.0" font-family="Arial, sans-serif" font-size="12" font-weight="700" text-anchor="middle" fill="#1f2933">Llama</text>
<rect x="376.8" y="196.0" width="20" height="288.0" fill="#4E79A7" rx="2"/>
<text x="386.8" y="190.0" font-family="Arial, sans-serif" font-size="10" font-weight="700" text-anchor="middle" fill="#1f2933">5</text>
<rect x="401.8" y="253.6" width="20" height="230.4" fill="#F28E2B" rx="2"/>
<text x="411.8" y="247.6" font-family="Arial, sans-serif" font-size="10" font-weight="700" text-anchor="middle" fill="#1f2933">4</text>
<rect x="426.8" y="224.8" width="20" height="259.2" fill="#59A14F" rx="2"/>
<text x="436.8" y="218.8" font-family="Arial, sans-serif" font-size="10" font-weight="700" text-anchor="middle" fill="#1f2933">4.5</text>
<rect x="451.8" y="253.6" width="20" height="230.4" fill="#E15759" rx="2"/>
<text x="461.8" y="247.6" font-family="Arial, sans-serif" font-size="10" font-weight="700" text-anchor="middle" fill="#1f2933">4</text>
<text x="424.2" y="507.0" font-family="Arial, sans-serif" font-size="12" font-weight="700" text-anchor="middle" fill="#1f2933">Mistral</text>
<rect x="562.2" y="253.6" width="20" height="230.4" fill="#4E79A7" rx="2"/>
<text x="572.2" y="247.6" font-family="Arial, sans-serif" font-size="10" font-weight="700" text-anchor="middle" fill="#1f2933">4</text>
<rect x="587.2" y="253.6" width="20" height="230.4" fill="#F28E2B" rx="2"/>
<text x="597.2" y="247.6" font-family="Arial, sans-serif" font-size="10" font-weight="700" text-anchor="middle" fill="#1f2933">4</text>
<rect x="612.2" y="224.8" width="20" height="259.2" fill="#59A14F" rx="2"/>
<text x="622.2" y="218.8" font-family="Arial, sans-serif" font-size="10" font-weight="700" text-anchor="middle" fill="#1f2933">4.5</text>
<rect x="637.2" y="253.6" width="20" height="230.4" fill="#E15759" rx="2"/>
<text x="647.2" y="247.6" font-family="Arial, sans-serif" font-size="10" font-weight="700" text-anchor="middle" fill="#1f2933">4</text>
<text x="609.8" y="507.0" font-family="Arial, sans-serif" font-size="12" font-weight="700" text-anchor="middle" fill="#1f2933">DeepSeek</text>
<rect x="747.8" y="282.4" width="20" height="201.6" fill="#4E79A7" rx="2"/>
<text x="757.8" y="276.4" font-family="Arial, sans-serif" font-size="10" font-weight="700" text-anchor="middle" fill="#1f2933">3.5</text>
<rect x="772.8" y="224.8" width="20" height="259.2" fill="#F28E2B" rx="2"/>
<text x="782.8" y="218.8" font-family="Arial, sans-serif" font-size="10" font-weight="700" text-anchor="middle" fill="#1f2933">4.5</text>
<rect x="797.8" y="311.2" width="20" height="172.8" fill="#59A14F" rx="2"/>
<text x="807.8" y="305.2" font-family="Arial, sans-serif" font-size="10" font-weight="700" text-anchor="middle" fill="#1f2933">3</text>
<rect x="822.8" y="253.6" width="20" height="230.4" fill="#E15759" rx="2"/>
<text x="832.8" y="247.6" font-family="Arial, sans-serif" font-size="10" font-weight="700" text-anchor="middle" fill="#1f2933">4</text>
<text x="795.2" y="507.0" font-family="Arial, sans-serif" font-size="12" font-weight="700" text-anchor="middle" fill="#1f2933">Qwen</text>
<text x="104.0" y="526.0" font-family="Arial, sans-serif" font-size="11" font-weight="400" text-anchor="start" fill="#627d98">Median score; sample sizes are reported separately</text>
<rect x="990" y="148" width="820" height="390" fill="#ffffff" stroke="#d9e2ec" stroke-width="1"/>
<text x="1006.0" y="172.0" font-family="Arial, sans-serif" font-size="16" font-weight="700" text-anchor="start" fill="#1f2933">Correctness</text>
<line x1="1046" y1="484.0" x2="1788" y2="484.0" stroke="#9fb3c8" stroke-width="1"/>
<text x="1036.0" y="488.0" font-family="Arial, sans-serif" font-size="12" font-weight="400" text-anchor="end" fill="#52606d">0</text>
<line x1="1046" y1="426.4" x2="1788" y2="426.4" stroke="#d9e2ec" stroke-width="1"/>
<text x="1036.0" y="430.4" font-family="Arial, sans-serif" font-size="12" font-weight="400" text-anchor="end" fill="#52606d">1</text>
<line x1="1046" y1="368.8" x2="1788" y2="368.8" stroke="#d9e2ec" stroke-width="1"/>
<text x="1036.0" y="372.8" font-family="Arial, sans-serif" font-size="12" font-weight="400" text-anchor="end" fill="#52606d">2</text>
<line x1="1046" y1="311.2" x2="1788" y2="311.2" stroke="#d9e2ec" stroke-width="1"/>
<text x="1036.0" y="315.2" font-family="Arial, sans-serif" font-size="12" font-weight="400" text-anchor="end" fill="#52606d">3</text>
<line x1="1046" y1="253.6" x2="1788" y2="253.6" stroke="#d9e2ec" stroke-width="1"/>
<text x="1036.0" y="257.6" font-family="Arial, sans-serif" font-size="12" font-weight="400" text-anchor="end" fill="#52606d">4</text>
<line x1="1046" y1="196.0" x2="1788" y2="196.0" stroke="#d9e2ec" stroke-width="1"/>
<text x="1036.0" y="200.0" font-family="Arial, sans-serif" font-size="12" font-weight="400" text-anchor="end" fill="#52606d">5</text>
<rect x="1091.2" y="253.6" width="20" height="230.4" fill="#4E79A7" rx="2"/>
<text x="1101.2" y="247.6" font-family="Arial, sans-serif" font-size="10" font-weight="700" text-anchor="middle" fill="#1f2933">4</text>
<rect x="1116.2" y="311.2" width="20" height="172.8" fill="#F28E2B" rx="2"/>
<text x="1126.2" y="305.2" font-family="Arial, sans-serif" font-size="10" font-weight="700" text-anchor="middle" fill="#1f2933">3</text>
<rect x="1141.2" y="311.2" width="20" height="172.8" fill="#59A14F" rx="2"/>
<text x="1151.2" y="305.2" font-family="Arial, sans-serif" font-size="10" font-weight="700" text-anchor="middle" fill="#1f2933">3</text>
<rect x="1166.2" y="253.6" width="20" height="230.4" fill="#E15759" rx="2"/>
<text x="1176.2" y="247.6" font-family="Arial, sans-serif" font-size="10" font-weight="700" text-anchor="middle" fill="#1f2933">4</text>
<text x="1138.8" y="507.0" font-family="Arial, sans-serif" font-size="12" font-weight="700" text-anchor="middle" fill="#1f2933">Llama</text>
<rect x="1276.8" y="224.8" width="20" height="259.2" fill="#4E79A7" rx="2"/>
<text x="1286.8" y="218.8" font-family="Arial, sans-serif" font-size="10" font-weight="700" text-anchor="middle" fill="#1f2933">4.5</text>
<rect x="1301.8" y="253.6" width="20" height="230.4" fill="#F28E2B" rx="2"/>
<text x="1311.8" y="247.6" font-family="Arial, sans-serif" font-size="10" font-weight="700" text-anchor="middle" fill="#1f2933">4</text>
<rect x="1326.8" y="253.6" width="20" height="230.4" fill="#59A14F" rx="2"/>
<text x="1336.8" y="247.6" font-family="Arial, sans-serif" font-size="10" font-weight="700" text-anchor="middle" fill="#1f2933">4</text>
<rect x="1351.8" y="196.0" width="20" height="288.0" fill="#E15759" rx="2"/>
<text x="1361.8" y="190.0" font-family="Arial, sans-serif" font-size="10" font-weight="700" text-anchor="middle" fill="#1f2933">5</text>
<text x="1324.2" y="507.0" font-family="Arial, sans-serif" font-size="12" font-weight="700" text-anchor="middle" fill="#1f2933">Mistral</text>
<rect x="1462.2" y="282.4" width="20" height="201.6" fill="#4E79A7" rx="2"/>
<text x="1472.2" y="276.4" font-family="Arial, sans-serif" font-size="10" font-weight="700" text-anchor="middle" fill="#1f2933">3.5</text>
<rect x="1487.2" y="253.6" width="20" height="230.4" fill="#F28E2B" rx="2"/>
<text x="1497.2" y="247.6" font-family="Arial, sans-serif" font-size="10" font-weight="700" text-anchor="middle" fill="#1f2933">4</text>
<rect x="1512.2" y="224.8" width="20" height="259.2" fill="#59A14F" rx="2"/>
<text x="1522.2" y="218.8" font-family="Arial, sans-serif" font-size="10" font-weight="700" text-anchor="middle" fill="#1f2933">4.5</text>
<rect x="1537.2" y="253.6" width="20" height="230.4" fill="#E15759" rx="2"/>
<text x="1547.2" y="247.6" font-family="Arial, sans-serif" font-size="10" font-weight="700" text-anchor="middle" fill="#1f2933">4</text>
<text x="1509.8" y="507.0" font-family="Arial, sans-serif" font-size="12" font-weight="700" text-anchor="middle" fill="#1f2933">DeepSeek</text>
<rect x="1647.8" y="340.0" width="20" height="144.0" fill="#4E79A7" rx="2"/>
<text x="1657.8" y="334.0" font-family="Arial, sans-serif" font-size="10" font-weight="700" text-anchor="middle" fill="#1f2933">2.5</text>
<rect x="1672.8" y="253.6" width="20" height="230.4" fill="#F28E2B" rx="2"/>
<text x="1682.8" y="247.6" font-family="Arial, sans-serif" font-size="10" font-weight="700" text-anchor="middle" fill="#1f2933">4</text>
<rect x="1697.8" y="340.0" width="20" height="144.0" fill="#59A14F" rx="2"/>
<text x="1707.8" y="334.0" font-family="Arial, sans-serif" font-size="10" font-weight="700" text-anchor="middle" fill="#1f2933">2.5</text>
<rect x="1722.8" y="253.6" width="20" height="230.4" fill="#E15759" rx="2"/>
<text x="1732.8" y="247.6" font-family="Arial, sans-serif" font-size="10" font-weight="700" text-anchor="middle" fill="#1f2933">4</text>
<text x="1695.2" y="507.0" font-family="Arial, sans-serif" font-size="12" font-weight="700" text-anchor="middle" fill="#1f2933">Qwen</text>
<text x="1004.0" y="526.0" font-family="Arial, sans-serif" font-size="11" font-weight="400" text-anchor="start" fill="#627d98">Median score; sample sizes are reported separately</text>
<rect x="90" y="654" width="820" height="390" fill="#ffffff" stroke="#d9e2ec" stroke-width="1"/>
<text x="106.0" y="678.0" font-family="Arial, sans-serif" font-size="16" font-weight="700" text-anchor="start" fill="#1f2933">Understandability</text>
<line x1="146" y1="990.0" x2="888" y2="990.0" stroke="#9fb3c8" stroke-width="1"/>
<text x="136.0" y="994.0" font-family="Arial, sans-serif" font-size="12" font-weight="400" text-anchor="end" fill="#52606d">0</text>
<line x1="146" y1="932.4" x2="888" y2="932.4" stroke="#d9e2ec" stroke-width="1"/>
<text x="136.0" y="936.4" font-family="Arial, sans-serif" font-size="12" font-weight="400" text-anchor="end" fill="#52606d">1</text>
<line x1="146" y1="874.8" x2="888" y2="874.8" stroke="#d9e2ec" stroke-width="1"/>
<text x="136.0" y="878.8" font-family="Arial, sans-serif" font-size="12" font-weight="400" text-anchor="end" fill="#52606d">2</text>
<line x1="146" y1="817.2" x2="888" y2="817.2" stroke="#d9e2ec" stroke-width="1"/>
<text x="136.0" y="821.2" font-family="Arial, sans-serif" font-size="12" font-weight="400" text-anchor="end" fill="#52606d">3</text>
<line x1="146" y1="759.6" x2="888" y2="759.6" stroke="#d9e2ec" stroke-width="1"/>
<text x="136.0" y="763.6" font-family="Arial, sans-serif" font-size="12" font-weight="400" text-anchor="end" fill="#52606d">4</text>
<line x1="146" y1="702.0" x2="888" y2="702.0" stroke="#d9e2ec" stroke-width="1"/>
<text x="136.0" y="706.0" font-family="Arial, sans-serif" font-size="12" font-weight="400" text-anchor="end" fill="#52606d">5</text>
<rect x="191.2" y="702.0" width="20" height="288.0" fill="#4E79A7" rx="2"/>
<text x="201.2" y="696.0" font-family="Arial, sans-serif" font-size="10" font-weight="700" text-anchor="middle" fill="#1f2933">5</text>
<rect x="216.2" y="702.0" width="20" height="288.0" fill="#F28E2B" rx="2"/>
<text x="226.2" y="696.0" font-family="Arial, sans-serif" font-size="10" font-weight="700" text-anchor="middle" fill="#1f2933">5</text>
<rect x="241.2" y="730.8" width="20" height="259.2" fill="#59A14F" rx="2"/>
<text x="251.2" y="724.8" font-family="Arial, sans-serif" font-size="10" font-weight="700" text-anchor="middle" fill="#1f2933">4.5</text>
<rect x="266.2" y="702.0" width="20" height="288.0" fill="#E15759" rx="2"/>
<text x="276.2" y="696.0" font-family="Arial, sans-serif" font-size="10" font-weight="700" text-anchor="middle" fill="#1f2933">5</text>
<text x="238.8" y="1013.0" font-family="Arial, sans-serif" font-size="12" font-weight="700" text-anchor="middle" fill="#1f2933">Llama</text>
<rect x="376.8" y="730.8" width="20" height="259.2" fill="#4E79A7" rx="2"/>
<text x="386.8" y="724.8" font-family="Arial, sans-serif" font-size="10" font-weight="700" text-anchor="middle" fill="#1f2933">4.5</text>
<rect x="401.8" y="730.8" width="20" height="259.2" fill="#F28E2B" rx="2"/>
<text x="411.8" y="724.8" font-family="Arial, sans-serif" font-size="10" font-weight="700" text-anchor="middle" fill="#1f2933">4.5</text>
<rect x="426.8" y="702.0" width="20" height="288.0" fill="#59A14F" rx="2"/>
<text x="436.8" y="696.0" font-family="Arial, sans-serif" font-size="10" font-weight="700" text-anchor="middle" fill="#1f2933">5</text>
<rect x="451.8" y="702.0" width="20" height="288.0" fill="#E15759" rx="2"/>
<text x="461.8" y="696.0" font-family="Arial, sans-serif" font-size="10" font-weight="700" text-anchor="middle" fill="#1f2933">5</text>
<text x="424.2" y="1013.0" font-family="Arial, sans-serif" font-size="12" font-weight="700" text-anchor="middle" fill="#1f2933">Mistral</text>
<rect x="562.2" y="788.4" width="20" height="201.6" fill="#4E79A7" rx="2"/>
<text x="572.2" y="782.4" font-family="Arial, sans-serif" font-size="10" font-weight="700" text-anchor="middle" fill="#1f2933">3.5</text>
<rect x="587.2" y="702.0" width="20" height="288.0" fill="#F28E2B" rx="2"/>
<text x="597.2" y="696.0" font-family="Arial, sans-serif" font-size="10" font-weight="700" text-anchor="middle" fill="#1f2933">5</text>
<rect x="612.2" y="702.0" width="20" height="288.0" fill="#59A14F" rx="2"/>
<text x="622.2" y="696.0" font-family="Arial, sans-serif" font-size="10" font-weight="700" text-anchor="middle" fill="#1f2933">5</text>
<rect x="637.2" y="702.0" width="20" height="288.0" fill="#E15759" rx="2"/>
<text x="647.2" y="696.0" font-family="Arial, sans-serif" font-size="10" font-weight="700" text-anchor="middle" fill="#1f2933">5</text>
<text x="609.8" y="1013.0" font-family="Arial, sans-serif" font-size="12" font-weight="700" text-anchor="middle" fill="#1f2933">DeepSeek</text>
<rect x="747.8" y="846.0" width="20" height="144.0" fill="#4E79A7" rx="2"/>
<text x="757.8" y="840.0" font-family="Arial, sans-serif" font-size="10" font-weight="700" text-anchor="middle" fill="#1f2933">2.5</text>
<rect x="772.8" y="702.0" width="20" height="288.0" fill="#F28E2B" rx="2"/>
<text x="782.8" y="696.0" font-family="Arial, sans-serif" font-size="10" font-weight="700" text-anchor="middle" fill="#1f2933">5</text>
<rect x="797.8" y="759.6" width="20" height="230.4" fill="#59A14F" rx="2"/>
<text x="807.8" y="753.6" font-family="Arial, sans-serif" font-size="10" font-weight="700" text-anchor="middle" fill="#1f2933">4</text>
<rect x="822.8" y="817.2" width="20" height="172.8" fill="#E15759" rx="2"/>
<text x="832.8" y="811.2" font-family="Arial, sans-serif" font-size="10" font-weight="700" text-anchor="middle" fill="#1f2933">3</text>
<text x="795.2" y="1013.0" font-family="Arial, sans-serif" font-size="12" font-weight="700" text-anchor="middle" fill="#1f2933">Qwen</text>
<text x="104.0" y="1032.0" font-family="Arial, sans-serif" font-size="11" font-weight="400" text-anchor="start" fill="#627d98">Median score; sample sizes are reported separately</text>
<rect x="990" y="654" width="820" height="390" fill="#ffffff" stroke="#d9e2ec" stroke-width="1"/>
<text x="1006.0" y="678.0" font-family="Arial, sans-serif" font-size="16" font-weight="700" text-anchor="start" fill="#1f2933">Terminology alignment</text>
<line x1="1046" y1="990.0" x2="1788" y2="990.0" stroke="#9fb3c8" stroke-width="1"/>
<text x="1036.0" y="994.0" font-family="Arial, sans-serif" font-size="12" font-weight="400" text-anchor="end" fill="#52606d">0</text>
<line x1="1046" y1="932.4" x2="1788" y2="932.4" stroke="#d9e2ec" stroke-width="1"/>
<text x="1036.0" y="936.4" font-family="Arial, sans-serif" font-size="12" font-weight="400" text-anchor="end" fill="#52606d">1</text>
<line x1="1046" y1="874.8" x2="1788" y2="874.8" stroke="#d9e2ec" stroke-width="1"/>
<text x="1036.0" y="878.8" font-family="Arial, sans-serif" font-size="12" font-weight="400" text-anchor="end" fill="#52606d">2</text>
<line x1="1046" y1="817.2" x2="1788" y2="817.2" stroke="#d9e2ec" stroke-width="1"/>
<text x="1036.0" y="821.2" font-family="Arial, sans-serif" font-size="12" font-weight="400" text-anchor="end" fill="#52606d">3</text>
<line x1="1046" y1="759.6" x2="1788" y2="759.6" stroke="#d9e2ec" stroke-width="1"/>
<text x="1036.0" y="763.6" font-family="Arial, sans-serif" font-size="12" font-weight="400" text-anchor="end" fill="#52606d">4</text>
<line x1="1046" y1="702.0" x2="1788" y2="702.0" stroke="#d9e2ec" stroke-width="1"/>
<text x="1036.0" y="706.0" font-family="Arial, sans-serif" font-size="12" font-weight="400" text-anchor="end" fill="#52606d">5</text>
<rect x="1091.2" y="730.8" width="20" height="259.2" fill="#4E79A7" rx="2"/>
<text x="1101.2" y="724.8" font-family="Arial, sans-serif" font-size="10" font-weight="700" text-anchor="middle" fill="#1f2933">4.5</text>
<rect x="1116.2" y="702.0" width="20" height="288.0" fill="#F28E2B" rx="2"/>
<text x="1126.2" y="696.0" font-family="Arial, sans-serif" font-size="10" font-weight="700" text-anchor="middle" fill="#1f2933">5</text>
<rect x="1141.2" y="730.8" width="20" height="259.2" fill="#59A14F" rx="2"/>
<text x="1151.2" y="724.8" font-family="Arial, sans-serif" font-size="10" font-weight="700" text-anchor="middle" fill="#1f2933">4.5</text>
<rect x="1166.2" y="759.6" width="20" height="230.4" fill="#E15759" rx="2"/>
<text x="1176.2" y="753.6" font-family="Arial, sans-serif" font-size="10" font-weight="700" text-anchor="middle" fill="#1f2933">4</text>
<text x="1138.8" y="1013.0" font-family="Arial, sans-serif" font-size="12" font-weight="700" text-anchor="middle" fill="#1f2933">Llama</text>
<rect x="1276.8" y="788.4" width="20" height="201.6" fill="#4E79A7" rx="2"/>
<text x="1286.8" y="782.4" font-family="Arial, sans-serif" font-size="10" font-weight="700" text-anchor="middle" fill="#1f2933">3.5</text>
<rect x="1301.8" y="730.8" width="20" height="259.2" fill="#F28E2B" rx="2"/>
<text x="1311.8" y="724.8" font-family="Arial, sans-serif" font-size="10" font-weight="700" text-anchor="middle" fill="#1f2933">4.5</text>
<rect x="1326.8" y="759.6" width="20" height="230.4" fill="#59A14F" rx="2"/>
<text x="1336.8" y="753.6" font-family="Arial, sans-serif" font-size="10" font-weight="700" text-anchor="middle" fill="#1f2933">4</text>
<rect x="1351.8" y="702.0" width="20" height="288.0" fill="#E15759" rx="2"/>
<text x="1361.8" y="696.0" font-family="Arial, sans-serif" font-size="10" font-weight="700" text-anchor="middle" fill="#1f2933">5</text>
<text x="1324.2" y="1013.0" font-family="Arial, sans-serif" font-size="12" font-weight="700" text-anchor="middle" fill="#1f2933">Mistral</text>
<rect x="1462.2" y="759.6" width="20" height="230.4" fill="#4E79A7" rx="2"/>
<text x="1472.2" y="753.6" font-family="Arial, sans-serif" font-size="10" font-weight="700" text-anchor="middle" fill="#1f2933">4</text>
<rect x="1487.2" y="702.0" width="20" height="288.0" fill="#F28E2B" rx="2"/>
<text x="1497.2" y="696.0" font-family="Arial, sans-serif" font-size="10" font-weight="700" text-anchor="middle" fill="#1f2933">5</text>
<rect x="1512.2" y="702.0" width="20" height="288.0" fill="#59A14F" rx="2"/>
<text x="1522.2" y="696.0" font-family="Arial, sans-serif" font-size="10" font-weight="700" text-anchor="middle" fill="#1f2933">5</text>
<rect x="1537.2" y="702.0" width="20" height="288.0" fill="#E15759" rx="2"/>
<text x="1547.2" y="696.0" font-family="Arial, sans-serif" font-size="10" font-weight="700" text-anchor="middle" fill="#1f2933">5</text>
<text x="1509.8" y="1013.0" font-family="Arial, sans-serif" font-size="12" font-weight="700" text-anchor="middle" fill="#1f2933">DeepSeek</text>
<rect x="1647.8" y="817.2" width="20" height="172.8" fill="#4E79A7" rx="2"/>
<text x="1657.8" y="811.2" font-family="Arial, sans-serif" font-size="10" font-weight="700" text-anchor="middle" fill="#1f2933">3</text>
<rect x="1672.8" y="702.0" width="20" height="288.0" fill="#F28E2B" rx="2"/>
<text x="1682.8" y="696.0" font-family="Arial, sans-serif" font-size="10" font-weight="700" text-anchor="middle" fill="#1f2933">5</text>
<rect x="1697.8" y="846.0" width="20" height="144.0" fill="#59A14F" rx="2"/>
<text x="1707.8" y="840.0" font-family="Arial, sans-serif" font-size="10" font-weight="700" text-anchor="middle" fill="#1f2933">2.5</text>
<rect x="1722.8" y="759.6" width="20" height="230.4" fill="#E15759" rx="2"/>
<text x="1732.8" y="753.6" font-family="Arial, sans-serif" font-size="10" font-weight="700" text-anchor="middle" fill="#1f2933">4</text>
<text x="1695.2" y="1013.0" font-family="Arial, sans-serif" font-size="12" font-weight="700" text-anchor="middle" fill="#1f2933">Qwen</text>
<text x="1004.0" y="1032.0" font-family="Arial, sans-serif" font-size="11" font-weight="400" text-anchor="start" fill="#627d98">Median score; sample sizes are reported separately</text>
</svg>