<svg xmlns="http://www.w3.org/2000/svg" width="1532" height="660" viewBox="0 0 1532 660">
<style>
text { font-family: Arial, Helvetica, sans-serif; fill: #222; }
.title { font-size: 24px; font-weight: 700; }
.subtitle { font-size: 13px; fill: #555; }
.axis { stroke: #333; stroke-width: 1.2; }
.grid { stroke: #ddd; stroke-width: 1; }
.tick { font-size: 12px; fill: #555; }
.label { font-size: 12px; fill: #222; }
.value { font-size: 11px; fill: #222; }
.legend { font-size: 12px; }
</style>
<rect width="100%" height="100%" fill="#fff"/>
<text class="title" x="70" y="34">Structural Violation Type Distribution</text>
<text class="subtitle" x="70" y="56">Violation type distribution by LLM and strategy</text>
<line class="grid" x1="80" y1="490.0" x2="1492" y2="490.0"/>
<text class="tick" x="68" y="494.0" text-anchor="end">0</text>
<line class="grid" x1="80" y1="410.4" x2="1492" y2="410.4"/>
<text class="tick" x="68" y="414.4" text-anchor="end">12</text>
<line class="grid" x1="80" y1="330.8" x2="1492" y2="330.8"/>
<text class="tick" x="68" y="334.8" text-anchor="end">24</text>
<line class="grid" x1="80" y1="251.2" x2="1492" y2="251.2"/>
<text class="tick" x="68" y="255.2" text-anchor="end">37</text>
<line class="grid" x1="80" y1="171.6" x2="1492" y2="171.6"/>
<text class="tick" x="68" y="175.6" text-anchor="end">49</text>
<line class="grid" x1="80" y1="92.0" x2="1492" y2="92.0"/>
<text class="tick" x="68" y="96.0" text-anchor="end">61</text>
<line class="axis" x1="80" y1="92" x2="80" y2="490"/>
<line class="axis" x1="80" y1="490" x2="1492" y2="490"/>
<rect x="80.0" y="483.5" width="78.9" height="6.5" fill="#B07AA1"><title>DeepSeek R1 14B | RAG | duplicate_transitions: 1</title></rect>
<rect x="80.0" y="418.2" width="78.9" height="65.2" fill="#FF9DA7"><title>DeepSeek R1 14B | RAG | invalid_choice_guards: 10</title></rect>
<rect x="80.0" y="398.7" width="78.9" height="19.6" fill="#EDC948"><title>DeepSeek R1 14B | RAG | invalid_choice_node: 3</title></rect>
<rect x="80.0" y="307.3" width="78.9" height="91.3" fill="#4E79A7"><title>DeepSeek R1 14B | RAG | missing_final_state: 14</title></rect>
<rect x="80.0" y="268.2" width="78.9" height="39.1" fill="#F28E2B"><title>DeepSeek R1 14B | RAG | missing_initial_state: 6</title></rect>
<rect x="80.0" y="235.5" width="78.9" height="32.6" fill="#E15759"><title>DeepSeek R1 14B | RAG | multiple_initial_states: 5</title></rect>
<rect x="80.0" y="209.4" width="78.9" height="26.1" fill="#59A14F"><title>DeepSeek R1 14B | RAG | orphan_states: 4</title></rect>
<rect x="80.0" y="196.4" width="78.9" height="13.0" fill="#76B7B2"><title>DeepSeek R1 14B | RAG | unreachable_states: 2</title></rect>
<text class="label" x="119.4" y="508" text-anchor="end" transform="rotate(-38 119.4 508)">DeepSeek R1 14B | RAG</text>
<rect x="168.9" y="477.0" width="78.9" height="13.0" fill="#FF9DA7"><title>DeepSeek R1 14B | RAG [examples only] | invalid_choice_guards: 2</title></rect>
<rect x="168.9" y="457.4" width="78.9" height="19.6" fill="#EDC948"><title>DeepSeek R1 14B | RAG [examples only] | invalid_choice_node: 3</title></rect>
<rect x="168.9" y="353.0" width="78.9" height="104.4" fill="#4E79A7"><title>DeepSeek R1 14B | RAG [examples only] | missing_final_state: 16</title></rect>
<rect x="168.9" y="313.8" width="78.9" height="39.1" fill="#F28E2B"><title>DeepSeek R1 14B | RAG [examples only] | missing_initial_state: 6</title></rect>
<rect x="168.9" y="300.8" width="78.9" height="13.0" fill="#E15759"><title>DeepSeek R1 14B | RAG [examples only] | multiple_initial_states: 2</title></rect>
<rect x="168.9" y="287.7" width="78.9" height="13.0" fill="#59A14F"><title>DeepSeek R1 14B | RAG [examples only] | orphan_states: 2</title></rect>
<rect x="168.9" y="281.2" width="78.9" height="6.5" fill="#76B7B2"><title>DeepSeek R1 14B | RAG [examples only] | unreachable_states: 1</title></rect>
<text class="label" x="208.3" y="508" text-anchor="end" transform="rotate(-38 208.3 508)">DeepSeek R1 14B | RAG [examples only]</text>
<rect x="257.8" y="379.1" width="78.9" height="110.9" fill="#4E79A7"><title>DeepSeek R1 14B | RAG [rules only] | missing_final_state: 17</title></rect>
<rect x="257.8" y="320.4" width="78.9" height="58.7" fill="#F28E2B"><title>DeepSeek R1 14B | RAG [rules only] | missing_initial_state: 9</title></rect>
<rect x="257.8" y="300.8" width="78.9" height="19.6" fill="#E15759"><title>DeepSeek R1 14B | RAG [rules only] | multiple_initial_states: 3</title></rect>
<rect x="257.8" y="294.3" width="78.9" height="6.5" fill="#76B7B2"><title>DeepSeek R1 14B | RAG [rules only] | unreachable_states: 1</title></rect>
<text class="label" x="297.2" y="508" text-anchor="end" transform="rotate(-38 297.2 508)">DeepSeek R1 14B | RAG [rules only]</text>
<rect x="346.6" y="379.1" width="78.9" height="110.9" fill="#4E79A7"><title>DeepSeek R1 14B | RAG [theory only] | missing_final_state: 17</title></rect>
<rect x="346.6" y="320.4" width="78.9" height="58.7" fill="#F28E2B"><title>DeepSeek R1 14B | RAG [theory only] | missing_initial_state: 9</title></rect>
<rect x="346.6" y="307.3" width="78.9" height="13.0" fill="#76B7B2"><title>DeepSeek R1 14B | RAG [theory only] | unreachable_states: 2</title></rect>
<text class="label" x="386.1" y="508" text-anchor="end" transform="rotate(-38 386.1 508)">DeepSeek R1 14B | RAG [theory only]</text>
<rect x="435.5" y="470.4" width="78.9" height="19.6" fill="#B07AA1"><title>Llama 3.1 8B Instruct | RAG | duplicate_transitions: 3</title></rect>
<rect x="435.5" y="405.2" width="78.9" height="65.2" fill="#FF9DA7"><title>Llama 3.1 8B Instruct | RAG | invalid_choice_guards: 10</title></rect>
<rect x="435.5" y="385.6" width="78.9" height="19.6" fill="#EDC948"><title>Llama 3.1 8B Instruct | RAG | invalid_choice_node: 3</title></rect>
<rect x="435.5" y="326.9" width="78.9" height="58.7" fill="#4E79A7"><title>Llama 3.1 8B Instruct | RAG | missing_final_state: 9</title></rect>
<rect x="435.5" y="287.7" width="78.9" height="39.1" fill="#E15759"><title>Llama 3.1 8B Instruct | RAG | multiple_initial_states: 6</title></rect>
<rect x="435.5" y="248.6" width="78.9" height="39.1" fill="#76B7B2"><title>Llama 3.1 8B Instruct | RAG | unreachable_states: 6</title></rect>
<text class="label" x="474.9" y="508" text-anchor="end" transform="rotate(-38 474.9 508)">Llama 3.1 8B Instruct | RAG</text>
<rect x="524.4" y="477.0" width="78.9" height="13.0" fill="#B07AA1"><title>Llama 3.1 8B Instruct | RAG [examples only] | duplicate_transitions: 2</title></rect>
<rect x="524.4" y="366.0" width="78.9" height="110.9" fill="#FF9DA7"><title>Llama 3.1 8B Instruct | RAG [examples only] | invalid_choice_guards: 17</title></rect>
<rect x="524.4" y="326.9" width="78.9" height="39.1" fill="#EDC948"><title>Llama 3.1 8B Instruct | RAG [examples only] | invalid_choice_node: 6</title></rect>
<rect x="524.4" y="268.2" width="78.9" height="58.7" fill="#4E79A7"><title>Llama 3.1 8B Instruct | RAG [examples only] | missing_final_state: 9</title></rect>
<rect x="524.4" y="261.6" width="78.9" height="6.5" fill="#F28E2B"><title>Llama 3.1 8B Instruct | RAG [examples only] | missing_initial_state: 1</title></rect>
<rect x="524.4" y="242.1" width="78.9" height="19.6" fill="#E15759"><title>Llama 3.1 8B Instruct | RAG [examples only] | multiple_initial_states: 3</title></rect>
<rect x="524.4" y="216.0" width="78.9" height="26.1" fill="#59A14F"><title>Llama 3.1 8B Instruct | RAG [examples only] | orphan_states: 4</title></rect>
<rect x="524.4" y="157.2" width="78.9" height="58.7" fill="#76B7B2"><title>Llama 3.1 8B Instruct | RAG [examples only] | unreachable_states: 9</title></rect>
<text class="label" x="563.8" y="508" text-anchor="end" transform="rotate(-38 563.8 508)">Llama 3.1 8B Instruct | RAG [examples only]</text>
<rect x="613.2" y="444.3" width="78.9" height="45.7" fill="#4E79A7"><title>Llama 3.1 8B Instruct | RAG [rules only] | missing_final_state: 7</title></rect>
<rect x="613.2" y="411.7" width="78.9" height="32.6" fill="#E15759"><title>Llama 3.1 8B Instruct | RAG [rules only] | multiple_initial_states: 5</title></rect>
<rect x="613.2" y="405.2" width="78.9" height="6.5" fill="#59A14F"><title>Llama 3.1 8B Instruct | RAG [rules only] | orphan_states: 1</title></rect>
<rect x="613.2" y="392.1" width="78.9" height="13.0" fill="#76B7B2"><title>Llama 3.1 8B Instruct | RAG [rules only] | unreachable_states: 2</title></rect>
<text class="label" x="652.7" y="508" text-anchor="end" transform="rotate(-38 652.7 508)">Llama 3.1 8B Instruct | RAG [rules only]</text>
<rect x="702.1" y="339.9" width="78.9" height="150.1" fill="#4E79A7"><title>Llama 3.1 8B Instruct | RAG [theory only] | missing_final_state: 23</title></rect>
<rect x="702.1" y="333.4" width="78.9" height="6.5" fill="#76B7B2"><title>Llama 3.1 8B Instruct | RAG [theory only] | unreachable_states: 1</title></rect>
<text class="label" x="741.6" y="508" text-anchor="end" transform="rotate(-38 741.6 508)">Llama 3.1 8B Instruct | RAG [theory only]</text>
<rect x="791.0" y="477.0" width="78.9" height="13.0" fill="#B07AA1"><title>Mistral | RAG | duplicate_transitions: 2</title></rect>
<rect x="791.0" y="470.4" width="78.9" height="6.5" fill="#FF9DA7"><title>Mistral | RAG | invalid_choice_guards: 1</title></rect>
<rect x="791.0" y="444.3" width="78.9" height="26.1" fill="#EDC948"><title>Mistral | RAG | invalid_choice_node: 4</title></rect>
<rect x="791.0" y="392.1" width="78.9" height="52.2" fill="#4E79A7"><title>Mistral | RAG | missing_final_state: 8</title></rect>
<rect x="791.0" y="385.6" width="78.9" height="6.5" fill="#F28E2B"><title>Mistral | RAG | missing_initial_state: 1</title></rect>
<rect x="791.0" y="326.9" width="78.9" height="58.7" fill="#E15759"><title>Mistral | RAG | multiple_initial_states: 9</title></rect>
<rect x="791.0" y="294.3" width="78.9" height="32.6" fill="#59A14F"><title>Mistral | RAG | orphan_states: 5</title></rect>
<rect x="791.0" y="281.2" width="78.9" height="13.0" fill="#76B7B2"><title>Mistral | RAG | unreachable_states: 2</title></rect>
<text class="label" x="830.4" y="508" text-anchor="end" transform="rotate(-38 830.4 508)">Mistral | RAG</text>
<rect x="879.9" y="477.0" width="78.9" height="13.0" fill="#B07AA1"><title>Mistral | RAG [examples only] | duplicate_transitions: 2</title></rect>
<rect x="879.9" y="372.6" width="78.9" height="104.4" fill="#FF9DA7"><title>Mistral | RAG [examples only] | invalid_choice_guards: 16</title></rect>
<rect x="879.9" y="320.4" width="78.9" height="52.2" fill="#EDC948"><title>Mistral | RAG [examples only] | invalid_choice_node: 8</title></rect>
<rect x="879.9" y="222.5" width="78.9" height="97.9" fill="#4E79A7"><title>Mistral | RAG [examples only] | missing_final_state: 15</title></rect>
<rect x="879.9" y="202.9" width="78.9" height="19.6" fill="#F28E2B"><title>Mistral | RAG [examples only] | missing_initial_state: 3</title></rect>
<rect x="879.9" y="176.8" width="78.9" height="26.1" fill="#E15759"><title>Mistral | RAG [examples only] | multiple_initial_states: 4</title></rect>
<rect x="879.9" y="144.2" width="78.9" height="32.6" fill="#59A14F"><title>Mistral | RAG [examples only] | orphan_states: 5</title></rect>
<rect x="879.9" y="92.0" width="78.9" height="52.2" fill="#76B7B2"><title>Mistral | RAG [examples only] | unreachable_states: 8</title></rect>
<text class="label" x="919.3" y="508" text-anchor="end" transform="rotate(-38 919.3 508)">Mistral | RAG [examples only]</text>
<rect x="968.8" y="477.0" width="78.9" height="13.0" fill="#B07AA1"><title>Mistral | RAG [rules only] | duplicate_transitions: 2</title></rect>
<rect x="968.8" y="437.8" width="78.9" height="39.1" fill="#4E79A7"><title>Mistral | RAG [rules only] | missing_final_state: 6</title></rect>
<rect x="968.8" y="405.2" width="78.9" height="32.6" fill="#F28E2B"><title>Mistral | RAG [rules only] | missing_initial_state: 5</title></rect>
<rect x="968.8" y="359.5" width="78.9" height="45.7" fill="#E15759"><title>Mistral | RAG [rules only] | multiple_initial_states: 7</title></rect>
<rect x="968.8" y="320.4" width="78.9" height="39.1" fill="#59A14F"><title>Mistral | RAG [rules only] | orphan_states: 6</title></rect>
<rect x="968.8" y="287.7" width="78.9" height="32.6" fill="#76B7B2"><title>Mistral | RAG [rules only] | unreachable_states: 5</title></rect>
<text class="label" x="1008.2" y="508" text-anchor="end" transform="rotate(-38 1008.2 508)">Mistral | RAG [rules only]</text>
<rect x="1057.6" y="444.3" width="78.9" height="45.7" fill="#4E79A7"><title>Mistral | RAG [theory only] | missing_final_state: 7</title></rect>
<rect x="1057.6" y="405.2" width="78.9" height="39.1" fill="#F28E2B"><title>Mistral | RAG [theory only] | missing_initial_state: 6</title></rect>
<rect x="1057.6" y="392.1" width="78.9" height="13.0" fill="#59A14F"><title>Mistral | RAG [theory only] | orphan_states: 2</title></rect>
<rect x="1057.6" y="385.6" width="78.9" height="6.5" fill="#76B7B2"><title>Mistral | RAG [theory only] | unreachable_states: 1</title></rect>
<text class="label" x="1097.1" y="508" text-anchor="end" transform="rotate(-38 1097.1 508)">Mistral | RAG [theory only]</text>
<rect x="1146.5" y="457.4" width="78.9" height="32.6" fill="#B07AA1"><title>Qwen 2.5 7B Instruct | RAG | duplicate_transitions: 5</title></rect>
<rect x="1146.5" y="450.9" width="78.9" height="6.5" fill="#FF9DA7"><title>Qwen 2.5 7B Instruct | RAG | invalid_choice_guards: 1</title></rect>
<rect x="1146.5" y="444.3" width="78.9" height="6.5" fill="#EDC948"><title>Qwen 2.5 7B Instruct | RAG | invalid_choice_node: 1</title></rect>
<rect x="1146.5" y="379.1" width="78.9" height="65.2" fill="#4E79A7"><title>Qwen 2.5 7B Instruct | RAG | missing_final_state: 10</title></rect>
<rect x="1146.5" y="294.3" width="78.9" height="84.8" fill="#E15759"><title>Qwen 2.5 7B Instruct | RAG | multiple_initial_states: 13</title></rect>
<rect x="1146.5" y="281.2" width="78.9" height="13.0" fill="#59A14F"><title>Qwen 2.5 7B Instruct | RAG | orphan_states: 2</title></rect>
<rect x="1146.5" y="268.2" width="78.9" height="13.0" fill="#8CD17D"><title>Qwen 2.5 7B Instruct | RAG | parse_warning: 2</title></rect>
<rect x="1146.5" y="235.5" width="78.9" height="32.6" fill="#76B7B2"><title>Qwen 2.5 7B Instruct | RAG | unreachable_states: 5</title></rect>
<text class="label" x="1185.9" y="508" text-anchor="end" transform="rotate(-38 1185.9 508)">Qwen 2.5 7B Instruct | RAG</text>
<rect x="1235.4" y="483.5" width="78.9" height="6.5" fill="#B07AA1"><title>Qwen 2.5 7B Instruct | RAG [examples only] | duplicate_transitions: 1</title></rect>
<rect x="1235.4" y="477.0" width="78.9" height="6.5" fill="#FF9DA7"><title>Qwen 2.5 7B Instruct | RAG [examples only] | invalid_choice_guards: 1</title></rect>
<rect x="1235.4" y="431.3" width="78.9" height="45.7" fill="#EDC948"><title>Qwen 2.5 7B Instruct | RAG [examples only] | invalid_choice_node: 7</title></rect>
<rect x="1235.4" y="359.5" width="78.9" height="71.8" fill="#4E79A7"><title>Qwen 2.5 7B Instruct | RAG [examples only] | missing_final_state: 11</title></rect>
<rect x="1235.4" y="333.4" width="78.9" height="26.1" fill="#E15759"><title>Qwen 2.5 7B Instruct | RAG [examples only] | multiple_initial_states: 4</title></rect>
<rect x="1235.4" y="261.6" width="78.9" height="71.8" fill="#59A14F"><title>Qwen 2.5 7B Instruct | RAG [examples only] | orphan_states: 11</title></rect>
<rect x="1235.4" y="176.8" width="78.9" height="84.8" fill="#76B7B2"><title>Qwen 2.5 7B Instruct | RAG [examples only] | unreachable_states: 13</title></rect>
<text class="label" x="1274.8" y="508" text-anchor="end" transform="rotate(-38 1274.8 508)">Qwen 2.5 7B Instruct | RAG [examples only]</text>
<rect x="1324.2" y="450.9" width="78.9" height="39.1" fill="#4E79A7"><title>Qwen 2.5 7B Instruct | RAG [rules only] | missing_final_state: 6</title></rect>
<rect x="1324.2" y="418.2" width="78.9" height="32.6" fill="#E15759"><title>Qwen 2.5 7B Instruct | RAG [rules only] | multiple_initial_states: 5</title></rect>
<rect x="1324.2" y="411.7" width="78.9" height="6.5" fill="#59A14F"><title>Qwen 2.5 7B Instruct | RAG [rules only] | orphan_states: 1</title></rect>
<rect x="1324.2" y="405.2" width="78.9" height="6.5" fill="#76B7B2"><title>Qwen 2.5 7B Instruct | RAG [rules only] | unreachable_states: 1</title></rect>
<text class="label" x="1363.7" y="508" text-anchor="end" transform="rotate(-38 1363.7 508)">Qwen 2.5 7B Instruct | RAG [rules only]</text>
<rect x="1413.1" y="483.5" width="78.9" height="6.5" fill="#B07AA1"><title>Qwen 2.5 7B Instruct | RAG [theory only] | duplicate_transitions: 1</title></rect>
<rect x="1413.1" y="359.5" width="78.9" height="124.0" fill="#4E79A7"><title>Qwen 2.5 7B Instruct | RAG [theory only] | missing_final_state: 19</title></rect>
<rect x="1413.1" y="320.4" width="78.9" height="39.1" fill="#F28E2B"><title>Qwen 2.5 7B Instruct | RAG [theory only] | missing_initial_state: 6</title></rect>
<rect x="1413.1" y="307.3" width="78.9" height="13.0" fill="#E15759"><title>Qwen 2.5 7B Instruct | RAG [theory only] | multiple_initial_states: 2</title></rect>
<rect x="1413.1" y="300.8" width="78.9" height="6.5" fill="#59A14F"><title>Qwen 2.5 7B Instruct | RAG [theory only] | orphan_states: 1</title></rect>
<rect x="1413.1" y="287.7" width="78.9" height="13.0" fill="#76B7B2"><title>Qwen 2.5 7B Instruct | RAG [theory only] | unreachable_states: 2</title></rect>
<text class="label" x="1452.6" y="508" text-anchor="end" transform="rotate(-38 1452.6 508)">Qwen 2.5 7B Instruct | RAG [theory only]</text>
<rect x="80" y="590" width="14" height="14" fill="#B07AA1" rx="2"/>
<text class="legend" x="100" y="602">duplicate_transitions</text>
<rect x="271" y="590" width="14" height="14" fill="#FF9DA7" rx="2"/>
<text class="legend" x="291" y="602">invalid_choice_guards</text>
<rect x="462" y="590" width="14" height="14" fill="#EDC948" rx="2"/>
<text class="legend" x="482" y="602">invalid_choice_node</text>
<rect x="639" y="590" width="14" height="14" fill="#4E79A7" rx="2"/>
<text class="legend" x="659" y="602">missing_final_state</text>
<rect x="816" y="590" width="14" height="14" fill="#F28E2B" rx="2"/>
<text class="legend" x="836" y="602">missing_initial_state</text>
<rect x="1007" y="590" width="14" height="14" fill="#E15759" rx="2"/>
<text class="legend" x="1027" y="602">multiple_initial_states</text>
<rect x="1212" y="590" width="14" height="14" fill="#59A14F" rx="2"/>
<text class="legend" x="1232" y="602">orphan_states</text>
<rect x="1347" y="590" width="14" height="14" fill="#8CD17D" rx="2"/>
<text class="legend" x="1367" y="602">parse_warning</text>
<rect x="80" y="612" width="14" height="14" fill="#76B7B2" rx="2"/>
<text class="legend" x="100" y="624">unreachable_states</text>
</svg>